G04 #@! TF.GenerationSoftware,KiCad,Pcbnew,(5.1.8)-1*
G04 #@! TF.CreationDate,2020-12-29T20:44:18-05:00*
G04 #@! TF.ProjectId,rpi_sensor_hat,7270695f-7365-46e7-936f-725f6861742e,rev?*
G04 #@! TF.SameCoordinates,Original*
G04 #@! TF.FileFunction,Paste,Top*
G04 #@! TF.FilePolarity,Positive*
%FSLAX46Y46*%
G04 Gerber Fmt 4.6, Leading zero omitted, Abs format (unit mm)*
G04 Created by KiCad (PCBNEW (5.1.8)-1) date 2020-12-29 20:44:18*
%MOMM*%
%LPD*%
G01*
G04 APERTURE LIST*
%ADD10R,0.740000X2.400000*%
%ADD11R,0.900000X0.800000*%
%ADD12R,0.950000X0.900000*%
%ADD13R,0.350000X0.500000*%
G04 APERTURE END LIST*
G36*
G01*
X61700000Y-70549999D02*
X61700000Y-71450001D01*
G75*
G02*
X61450001Y-71700000I-249999J0D01*
G01*
X60924999Y-71700000D01*
G75*
G02*
X60675000Y-71450001I0J249999D01*
G01*
X60675000Y-70549999D01*
G75*
G02*
X60924999Y-70300000I249999J0D01*
G01*
X61450001Y-70300000D01*
G75*
G02*
X61700000Y-70549999I0J-249999D01*
G01*
G37*
G36*
G01*
X63525000Y-70549999D02*
X63525000Y-71450001D01*
G75*
G02*
X63275001Y-71700000I-249999J0D01*
G01*
X62749999Y-71700000D01*
G75*
G02*
X62500000Y-71450001I0J249999D01*
G01*
X62500000Y-70549999D01*
G75*
G02*
X62749999Y-70300000I249999J0D01*
G01*
X63275001Y-70300000D01*
G75*
G02*
X63525000Y-70549999I0J-249999D01*
G01*
G37*
G36*
G01*
X72824999Y-84675000D02*
X73725001Y-84675000D01*
G75*
G02*
X73975000Y-84924999I0J-249999D01*
G01*
X73975000Y-85450001D01*
G75*
G02*
X73725001Y-85700000I-249999J0D01*
G01*
X72824999Y-85700000D01*
G75*
G02*
X72575000Y-85450001I0J249999D01*
G01*
X72575000Y-84924999D01*
G75*
G02*
X72824999Y-84675000I249999J0D01*
G01*
G37*
G36*
G01*
X72824999Y-82850000D02*
X73725001Y-82850000D01*
G75*
G02*
X73975000Y-83099999I0J-249999D01*
G01*
X73975000Y-83625001D01*
G75*
G02*
X73725001Y-83875000I-249999J0D01*
G01*
X72824999Y-83875000D01*
G75*
G02*
X72575000Y-83625001I0J249999D01*
G01*
X72575000Y-83099999D01*
G75*
G02*
X72824999Y-82850000I249999J0D01*
G01*
G37*
G36*
G01*
X61600000Y-83049999D02*
X61600000Y-83950001D01*
G75*
G02*
X61350001Y-84200000I-249999J0D01*
G01*
X60824999Y-84200000D01*
G75*
G02*
X60575000Y-83950001I0J249999D01*
G01*
X60575000Y-83049999D01*
G75*
G02*
X60824999Y-82800000I249999J0D01*
G01*
X61350001Y-82800000D01*
G75*
G02*
X61600000Y-83049999I0J-249999D01*
G01*
G37*
G36*
G01*
X63425000Y-83049999D02*
X63425000Y-83950001D01*
G75*
G02*
X63175001Y-84200000I-249999J0D01*
G01*
X62649999Y-84200000D01*
G75*
G02*
X62400000Y-83950001I0J249999D01*
G01*
X62400000Y-83049999D01*
G75*
G02*
X62649999Y-82800000I249999J0D01*
G01*
X63175001Y-82800000D01*
G75*
G02*
X63425000Y-83049999I0J-249999D01*
G01*
G37*
G36*
G01*
X61600000Y-78549999D02*
X61600000Y-79450001D01*
G75*
G02*
X61350001Y-79700000I-249999J0D01*
G01*
X60824999Y-79700000D01*
G75*
G02*
X60575000Y-79450001I0J249999D01*
G01*
X60575000Y-78549999D01*
G75*
G02*
X60824999Y-78300000I249999J0D01*
G01*
X61350001Y-78300000D01*
G75*
G02*
X61600000Y-78549999I0J-249999D01*
G01*
G37*
G36*
G01*
X63425000Y-78549999D02*
X63425000Y-79450001D01*
G75*
G02*
X63175001Y-79700000I-249999J0D01*
G01*
X62649999Y-79700000D01*
G75*
G02*
X62400000Y-79450001I0J249999D01*
G01*
X62400000Y-78549999D01*
G75*
G02*
X62649999Y-78300000I249999J0D01*
G01*
X63175001Y-78300000D01*
G75*
G02*
X63425000Y-78549999I0J-249999D01*
G01*
G37*
G36*
G01*
X77149999Y-84700000D02*
X78050001Y-84700000D01*
G75*
G02*
X78300000Y-84949999I0J-249999D01*
G01*
X78300000Y-85475001D01*
G75*
G02*
X78050001Y-85725000I-249999J0D01*
G01*
X77149999Y-85725000D01*
G75*
G02*
X76900000Y-85475001I0J249999D01*
G01*
X76900000Y-84949999D01*
G75*
G02*
X77149999Y-84700000I249999J0D01*
G01*
G37*
G36*
G01*
X77149999Y-82875000D02*
X78050001Y-82875000D01*
G75*
G02*
X78300000Y-83124999I0J-249999D01*
G01*
X78300000Y-83650001D01*
G75*
G02*
X78050001Y-83900000I-249999J0D01*
G01*
X77149999Y-83900000D01*
G75*
G02*
X76900000Y-83650001I0J249999D01*
G01*
X76900000Y-83124999D01*
G75*
G02*
X77149999Y-82875000I249999J0D01*
G01*
G37*
G36*
G01*
X100700000Y-96349999D02*
X100700000Y-97250001D01*
G75*
G02*
X100450001Y-97500000I-249999J0D01*
G01*
X99924999Y-97500000D01*
G75*
G02*
X99675000Y-97250001I0J249999D01*
G01*
X99675000Y-96349999D01*
G75*
G02*
X99924999Y-96100000I249999J0D01*
G01*
X100450001Y-96100000D01*
G75*
G02*
X100700000Y-96349999I0J-249999D01*
G01*
G37*
G36*
G01*
X102525000Y-96349999D02*
X102525000Y-97250001D01*
G75*
G02*
X102275001Y-97500000I-249999J0D01*
G01*
X101749999Y-97500000D01*
G75*
G02*
X101500000Y-97250001I0J249999D01*
G01*
X101500000Y-96349999D01*
G75*
G02*
X101749999Y-96100000I249999J0D01*
G01*
X102275001Y-96100000D01*
G75*
G02*
X102525000Y-96349999I0J-249999D01*
G01*
G37*
G36*
G01*
X106900000Y-96349999D02*
X106900000Y-97250001D01*
G75*
G02*
X106650001Y-97500000I-249999J0D01*
G01*
X106124999Y-97500000D01*
G75*
G02*
X105875000Y-97250001I0J249999D01*
G01*
X105875000Y-96349999D01*
G75*
G02*
X106124999Y-96100000I249999J0D01*
G01*
X106650001Y-96100000D01*
G75*
G02*
X106900000Y-96349999I0J-249999D01*
G01*
G37*
G36*
G01*
X108725000Y-96349999D02*
X108725000Y-97250001D01*
G75*
G02*
X108475001Y-97500000I-249999J0D01*
G01*
X107949999Y-97500000D01*
G75*
G02*
X107700000Y-97250001I0J249999D01*
G01*
X107700000Y-96349999D01*
G75*
G02*
X107949999Y-96100000I249999J0D01*
G01*
X108475001Y-96100000D01*
G75*
G02*
X108725000Y-96349999I0J-249999D01*
G01*
G37*
G36*
G01*
X97390000Y-75540001D02*
X97390000Y-74639999D01*
G75*
G02*
X97639999Y-74390000I249999J0D01*
G01*
X98165001Y-74390000D01*
G75*
G02*
X98415000Y-74639999I0J-249999D01*
G01*
X98415000Y-75540001D01*
G75*
G02*
X98165001Y-75790000I-249999J0D01*
G01*
X97639999Y-75790000D01*
G75*
G02*
X97390000Y-75540001I0J249999D01*
G01*
G37*
G36*
G01*
X95565000Y-75540001D02*
X95565000Y-74639999D01*
G75*
G02*
X95814999Y-74390000I249999J0D01*
G01*
X96340001Y-74390000D01*
G75*
G02*
X96590000Y-74639999I0J-249999D01*
G01*
X96590000Y-75540001D01*
G75*
G02*
X96340001Y-75790000I-249999J0D01*
G01*
X95814999Y-75790000D01*
G75*
G02*
X95565000Y-75540001I0J249999D01*
G01*
G37*
G36*
G01*
X97380000Y-77650001D02*
X97380000Y-76749999D01*
G75*
G02*
X97629999Y-76500000I249999J0D01*
G01*
X98155001Y-76500000D01*
G75*
G02*
X98405000Y-76749999I0J-249999D01*
G01*
X98405000Y-77650001D01*
G75*
G02*
X98155001Y-77900000I-249999J0D01*
G01*
X97629999Y-77900000D01*
G75*
G02*
X97380000Y-77650001I0J249999D01*
G01*
G37*
G36*
G01*
X95555000Y-77650001D02*
X95555000Y-76749999D01*
G75*
G02*
X95804999Y-76500000I249999J0D01*
G01*
X96330001Y-76500000D01*
G75*
G02*
X96580000Y-76749999I0J-249999D01*
G01*
X96580000Y-77650001D01*
G75*
G02*
X96330001Y-77900000I-249999J0D01*
G01*
X95804999Y-77900000D01*
G75*
G02*
X95555000Y-77650001I0J249999D01*
G01*
G37*
G36*
G01*
X100700000Y-94249999D02*
X100700000Y-95150001D01*
G75*
G02*
X100450001Y-95400000I-249999J0D01*
G01*
X99924999Y-95400000D01*
G75*
G02*
X99675000Y-95150001I0J249999D01*
G01*
X99675000Y-94249999D01*
G75*
G02*
X99924999Y-94000000I249999J0D01*
G01*
X100450001Y-94000000D01*
G75*
G02*
X100700000Y-94249999I0J-249999D01*
G01*
G37*
G36*
G01*
X102525000Y-94249999D02*
X102525000Y-95150001D01*
G75*
G02*
X102275001Y-95400000I-249999J0D01*
G01*
X101749999Y-95400000D01*
G75*
G02*
X101500000Y-95150001I0J249999D01*
G01*
X101500000Y-94249999D01*
G75*
G02*
X101749999Y-94000000I249999J0D01*
G01*
X102275001Y-94000000D01*
G75*
G02*
X102525000Y-94249999I0J-249999D01*
G01*
G37*
G36*
G01*
X106900000Y-94249999D02*
X106900000Y-95150001D01*
G75*
G02*
X106650001Y-95400000I-249999J0D01*
G01*
X106124999Y-95400000D01*
G75*
G02*
X105875000Y-95150001I0J249999D01*
G01*
X105875000Y-94249999D01*
G75*
G02*
X106124999Y-94000000I249999J0D01*
G01*
X106650001Y-94000000D01*
G75*
G02*
X106900000Y-94249999I0J-249999D01*
G01*
G37*
G36*
G01*
X108725000Y-94249999D02*
X108725000Y-95150001D01*
G75*
G02*
X108475001Y-95400000I-249999J0D01*
G01*
X107949999Y-95400000D01*
G75*
G02*
X107700000Y-95150001I0J249999D01*
G01*
X107700000Y-94249999D01*
G75*
G02*
X107949999Y-94000000I249999J0D01*
G01*
X108475001Y-94000000D01*
G75*
G02*
X108725000Y-94249999I0J-249999D01*
G01*
G37*
G36*
G01*
X96600000Y-70349999D02*
X96600000Y-71250001D01*
G75*
G02*
X96350001Y-71500000I-249999J0D01*
G01*
X95824999Y-71500000D01*
G75*
G02*
X95575000Y-71250001I0J249999D01*
G01*
X95575000Y-70349999D01*
G75*
G02*
X95824999Y-70100000I249999J0D01*
G01*
X96350001Y-70100000D01*
G75*
G02*
X96600000Y-70349999I0J-249999D01*
G01*
G37*
G36*
G01*
X98425000Y-70349999D02*
X98425000Y-71250001D01*
G75*
G02*
X98175001Y-71500000I-249999J0D01*
G01*
X97649999Y-71500000D01*
G75*
G02*
X97400000Y-71250001I0J249999D01*
G01*
X97400000Y-70349999D01*
G75*
G02*
X97649999Y-70100000I249999J0D01*
G01*
X98175001Y-70100000D01*
G75*
G02*
X98425000Y-70349999I0J-249999D01*
G01*
G37*
G36*
G01*
X97400000Y-73450001D02*
X97400000Y-72549999D01*
G75*
G02*
X97649999Y-72300000I249999J0D01*
G01*
X98175001Y-72300000D01*
G75*
G02*
X98425000Y-72549999I0J-249999D01*
G01*
X98425000Y-73450001D01*
G75*
G02*
X98175001Y-73700000I-249999J0D01*
G01*
X97649999Y-73700000D01*
G75*
G02*
X97400000Y-73450001I0J249999D01*
G01*
G37*
G36*
G01*
X95575000Y-73450001D02*
X95575000Y-72549999D01*
G75*
G02*
X95824999Y-72300000I249999J0D01*
G01*
X96350001Y-72300000D01*
G75*
G02*
X96600000Y-72549999I0J-249999D01*
G01*
X96600000Y-73450001D01*
G75*
G02*
X96350001Y-73700000I-249999J0D01*
G01*
X95824999Y-73700000D01*
G75*
G02*
X95575000Y-73450001I0J249999D01*
G01*
G37*
G36*
G01*
X100700000Y-92149999D02*
X100700000Y-93050001D01*
G75*
G02*
X100450001Y-93300000I-249999J0D01*
G01*
X99924999Y-93300000D01*
G75*
G02*
X99675000Y-93050001I0J249999D01*
G01*
X99675000Y-92149999D01*
G75*
G02*
X99924999Y-91900000I249999J0D01*
G01*
X100450001Y-91900000D01*
G75*
G02*
X100700000Y-92149999I0J-249999D01*
G01*
G37*
G36*
G01*
X102525000Y-92149999D02*
X102525000Y-93050001D01*
G75*
G02*
X102275001Y-93300000I-249999J0D01*
G01*
X101749999Y-93300000D01*
G75*
G02*
X101500000Y-93050001I0J249999D01*
G01*
X101500000Y-92149999D01*
G75*
G02*
X101749999Y-91900000I249999J0D01*
G01*
X102275001Y-91900000D01*
G75*
G02*
X102525000Y-92149999I0J-249999D01*
G01*
G37*
G36*
G01*
X106900000Y-92149999D02*
X106900000Y-93050001D01*
G75*
G02*
X106650001Y-93300000I-249999J0D01*
G01*
X106124999Y-93300000D01*
G75*
G02*
X105875000Y-93050001I0J249999D01*
G01*
X105875000Y-92149999D01*
G75*
G02*
X106124999Y-91900000I249999J0D01*
G01*
X106650001Y-91900000D01*
G75*
G02*
X106900000Y-92149999I0J-249999D01*
G01*
G37*
G36*
G01*
X108725000Y-92149999D02*
X108725000Y-93050001D01*
G75*
G02*
X108475001Y-93300000I-249999J0D01*
G01*
X107949999Y-93300000D01*
G75*
G02*
X107700000Y-93050001I0J249999D01*
G01*
X107700000Y-92149999D01*
G75*
G02*
X107949999Y-91900000I249999J0D01*
G01*
X108475001Y-91900000D01*
G75*
G02*
X108725000Y-92149999I0J-249999D01*
G01*
G37*
G36*
G01*
X60089999Y-94320000D02*
X60990001Y-94320000D01*
G75*
G02*
X61240000Y-94569999I0J-249999D01*
G01*
X61240000Y-95095001D01*
G75*
G02*
X60990001Y-95345000I-249999J0D01*
G01*
X60089999Y-95345000D01*
G75*
G02*
X59840000Y-95095001I0J249999D01*
G01*
X59840000Y-94569999D01*
G75*
G02*
X60089999Y-94320000I249999J0D01*
G01*
G37*
G36*
G01*
X60089999Y-92495000D02*
X60990001Y-92495000D01*
G75*
G02*
X61240000Y-92744999I0J-249999D01*
G01*
X61240000Y-93270001D01*
G75*
G02*
X60990001Y-93520000I-249999J0D01*
G01*
X60089999Y-93520000D01*
G75*
G02*
X59840000Y-93270001I0J249999D01*
G01*
X59840000Y-92744999D01*
G75*
G02*
X60089999Y-92495000I249999J0D01*
G01*
G37*
D10*
X99940000Y-80950000D03*
X99940000Y-84850000D03*
X98670000Y-80950000D03*
X98670000Y-84850000D03*
X97400000Y-80950000D03*
X97400000Y-84850000D03*
X96130000Y-80950000D03*
X96130000Y-84850000D03*
X94860000Y-80950000D03*
X94860000Y-84850000D03*
G36*
G01*
X58450000Y-83956250D02*
X58450000Y-83043750D01*
G75*
G02*
X58693750Y-82800000I243750J0D01*
G01*
X59181250Y-82800000D01*
G75*
G02*
X59425000Y-83043750I0J-243750D01*
G01*
X59425000Y-83956250D01*
G75*
G02*
X59181250Y-84200000I-243750J0D01*
G01*
X58693750Y-84200000D01*
G75*
G02*
X58450000Y-83956250I0J243750D01*
G01*
G37*
G36*
G01*
X56575000Y-83956250D02*
X56575000Y-83043750D01*
G75*
G02*
X56818750Y-82800000I243750J0D01*
G01*
X57306250Y-82800000D01*
G75*
G02*
X57550000Y-83043750I0J-243750D01*
G01*
X57550000Y-83956250D01*
G75*
G02*
X57306250Y-84200000I-243750J0D01*
G01*
X56818750Y-84200000D01*
G75*
G02*
X56575000Y-83956250I0J243750D01*
G01*
G37*
G36*
G01*
X58450000Y-79456250D02*
X58450000Y-78543750D01*
G75*
G02*
X58693750Y-78300000I243750J0D01*
G01*
X59181250Y-78300000D01*
G75*
G02*
X59425000Y-78543750I0J-243750D01*
G01*
X59425000Y-79456250D01*
G75*
G02*
X59181250Y-79700000I-243750J0D01*
G01*
X58693750Y-79700000D01*
G75*
G02*
X58450000Y-79456250I0J243750D01*
G01*
G37*
G36*
G01*
X56575000Y-79456250D02*
X56575000Y-78543750D01*
G75*
G02*
X56818750Y-78300000I243750J0D01*
G01*
X57306250Y-78300000D01*
G75*
G02*
X57550000Y-78543750I0J-243750D01*
G01*
X57550000Y-79456250D01*
G75*
G02*
X57306250Y-79700000I-243750J0D01*
G01*
X56818750Y-79700000D01*
G75*
G02*
X56575000Y-79456250I0J243750D01*
G01*
G37*
G36*
G01*
X75875000Y-83850000D02*
X74925000Y-83850000D01*
G75*
G02*
X74675000Y-83600000I0J250000D01*
G01*
X74675000Y-83100000D01*
G75*
G02*
X74925000Y-82850000I250000J0D01*
G01*
X75875000Y-82850000D01*
G75*
G02*
X76125000Y-83100000I0J-250000D01*
G01*
X76125000Y-83600000D01*
G75*
G02*
X75875000Y-83850000I-250000J0D01*
G01*
G37*
G36*
G01*
X75875000Y-85750000D02*
X74925000Y-85750000D01*
G75*
G02*
X74675000Y-85500000I0J250000D01*
G01*
X74675000Y-85000000D01*
G75*
G02*
X74925000Y-84750000I250000J0D01*
G01*
X75875000Y-84750000D01*
G75*
G02*
X76125000Y-85000000I0J-250000D01*
G01*
X76125000Y-85500000D01*
G75*
G02*
X75875000Y-85750000I-250000J0D01*
G01*
G37*
G36*
G01*
X83450000Y-84550000D02*
X83450000Y-83300000D01*
G75*
G02*
X83575000Y-83175000I125000J0D01*
G01*
X83825000Y-83175000D01*
G75*
G02*
X83950000Y-83300000I0J-125000D01*
G01*
X83950000Y-84550000D01*
G75*
G02*
X83825000Y-84675000I-125000J0D01*
G01*
X83575000Y-84675000D01*
G75*
G02*
X83450000Y-84550000I0J125000D01*
G01*
G37*
G36*
G01*
X84250000Y-84550000D02*
X84250000Y-83300000D01*
G75*
G02*
X84375000Y-83175000I125000J0D01*
G01*
X84625000Y-83175000D01*
G75*
G02*
X84750000Y-83300000I0J-125000D01*
G01*
X84750000Y-84550000D01*
G75*
G02*
X84625000Y-84675000I-125000J0D01*
G01*
X84375000Y-84675000D01*
G75*
G02*
X84250000Y-84550000I0J125000D01*
G01*
G37*
G36*
G01*
X85050000Y-84550000D02*
X85050000Y-83300000D01*
G75*
G02*
X85175000Y-83175000I125000J0D01*
G01*
X85425000Y-83175000D01*
G75*
G02*
X85550000Y-83300000I0J-125000D01*
G01*
X85550000Y-84550000D01*
G75*
G02*
X85425000Y-84675000I-125000J0D01*
G01*
X85175000Y-84675000D01*
G75*
G02*
X85050000Y-84550000I0J125000D01*
G01*
G37*
G36*
G01*
X85850000Y-84550000D02*
X85850000Y-83300000D01*
G75*
G02*
X85975000Y-83175000I125000J0D01*
G01*
X86225000Y-83175000D01*
G75*
G02*
X86350000Y-83300000I0J-125000D01*
G01*
X86350000Y-84550000D01*
G75*
G02*
X86225000Y-84675000I-125000J0D01*
G01*
X85975000Y-84675000D01*
G75*
G02*
X85850000Y-84550000I0J125000D01*
G01*
G37*
G36*
G01*
X86650000Y-84550000D02*
X86650000Y-83300000D01*
G75*
G02*
X86775000Y-83175000I125000J0D01*
G01*
X87025000Y-83175000D01*
G75*
G02*
X87150000Y-83300000I0J-125000D01*
G01*
X87150000Y-84550000D01*
G75*
G02*
X87025000Y-84675000I-125000J0D01*
G01*
X86775000Y-84675000D01*
G75*
G02*
X86650000Y-84550000I0J125000D01*
G01*
G37*
G36*
G01*
X87450000Y-84550000D02*
X87450000Y-83300000D01*
G75*
G02*
X87575000Y-83175000I125000J0D01*
G01*
X87825000Y-83175000D01*
G75*
G02*
X87950000Y-83300000I0J-125000D01*
G01*
X87950000Y-84550000D01*
G75*
G02*
X87825000Y-84675000I-125000J0D01*
G01*
X87575000Y-84675000D01*
G75*
G02*
X87450000Y-84550000I0J125000D01*
G01*
G37*
G36*
G01*
X88250000Y-84550000D02*
X88250000Y-83300000D01*
G75*
G02*
X88375000Y-83175000I125000J0D01*
G01*
X88625000Y-83175000D01*
G75*
G02*
X88750000Y-83300000I0J-125000D01*
G01*
X88750000Y-84550000D01*
G75*
G02*
X88625000Y-84675000I-125000J0D01*
G01*
X88375000Y-84675000D01*
G75*
G02*
X88250000Y-84550000I0J125000D01*
G01*
G37*
G36*
G01*
X89050000Y-84550000D02*
X89050000Y-83300000D01*
G75*
G02*
X89175000Y-83175000I125000J0D01*
G01*
X89425000Y-83175000D01*
G75*
G02*
X89550000Y-83300000I0J-125000D01*
G01*
X89550000Y-84550000D01*
G75*
G02*
X89425000Y-84675000I-125000J0D01*
G01*
X89175000Y-84675000D01*
G75*
G02*
X89050000Y-84550000I0J125000D01*
G01*
G37*
G36*
G01*
X89925000Y-85425000D02*
X89925000Y-85175000D01*
G75*
G02*
X90050000Y-85050000I125000J0D01*
G01*
X91300000Y-85050000D01*
G75*
G02*
X91425000Y-85175000I0J-125000D01*
G01*
X91425000Y-85425000D01*
G75*
G02*
X91300000Y-85550000I-125000J0D01*
G01*
X90050000Y-85550000D01*
G75*
G02*
X89925000Y-85425000I0J125000D01*
G01*
G37*
G36*
G01*
X89925000Y-86225000D02*
X89925000Y-85975000D01*
G75*
G02*
X90050000Y-85850000I125000J0D01*
G01*
X91300000Y-85850000D01*
G75*
G02*
X91425000Y-85975000I0J-125000D01*
G01*
X91425000Y-86225000D01*
G75*
G02*
X91300000Y-86350000I-125000J0D01*
G01*
X90050000Y-86350000D01*
G75*
G02*
X89925000Y-86225000I0J125000D01*
G01*
G37*
G36*
G01*
X89925000Y-87025000D02*
X89925000Y-86775000D01*
G75*
G02*
X90050000Y-86650000I125000J0D01*
G01*
X91300000Y-86650000D01*
G75*
G02*
X91425000Y-86775000I0J-125000D01*
G01*
X91425000Y-87025000D01*
G75*
G02*
X91300000Y-87150000I-125000J0D01*
G01*
X90050000Y-87150000D01*
G75*
G02*
X89925000Y-87025000I0J125000D01*
G01*
G37*
G36*
G01*
X89925000Y-87825000D02*
X89925000Y-87575000D01*
G75*
G02*
X90050000Y-87450000I125000J0D01*
G01*
X91300000Y-87450000D01*
G75*
G02*
X91425000Y-87575000I0J-125000D01*
G01*
X91425000Y-87825000D01*
G75*
G02*
X91300000Y-87950000I-125000J0D01*
G01*
X90050000Y-87950000D01*
G75*
G02*
X89925000Y-87825000I0J125000D01*
G01*
G37*
G36*
G01*
X89925000Y-88625000D02*
X89925000Y-88375000D01*
G75*
G02*
X90050000Y-88250000I125000J0D01*
G01*
X91300000Y-88250000D01*
G75*
G02*
X91425000Y-88375000I0J-125000D01*
G01*
X91425000Y-88625000D01*
G75*
G02*
X91300000Y-88750000I-125000J0D01*
G01*
X90050000Y-88750000D01*
G75*
G02*
X89925000Y-88625000I0J125000D01*
G01*
G37*
G36*
G01*
X89925000Y-89425000D02*
X89925000Y-89175000D01*
G75*
G02*
X90050000Y-89050000I125000J0D01*
G01*
X91300000Y-89050000D01*
G75*
G02*
X91425000Y-89175000I0J-125000D01*
G01*
X91425000Y-89425000D01*
G75*
G02*
X91300000Y-89550000I-125000J0D01*
G01*
X90050000Y-89550000D01*
G75*
G02*
X89925000Y-89425000I0J125000D01*
G01*
G37*
G36*
G01*
X89925000Y-90225000D02*
X89925000Y-89975000D01*
G75*
G02*
X90050000Y-89850000I125000J0D01*
G01*
X91300000Y-89850000D01*
G75*
G02*
X91425000Y-89975000I0J-125000D01*
G01*
X91425000Y-90225000D01*
G75*
G02*
X91300000Y-90350000I-125000J0D01*
G01*
X90050000Y-90350000D01*
G75*
G02*
X89925000Y-90225000I0J125000D01*
G01*
G37*
G36*
G01*
X89925000Y-91025000D02*
X89925000Y-90775000D01*
G75*
G02*
X90050000Y-90650000I125000J0D01*
G01*
X91300000Y-90650000D01*
G75*
G02*
X91425000Y-90775000I0J-125000D01*
G01*
X91425000Y-91025000D01*
G75*
G02*
X91300000Y-91150000I-125000J0D01*
G01*
X90050000Y-91150000D01*
G75*
G02*
X89925000Y-91025000I0J125000D01*
G01*
G37*
G36*
G01*
X89050000Y-92900000D02*
X89050000Y-91650000D01*
G75*
G02*
X89175000Y-91525000I125000J0D01*
G01*
X89425000Y-91525000D01*
G75*
G02*
X89550000Y-91650000I0J-125000D01*
G01*
X89550000Y-92900000D01*
G75*
G02*
X89425000Y-93025000I-125000J0D01*
G01*
X89175000Y-93025000D01*
G75*
G02*
X89050000Y-92900000I0J125000D01*
G01*
G37*
G36*
G01*
X88250000Y-92900000D02*
X88250000Y-91650000D01*
G75*
G02*
X88375000Y-91525000I125000J0D01*
G01*
X88625000Y-91525000D01*
G75*
G02*
X88750000Y-91650000I0J-125000D01*
G01*
X88750000Y-92900000D01*
G75*
G02*
X88625000Y-93025000I-125000J0D01*
G01*
X88375000Y-93025000D01*
G75*
G02*
X88250000Y-92900000I0J125000D01*
G01*
G37*
G36*
G01*
X87450000Y-92900000D02*
X87450000Y-91650000D01*
G75*
G02*
X87575000Y-91525000I125000J0D01*
G01*
X87825000Y-91525000D01*
G75*
G02*
X87950000Y-91650000I0J-125000D01*
G01*
X87950000Y-92900000D01*
G75*
G02*
X87825000Y-93025000I-125000J0D01*
G01*
X87575000Y-93025000D01*
G75*
G02*
X87450000Y-92900000I0J125000D01*
G01*
G37*
G36*
G01*
X86650000Y-92900000D02*
X86650000Y-91650000D01*
G75*
G02*
X86775000Y-91525000I125000J0D01*
G01*
X87025000Y-91525000D01*
G75*
G02*
X87150000Y-91650000I0J-125000D01*
G01*
X87150000Y-92900000D01*
G75*
G02*
X87025000Y-93025000I-125000J0D01*
G01*
X86775000Y-93025000D01*
G75*
G02*
X86650000Y-92900000I0J125000D01*
G01*
G37*
G36*
G01*
X85850000Y-92900000D02*
X85850000Y-91650000D01*
G75*
G02*
X85975000Y-91525000I125000J0D01*
G01*
X86225000Y-91525000D01*
G75*
G02*
X86350000Y-91650000I0J-125000D01*
G01*
X86350000Y-92900000D01*
G75*
G02*
X86225000Y-93025000I-125000J0D01*
G01*
X85975000Y-93025000D01*
G75*
G02*
X85850000Y-92900000I0J125000D01*
G01*
G37*
G36*
G01*
X85050000Y-92900000D02*
X85050000Y-91650000D01*
G75*
G02*
X85175000Y-91525000I125000J0D01*
G01*
X85425000Y-91525000D01*
G75*
G02*
X85550000Y-91650000I0J-125000D01*
G01*
X85550000Y-92900000D01*
G75*
G02*
X85425000Y-93025000I-125000J0D01*
G01*
X85175000Y-93025000D01*
G75*
G02*
X85050000Y-92900000I0J125000D01*
G01*
G37*
G36*
G01*
X84250000Y-92900000D02*
X84250000Y-91650000D01*
G75*
G02*
X84375000Y-91525000I125000J0D01*
G01*
X84625000Y-91525000D01*
G75*
G02*
X84750000Y-91650000I0J-125000D01*
G01*
X84750000Y-92900000D01*
G75*
G02*
X84625000Y-93025000I-125000J0D01*
G01*
X84375000Y-93025000D01*
G75*
G02*
X84250000Y-92900000I0J125000D01*
G01*
G37*
G36*
G01*
X83450000Y-92900000D02*
X83450000Y-91650000D01*
G75*
G02*
X83575000Y-91525000I125000J0D01*
G01*
X83825000Y-91525000D01*
G75*
G02*
X83950000Y-91650000I0J-125000D01*
G01*
X83950000Y-92900000D01*
G75*
G02*
X83825000Y-93025000I-125000J0D01*
G01*
X83575000Y-93025000D01*
G75*
G02*
X83450000Y-92900000I0J125000D01*
G01*
G37*
G36*
G01*
X81575000Y-91025000D02*
X81575000Y-90775000D01*
G75*
G02*
X81700000Y-90650000I125000J0D01*
G01*
X82950000Y-90650000D01*
G75*
G02*
X83075000Y-90775000I0J-125000D01*
G01*
X83075000Y-91025000D01*
G75*
G02*
X82950000Y-91150000I-125000J0D01*
G01*
X81700000Y-91150000D01*
G75*
G02*
X81575000Y-91025000I0J125000D01*
G01*
G37*
G36*
G01*
X81575000Y-90225000D02*
X81575000Y-89975000D01*
G75*
G02*
X81700000Y-89850000I125000J0D01*
G01*
X82950000Y-89850000D01*
G75*
G02*
X83075000Y-89975000I0J-125000D01*
G01*
X83075000Y-90225000D01*
G75*
G02*
X82950000Y-90350000I-125000J0D01*
G01*
X81700000Y-90350000D01*
G75*
G02*
X81575000Y-90225000I0J125000D01*
G01*
G37*
G36*
G01*
X81575000Y-89425000D02*
X81575000Y-89175000D01*
G75*
G02*
X81700000Y-89050000I125000J0D01*
G01*
X82950000Y-89050000D01*
G75*
G02*
X83075000Y-89175000I0J-125000D01*
G01*
X83075000Y-89425000D01*
G75*
G02*
X82950000Y-89550000I-125000J0D01*
G01*
X81700000Y-89550000D01*
G75*
G02*
X81575000Y-89425000I0J125000D01*
G01*
G37*
G36*
G01*
X81575000Y-88625000D02*
X81575000Y-88375000D01*
G75*
G02*
X81700000Y-88250000I125000J0D01*
G01*
X82950000Y-88250000D01*
G75*
G02*
X83075000Y-88375000I0J-125000D01*
G01*
X83075000Y-88625000D01*
G75*
G02*
X82950000Y-88750000I-125000J0D01*
G01*
X81700000Y-88750000D01*
G75*
G02*
X81575000Y-88625000I0J125000D01*
G01*
G37*
G36*
G01*
X81575000Y-87825000D02*
X81575000Y-87575000D01*
G75*
G02*
X81700000Y-87450000I125000J0D01*
G01*
X82950000Y-87450000D01*
G75*
G02*
X83075000Y-87575000I0J-125000D01*
G01*
X83075000Y-87825000D01*
G75*
G02*
X82950000Y-87950000I-125000J0D01*
G01*
X81700000Y-87950000D01*
G75*
G02*
X81575000Y-87825000I0J125000D01*
G01*
G37*
G36*
G01*
X81575000Y-87025000D02*
X81575000Y-86775000D01*
G75*
G02*
X81700000Y-86650000I125000J0D01*
G01*
X82950000Y-86650000D01*
G75*
G02*
X83075000Y-86775000I0J-125000D01*
G01*
X83075000Y-87025000D01*
G75*
G02*
X82950000Y-87150000I-125000J0D01*
G01*
X81700000Y-87150000D01*
G75*
G02*
X81575000Y-87025000I0J125000D01*
G01*
G37*
G36*
G01*
X81575000Y-86225000D02*
X81575000Y-85975000D01*
G75*
G02*
X81700000Y-85850000I125000J0D01*
G01*
X82950000Y-85850000D01*
G75*
G02*
X83075000Y-85975000I0J-125000D01*
G01*
X83075000Y-86225000D01*
G75*
G02*
X82950000Y-86350000I-125000J0D01*
G01*
X81700000Y-86350000D01*
G75*
G02*
X81575000Y-86225000I0J125000D01*
G01*
G37*
G36*
G01*
X81575000Y-85425000D02*
X81575000Y-85175000D01*
G75*
G02*
X81700000Y-85050000I125000J0D01*
G01*
X82950000Y-85050000D01*
G75*
G02*
X83075000Y-85175000I0J-125000D01*
G01*
X83075000Y-85425000D01*
G75*
G02*
X82950000Y-85550000I-125000J0D01*
G01*
X81700000Y-85550000D01*
G75*
G02*
X81575000Y-85425000I0J125000D01*
G01*
G37*
G36*
G01*
X62675000Y-90860000D02*
X62375000Y-90860000D01*
G75*
G02*
X62225000Y-90710000I0J150000D01*
G01*
X62225000Y-89060000D01*
G75*
G02*
X62375000Y-88910000I150000J0D01*
G01*
X62675000Y-88910000D01*
G75*
G02*
X62825000Y-89060000I0J-150000D01*
G01*
X62825000Y-90710000D01*
G75*
G02*
X62675000Y-90860000I-150000J0D01*
G01*
G37*
G36*
G01*
X63945000Y-90860000D02*
X63645000Y-90860000D01*
G75*
G02*
X63495000Y-90710000I0J150000D01*
G01*
X63495000Y-89060000D01*
G75*
G02*
X63645000Y-88910000I150000J0D01*
G01*
X63945000Y-88910000D01*
G75*
G02*
X64095000Y-89060000I0J-150000D01*
G01*
X64095000Y-90710000D01*
G75*
G02*
X63945000Y-90860000I-150000J0D01*
G01*
G37*
G36*
G01*
X65215000Y-90860000D02*
X64915000Y-90860000D01*
G75*
G02*
X64765000Y-90710000I0J150000D01*
G01*
X64765000Y-89060000D01*
G75*
G02*
X64915000Y-88910000I150000J0D01*
G01*
X65215000Y-88910000D01*
G75*
G02*
X65365000Y-89060000I0J-150000D01*
G01*
X65365000Y-90710000D01*
G75*
G02*
X65215000Y-90860000I-150000J0D01*
G01*
G37*
G36*
G01*
X66485000Y-90860000D02*
X66185000Y-90860000D01*
G75*
G02*
X66035000Y-90710000I0J150000D01*
G01*
X66035000Y-89060000D01*
G75*
G02*
X66185000Y-88910000I150000J0D01*
G01*
X66485000Y-88910000D01*
G75*
G02*
X66635000Y-89060000I0J-150000D01*
G01*
X66635000Y-90710000D01*
G75*
G02*
X66485000Y-90860000I-150000J0D01*
G01*
G37*
G36*
G01*
X66485000Y-95810000D02*
X66185000Y-95810000D01*
G75*
G02*
X66035000Y-95660000I0J150000D01*
G01*
X66035000Y-94010000D01*
G75*
G02*
X66185000Y-93860000I150000J0D01*
G01*
X66485000Y-93860000D01*
G75*
G02*
X66635000Y-94010000I0J-150000D01*
G01*
X66635000Y-95660000D01*
G75*
G02*
X66485000Y-95810000I-150000J0D01*
G01*
G37*
G36*
G01*
X65215000Y-95810000D02*
X64915000Y-95810000D01*
G75*
G02*
X64765000Y-95660000I0J150000D01*
G01*
X64765000Y-94010000D01*
G75*
G02*
X64915000Y-93860000I150000J0D01*
G01*
X65215000Y-93860000D01*
G75*
G02*
X65365000Y-94010000I0J-150000D01*
G01*
X65365000Y-95660000D01*
G75*
G02*
X65215000Y-95810000I-150000J0D01*
G01*
G37*
G36*
G01*
X63945000Y-95810000D02*
X63645000Y-95810000D01*
G75*
G02*
X63495000Y-95660000I0J150000D01*
G01*
X63495000Y-94010000D01*
G75*
G02*
X63645000Y-93860000I150000J0D01*
G01*
X63945000Y-93860000D01*
G75*
G02*
X64095000Y-94010000I0J-150000D01*
G01*
X64095000Y-95660000D01*
G75*
G02*
X63945000Y-95810000I-150000J0D01*
G01*
G37*
G36*
G01*
X62675000Y-95810000D02*
X62375000Y-95810000D01*
G75*
G02*
X62225000Y-95660000I0J150000D01*
G01*
X62225000Y-94010000D01*
G75*
G02*
X62375000Y-93860000I150000J0D01*
G01*
X62675000Y-93860000D01*
G75*
G02*
X62825000Y-94010000I0J-150000D01*
G01*
X62825000Y-95660000D01*
G75*
G02*
X62675000Y-95810000I-150000J0D01*
G01*
G37*
G36*
G01*
X94245000Y-63500000D02*
X93945000Y-63500000D01*
G75*
G02*
X93795000Y-63350000I0J150000D01*
G01*
X93795000Y-61700000D01*
G75*
G02*
X93945000Y-61550000I150000J0D01*
G01*
X94245000Y-61550000D01*
G75*
G02*
X94395000Y-61700000I0J-150000D01*
G01*
X94395000Y-63350000D01*
G75*
G02*
X94245000Y-63500000I-150000J0D01*
G01*
G37*
G36*
G01*
X95515000Y-63500000D02*
X95215000Y-63500000D01*
G75*
G02*
X95065000Y-63350000I0J150000D01*
G01*
X95065000Y-61700000D01*
G75*
G02*
X95215000Y-61550000I150000J0D01*
G01*
X95515000Y-61550000D01*
G75*
G02*
X95665000Y-61700000I0J-150000D01*
G01*
X95665000Y-63350000D01*
G75*
G02*
X95515000Y-63500000I-150000J0D01*
G01*
G37*
G36*
G01*
X96785000Y-63500000D02*
X96485000Y-63500000D01*
G75*
G02*
X96335000Y-63350000I0J150000D01*
G01*
X96335000Y-61700000D01*
G75*
G02*
X96485000Y-61550000I150000J0D01*
G01*
X96785000Y-61550000D01*
G75*
G02*
X96935000Y-61700000I0J-150000D01*
G01*
X96935000Y-63350000D01*
G75*
G02*
X96785000Y-63500000I-150000J0D01*
G01*
G37*
G36*
G01*
X98055000Y-63500000D02*
X97755000Y-63500000D01*
G75*
G02*
X97605000Y-63350000I0J150000D01*
G01*
X97605000Y-61700000D01*
G75*
G02*
X97755000Y-61550000I150000J0D01*
G01*
X98055000Y-61550000D01*
G75*
G02*
X98205000Y-61700000I0J-150000D01*
G01*
X98205000Y-63350000D01*
G75*
G02*
X98055000Y-63500000I-150000J0D01*
G01*
G37*
G36*
G01*
X98055000Y-68450000D02*
X97755000Y-68450000D01*
G75*
G02*
X97605000Y-68300000I0J150000D01*
G01*
X97605000Y-66650000D01*
G75*
G02*
X97755000Y-66500000I150000J0D01*
G01*
X98055000Y-66500000D01*
G75*
G02*
X98205000Y-66650000I0J-150000D01*
G01*
X98205000Y-68300000D01*
G75*
G02*
X98055000Y-68450000I-150000J0D01*
G01*
G37*
G36*
G01*
X96785000Y-68450000D02*
X96485000Y-68450000D01*
G75*
G02*
X96335000Y-68300000I0J150000D01*
G01*
X96335000Y-66650000D01*
G75*
G02*
X96485000Y-66500000I150000J0D01*
G01*
X96785000Y-66500000D01*
G75*
G02*
X96935000Y-66650000I0J-150000D01*
G01*
X96935000Y-68300000D01*
G75*
G02*
X96785000Y-68450000I-150000J0D01*
G01*
G37*
G36*
G01*
X95515000Y-68450000D02*
X95215000Y-68450000D01*
G75*
G02*
X95065000Y-68300000I0J150000D01*
G01*
X95065000Y-66650000D01*
G75*
G02*
X95215000Y-66500000I150000J0D01*
G01*
X95515000Y-66500000D01*
G75*
G02*
X95665000Y-66650000I0J-150000D01*
G01*
X95665000Y-68300000D01*
G75*
G02*
X95515000Y-68450000I-150000J0D01*
G01*
G37*
G36*
G01*
X94245000Y-68450000D02*
X93945000Y-68450000D01*
G75*
G02*
X93795000Y-68300000I0J150000D01*
G01*
X93795000Y-66650000D01*
G75*
G02*
X93945000Y-66500000I150000J0D01*
G01*
X94245000Y-66500000D01*
G75*
G02*
X94395000Y-66650000I0J-150000D01*
G01*
X94395000Y-68300000D01*
G75*
G02*
X94245000Y-68450000I-150000J0D01*
G01*
G37*
G36*
G01*
X68724999Y-84675000D02*
X69625001Y-84675000D01*
G75*
G02*
X69875000Y-84924999I0J-249999D01*
G01*
X69875000Y-85450001D01*
G75*
G02*
X69625001Y-85700000I-249999J0D01*
G01*
X68724999Y-85700000D01*
G75*
G02*
X68475000Y-85450001I0J249999D01*
G01*
X68475000Y-84924999D01*
G75*
G02*
X68724999Y-84675000I249999J0D01*
G01*
G37*
G36*
G01*
X68724999Y-82850000D02*
X69625001Y-82850000D01*
G75*
G02*
X69875000Y-83099999I0J-249999D01*
G01*
X69875000Y-83625001D01*
G75*
G02*
X69625001Y-83875000I-249999J0D01*
G01*
X68724999Y-83875000D01*
G75*
G02*
X68475000Y-83625001I0J249999D01*
G01*
X68475000Y-83099999D01*
G75*
G02*
X68724999Y-82850000I249999J0D01*
G01*
G37*
G36*
G01*
X70774999Y-84675000D02*
X71675001Y-84675000D01*
G75*
G02*
X71925000Y-84924999I0J-249999D01*
G01*
X71925000Y-85450001D01*
G75*
G02*
X71675001Y-85700000I-249999J0D01*
G01*
X70774999Y-85700000D01*
G75*
G02*
X70525000Y-85450001I0J249999D01*
G01*
X70525000Y-84924999D01*
G75*
G02*
X70774999Y-84675000I249999J0D01*
G01*
G37*
G36*
G01*
X70774999Y-82850000D02*
X71675001Y-82850000D01*
G75*
G02*
X71925000Y-83099999I0J-249999D01*
G01*
X71925000Y-83625001D01*
G75*
G02*
X71675001Y-83875000I-249999J0D01*
G01*
X70774999Y-83875000D01*
G75*
G02*
X70525000Y-83625001I0J249999D01*
G01*
X70525000Y-83099999D01*
G75*
G02*
X70774999Y-82850000I249999J0D01*
G01*
G37*
G36*
G01*
X67550001Y-83875000D02*
X66649999Y-83875000D01*
G75*
G02*
X66400000Y-83625001I0J249999D01*
G01*
X66400000Y-83099999D01*
G75*
G02*
X66649999Y-82850000I249999J0D01*
G01*
X67550001Y-82850000D01*
G75*
G02*
X67800000Y-83099999I0J-249999D01*
G01*
X67800000Y-83625001D01*
G75*
G02*
X67550001Y-83875000I-249999J0D01*
G01*
G37*
G36*
G01*
X67550001Y-85700000D02*
X66649999Y-85700000D01*
G75*
G02*
X66400000Y-85450001I0J249999D01*
G01*
X66400000Y-84924999D01*
G75*
G02*
X66649999Y-84675000I249999J0D01*
G01*
X67550001Y-84675000D01*
G75*
G02*
X67800000Y-84924999I0J-249999D01*
G01*
X67800000Y-85450001D01*
G75*
G02*
X67550001Y-85700000I-249999J0D01*
G01*
G37*
G36*
G01*
X65500001Y-83875000D02*
X64599999Y-83875000D01*
G75*
G02*
X64350000Y-83625001I0J249999D01*
G01*
X64350000Y-83099999D01*
G75*
G02*
X64599999Y-82850000I249999J0D01*
G01*
X65500001Y-82850000D01*
G75*
G02*
X65750000Y-83099999I0J-249999D01*
G01*
X65750000Y-83625001D01*
G75*
G02*
X65500001Y-83875000I-249999J0D01*
G01*
G37*
G36*
G01*
X65500001Y-85700000D02*
X64599999Y-85700000D01*
G75*
G02*
X64350000Y-85450001I0J249999D01*
G01*
X64350000Y-84924999D01*
G75*
G02*
X64599999Y-84675000I249999J0D01*
G01*
X65500001Y-84675000D01*
G75*
G02*
X65750000Y-84924999I0J-249999D01*
G01*
X65750000Y-85450001D01*
G75*
G02*
X65500001Y-85700000I-249999J0D01*
G01*
G37*
G36*
G01*
X61600000Y-74049999D02*
X61600000Y-74950001D01*
G75*
G02*
X61350001Y-75200000I-249999J0D01*
G01*
X60824999Y-75200000D01*
G75*
G02*
X60575000Y-74950001I0J249999D01*
G01*
X60575000Y-74049999D01*
G75*
G02*
X60824999Y-73800000I249999J0D01*
G01*
X61350001Y-73800000D01*
G75*
G02*
X61600000Y-74049999I0J-249999D01*
G01*
G37*
G36*
G01*
X63425000Y-74049999D02*
X63425000Y-74950001D01*
G75*
G02*
X63175001Y-75200000I-249999J0D01*
G01*
X62649999Y-75200000D01*
G75*
G02*
X62400000Y-74950001I0J249999D01*
G01*
X62400000Y-74049999D01*
G75*
G02*
X62649999Y-73800000I249999J0D01*
G01*
X63175001Y-73800000D01*
G75*
G02*
X63425000Y-74049999I0J-249999D01*
G01*
G37*
G36*
G01*
X71430001Y-94570000D02*
X70529999Y-94570000D01*
G75*
G02*
X70280000Y-94320001I0J249999D01*
G01*
X70280000Y-93794999D01*
G75*
G02*
X70529999Y-93545000I249999J0D01*
G01*
X71430001Y-93545000D01*
G75*
G02*
X71680000Y-93794999I0J-249999D01*
G01*
X71680000Y-94320001D01*
G75*
G02*
X71430001Y-94570000I-249999J0D01*
G01*
G37*
G36*
G01*
X71430001Y-96395000D02*
X70529999Y-96395000D01*
G75*
G02*
X70280000Y-96145001I0J249999D01*
G01*
X70280000Y-95619999D01*
G75*
G02*
X70529999Y-95370000I249999J0D01*
G01*
X71430001Y-95370000D01*
G75*
G02*
X71680000Y-95619999I0J-249999D01*
G01*
X71680000Y-96145001D01*
G75*
G02*
X71430001Y-96395000I-249999J0D01*
G01*
G37*
G36*
G01*
X106900000Y-89949999D02*
X106900000Y-90850001D01*
G75*
G02*
X106650001Y-91100000I-249999J0D01*
G01*
X106124999Y-91100000D01*
G75*
G02*
X105875000Y-90850001I0J249999D01*
G01*
X105875000Y-89949999D01*
G75*
G02*
X106124999Y-89700000I249999J0D01*
G01*
X106650001Y-89700000D01*
G75*
G02*
X106900000Y-89949999I0J-249999D01*
G01*
G37*
G36*
G01*
X108725000Y-89949999D02*
X108725000Y-90850001D01*
G75*
G02*
X108475001Y-91100000I-249999J0D01*
G01*
X107949999Y-91100000D01*
G75*
G02*
X107700000Y-90850001I0J249999D01*
G01*
X107700000Y-89949999D01*
G75*
G02*
X107949999Y-89700000I249999J0D01*
G01*
X108475001Y-89700000D01*
G75*
G02*
X108725000Y-89949999I0J-249999D01*
G01*
G37*
G36*
G01*
X106900000Y-87449999D02*
X106900000Y-88350001D01*
G75*
G02*
X106650001Y-88600000I-249999J0D01*
G01*
X106124999Y-88600000D01*
G75*
G02*
X105875000Y-88350001I0J249999D01*
G01*
X105875000Y-87449999D01*
G75*
G02*
X106124999Y-87200000I249999J0D01*
G01*
X106650001Y-87200000D01*
G75*
G02*
X106900000Y-87449999I0J-249999D01*
G01*
G37*
G36*
G01*
X108725000Y-87449999D02*
X108725000Y-88350001D01*
G75*
G02*
X108475001Y-88600000I-249999J0D01*
G01*
X107949999Y-88600000D01*
G75*
G02*
X107700000Y-88350001I0J249999D01*
G01*
X107700000Y-87449999D01*
G75*
G02*
X107949999Y-87200000I249999J0D01*
G01*
X108475001Y-87200000D01*
G75*
G02*
X108725000Y-87449999I0J-249999D01*
G01*
G37*
G36*
G01*
X93400000Y-58450001D02*
X93400000Y-57549999D01*
G75*
G02*
X93649999Y-57300000I249999J0D01*
G01*
X94175001Y-57300000D01*
G75*
G02*
X94425000Y-57549999I0J-249999D01*
G01*
X94425000Y-58450001D01*
G75*
G02*
X94175001Y-58700000I-249999J0D01*
G01*
X93649999Y-58700000D01*
G75*
G02*
X93400000Y-58450001I0J249999D01*
G01*
G37*
G36*
G01*
X91575000Y-58450001D02*
X91575000Y-57549999D01*
G75*
G02*
X91824999Y-57300000I249999J0D01*
G01*
X92350001Y-57300000D01*
G75*
G02*
X92600000Y-57549999I0J-249999D01*
G01*
X92600000Y-58450001D01*
G75*
G02*
X92350001Y-58700000I-249999J0D01*
G01*
X91824999Y-58700000D01*
G75*
G02*
X91575000Y-58450001I0J249999D01*
G01*
G37*
G36*
G01*
X93400000Y-60450001D02*
X93400000Y-59549999D01*
G75*
G02*
X93649999Y-59300000I249999J0D01*
G01*
X94175001Y-59300000D01*
G75*
G02*
X94425000Y-59549999I0J-249999D01*
G01*
X94425000Y-60450001D01*
G75*
G02*
X94175001Y-60700000I-249999J0D01*
G01*
X93649999Y-60700000D01*
G75*
G02*
X93400000Y-60450001I0J249999D01*
G01*
G37*
G36*
G01*
X91575000Y-60450001D02*
X91575000Y-59549999D01*
G75*
G02*
X91824999Y-59300000I249999J0D01*
G01*
X92350001Y-59300000D01*
G75*
G02*
X92600000Y-59549999I0J-249999D01*
G01*
X92600000Y-60450001D01*
G75*
G02*
X92350001Y-60700000I-249999J0D01*
G01*
X91824999Y-60700000D01*
G75*
G02*
X91575000Y-60450001I0J249999D01*
G01*
G37*
G36*
G01*
X89249999Y-59100000D02*
X90150001Y-59100000D01*
G75*
G02*
X90400000Y-59349999I0J-249999D01*
G01*
X90400000Y-59875001D01*
G75*
G02*
X90150001Y-60125000I-249999J0D01*
G01*
X89249999Y-60125000D01*
G75*
G02*
X89000000Y-59875001I0J249999D01*
G01*
X89000000Y-59349999D01*
G75*
G02*
X89249999Y-59100000I249999J0D01*
G01*
G37*
G36*
G01*
X89249999Y-57275000D02*
X90150001Y-57275000D01*
G75*
G02*
X90400000Y-57524999I0J-249999D01*
G01*
X90400000Y-58050001D01*
G75*
G02*
X90150001Y-58300000I-249999J0D01*
G01*
X89249999Y-58300000D01*
G75*
G02*
X89000000Y-58050001I0J249999D01*
G01*
X89000000Y-57524999D01*
G75*
G02*
X89249999Y-57275000I249999J0D01*
G01*
G37*
G36*
G01*
X58100000Y-58049999D02*
X58100000Y-58950001D01*
G75*
G02*
X57850001Y-59200000I-249999J0D01*
G01*
X57324999Y-59200000D01*
G75*
G02*
X57075000Y-58950001I0J249999D01*
G01*
X57075000Y-58049999D01*
G75*
G02*
X57324999Y-57800000I249999J0D01*
G01*
X57850001Y-57800000D01*
G75*
G02*
X58100000Y-58049999I0J-249999D01*
G01*
G37*
G36*
G01*
X59925000Y-58049999D02*
X59925000Y-58950001D01*
G75*
G02*
X59675001Y-59200000I-249999J0D01*
G01*
X59149999Y-59200000D01*
G75*
G02*
X58900000Y-58950001I0J249999D01*
G01*
X58900000Y-58049999D01*
G75*
G02*
X59149999Y-57800000I249999J0D01*
G01*
X59675001Y-57800000D01*
G75*
G02*
X59925000Y-58049999I0J-249999D01*
G01*
G37*
D11*
X66500000Y-60000000D03*
X64500000Y-60950000D03*
X64500000Y-59050000D03*
G36*
G01*
X58450000Y-74956250D02*
X58450000Y-74043750D01*
G75*
G02*
X58693750Y-73800000I243750J0D01*
G01*
X59181250Y-73800000D01*
G75*
G02*
X59425000Y-74043750I0J-243750D01*
G01*
X59425000Y-74956250D01*
G75*
G02*
X59181250Y-75200000I-243750J0D01*
G01*
X58693750Y-75200000D01*
G75*
G02*
X58450000Y-74956250I0J243750D01*
G01*
G37*
G36*
G01*
X56575000Y-74956250D02*
X56575000Y-74043750D01*
G75*
G02*
X56818750Y-73800000I243750J0D01*
G01*
X57306250Y-73800000D01*
G75*
G02*
X57550000Y-74043750I0J-243750D01*
G01*
X57550000Y-74956250D01*
G75*
G02*
X57306250Y-75200000I-243750J0D01*
G01*
X56818750Y-75200000D01*
G75*
G02*
X56575000Y-74956250I0J243750D01*
G01*
G37*
D12*
X62500000Y-58425000D03*
X62500000Y-61575000D03*
G36*
G01*
X93025000Y-92350000D02*
X93975000Y-92350000D01*
G75*
G02*
X94225000Y-92600000I0J-250000D01*
G01*
X94225000Y-93100000D01*
G75*
G02*
X93975000Y-93350000I-250000J0D01*
G01*
X93025000Y-93350000D01*
G75*
G02*
X92775000Y-93100000I0J250000D01*
G01*
X92775000Y-92600000D01*
G75*
G02*
X93025000Y-92350000I250000J0D01*
G01*
G37*
G36*
G01*
X93025000Y-90450000D02*
X93975000Y-90450000D01*
G75*
G02*
X94225000Y-90700000I0J-250000D01*
G01*
X94225000Y-91200000D01*
G75*
G02*
X93975000Y-91450000I-250000J0D01*
G01*
X93025000Y-91450000D01*
G75*
G02*
X92775000Y-91200000I0J250000D01*
G01*
X92775000Y-90700000D01*
G75*
G02*
X93025000Y-90450000I250000J0D01*
G01*
G37*
G36*
G01*
X75875000Y-87450000D02*
X74925000Y-87450000D01*
G75*
G02*
X74675000Y-87200000I0J250000D01*
G01*
X74675000Y-86700000D01*
G75*
G02*
X74925000Y-86450000I250000J0D01*
G01*
X75875000Y-86450000D01*
G75*
G02*
X76125000Y-86700000I0J-250000D01*
G01*
X76125000Y-87200000D01*
G75*
G02*
X75875000Y-87450000I-250000J0D01*
G01*
G37*
G36*
G01*
X75875000Y-89350000D02*
X74925000Y-89350000D01*
G75*
G02*
X74675000Y-89100000I0J250000D01*
G01*
X74675000Y-88600000D01*
G75*
G02*
X74925000Y-88350000I250000J0D01*
G01*
X75875000Y-88350000D01*
G75*
G02*
X76125000Y-88600000I0J-250000D01*
G01*
X76125000Y-89100000D01*
G75*
G02*
X75875000Y-89350000I-250000J0D01*
G01*
G37*
G36*
G01*
X80275000Y-83850000D02*
X79325000Y-83850000D01*
G75*
G02*
X79075000Y-83600000I0J250000D01*
G01*
X79075000Y-83100000D01*
G75*
G02*
X79325000Y-82850000I250000J0D01*
G01*
X80275000Y-82850000D01*
G75*
G02*
X80525000Y-83100000I0J-250000D01*
G01*
X80525000Y-83600000D01*
G75*
G02*
X80275000Y-83850000I-250000J0D01*
G01*
G37*
G36*
G01*
X80275000Y-85750000D02*
X79325000Y-85750000D01*
G75*
G02*
X79075000Y-85500000I0J250000D01*
G01*
X79075000Y-85000000D01*
G75*
G02*
X79325000Y-84750000I250000J0D01*
G01*
X80275000Y-84750000D01*
G75*
G02*
X80525000Y-85000000I0J-250000D01*
G01*
X80525000Y-85500000D01*
G75*
G02*
X80275000Y-85750000I-250000J0D01*
G01*
G37*
G36*
G01*
X61015000Y-89710000D02*
X60065000Y-89710000D01*
G75*
G02*
X59815000Y-89460000I0J250000D01*
G01*
X59815000Y-88960000D01*
G75*
G02*
X60065000Y-88710000I250000J0D01*
G01*
X61015000Y-88710000D01*
G75*
G02*
X61265000Y-88960000I0J-250000D01*
G01*
X61265000Y-89460000D01*
G75*
G02*
X61015000Y-89710000I-250000J0D01*
G01*
G37*
G36*
G01*
X61015000Y-91610000D02*
X60065000Y-91610000D01*
G75*
G02*
X59815000Y-91360000I0J250000D01*
G01*
X59815000Y-90860000D01*
G75*
G02*
X60065000Y-90610000I250000J0D01*
G01*
X61015000Y-90610000D01*
G75*
G02*
X61265000Y-90860000I0J-250000D01*
G01*
X61265000Y-91360000D01*
G75*
G02*
X61015000Y-91610000I-250000J0D01*
G01*
G37*
G36*
G01*
X75470000Y-96965000D02*
X75470000Y-97915000D01*
G75*
G02*
X75220000Y-98165000I-250000J0D01*
G01*
X74720000Y-98165000D01*
G75*
G02*
X74470000Y-97915000I0J250000D01*
G01*
X74470000Y-96965000D01*
G75*
G02*
X74720000Y-96715000I250000J0D01*
G01*
X75220000Y-96715000D01*
G75*
G02*
X75470000Y-96965000I0J-250000D01*
G01*
G37*
G36*
G01*
X77370000Y-96965000D02*
X77370000Y-97915000D01*
G75*
G02*
X77120000Y-98165000I-250000J0D01*
G01*
X76620000Y-98165000D01*
G75*
G02*
X76370000Y-97915000I0J250000D01*
G01*
X76370000Y-96965000D01*
G75*
G02*
X76620000Y-96715000I250000J0D01*
G01*
X77120000Y-96715000D01*
G75*
G02*
X77370000Y-96965000I0J-250000D01*
G01*
G37*
G36*
G01*
X73565000Y-94540000D02*
X72615000Y-94540000D01*
G75*
G02*
X72365000Y-94290000I0J250000D01*
G01*
X72365000Y-93790000D01*
G75*
G02*
X72615000Y-93540000I250000J0D01*
G01*
X73565000Y-93540000D01*
G75*
G02*
X73815000Y-93790000I0J-250000D01*
G01*
X73815000Y-94290000D01*
G75*
G02*
X73565000Y-94540000I-250000J0D01*
G01*
G37*
G36*
G01*
X73565000Y-96440000D02*
X72615000Y-96440000D01*
G75*
G02*
X72365000Y-96190000I0J250000D01*
G01*
X72365000Y-95690000D01*
G75*
G02*
X72615000Y-95440000I250000J0D01*
G01*
X73565000Y-95440000D01*
G75*
G02*
X73815000Y-95690000I0J-250000D01*
G01*
X73815000Y-96190000D01*
G75*
G02*
X73565000Y-96440000I-250000J0D01*
G01*
G37*
G36*
G01*
X91525000Y-63450000D02*
X92475000Y-63450000D01*
G75*
G02*
X92725000Y-63700000I0J-250000D01*
G01*
X92725000Y-64200000D01*
G75*
G02*
X92475000Y-64450000I-250000J0D01*
G01*
X91525000Y-64450000D01*
G75*
G02*
X91275000Y-64200000I0J250000D01*
G01*
X91275000Y-63700000D01*
G75*
G02*
X91525000Y-63450000I250000J0D01*
G01*
G37*
G36*
G01*
X91525000Y-61550000D02*
X92475000Y-61550000D01*
G75*
G02*
X92725000Y-61800000I0J-250000D01*
G01*
X92725000Y-62300000D01*
G75*
G02*
X92475000Y-62550000I-250000J0D01*
G01*
X91525000Y-62550000D01*
G75*
G02*
X91275000Y-62300000I0J250000D01*
G01*
X91275000Y-61800000D01*
G75*
G02*
X91525000Y-61550000I250000J0D01*
G01*
G37*
G36*
G01*
X58050000Y-64525000D02*
X58050000Y-65475000D01*
G75*
G02*
X57800000Y-65725000I-250000J0D01*
G01*
X57300000Y-65725000D01*
G75*
G02*
X57050000Y-65475000I0J250000D01*
G01*
X57050000Y-64525000D01*
G75*
G02*
X57300000Y-64275000I250000J0D01*
G01*
X57800000Y-64275000D01*
G75*
G02*
X58050000Y-64525000I0J-250000D01*
G01*
G37*
G36*
G01*
X59950000Y-64525000D02*
X59950000Y-65475000D01*
G75*
G02*
X59700000Y-65725000I-250000J0D01*
G01*
X59200000Y-65725000D01*
G75*
G02*
X58950000Y-65475000I0J250000D01*
G01*
X58950000Y-64525000D01*
G75*
G02*
X59200000Y-64275000I250000J0D01*
G01*
X59700000Y-64275000D01*
G75*
G02*
X59950000Y-64525000I0J-250000D01*
G01*
G37*
G36*
G01*
X58050000Y-62025000D02*
X58050000Y-62975000D01*
G75*
G02*
X57800000Y-63225000I-250000J0D01*
G01*
X57300000Y-63225000D01*
G75*
G02*
X57050000Y-62975000I0J250000D01*
G01*
X57050000Y-62025000D01*
G75*
G02*
X57300000Y-61775000I250000J0D01*
G01*
X57800000Y-61775000D01*
G75*
G02*
X58050000Y-62025000I0J-250000D01*
G01*
G37*
G36*
G01*
X59950000Y-62025000D02*
X59950000Y-62975000D01*
G75*
G02*
X59700000Y-63225000I-250000J0D01*
G01*
X59200000Y-63225000D01*
G75*
G02*
X58950000Y-62975000I0J250000D01*
G01*
X58950000Y-62025000D01*
G75*
G02*
X59200000Y-61775000I250000J0D01*
G01*
X59700000Y-61775000D01*
G75*
G02*
X59950000Y-62025000I0J-250000D01*
G01*
G37*
D13*
X74755000Y-93765000D03*
X75405000Y-93765000D03*
X76055000Y-93765000D03*
X76705000Y-93765000D03*
X76705000Y-95814999D03*
X76055000Y-95814999D03*
X75405000Y-95814999D03*
X74755000Y-95814999D03*
M02*
