G04 #@! TF.GenerationSoftware,KiCad,Pcbnew,(5.1.8)-1*
G04 #@! TF.CreationDate,2020-12-29T20:44:18-05:00*
G04 #@! TF.ProjectId,rpi_sensor_hat,7270695f-7365-46e7-936f-725f6861742e,rev?*
G04 #@! TF.SameCoordinates,Original*
G04 #@! TF.FileFunction,Copper,L4,Bot*
G04 #@! TF.FilePolarity,Positive*
%FSLAX46Y46*%
G04 Gerber Fmt 4.6, Leading zero omitted, Abs format (unit mm)*
G04 Created by KiCad (PCBNEW (5.1.8)-1) date 2020-12-29 20:44:18*
%MOMM*%
%LPD*%
G01*
G04 APERTURE LIST*
G04 #@! TA.AperFunction,ComponentPad*
%ADD10O,1.700000X1.700000*%
G04 #@! TD*
G04 #@! TA.AperFunction,ComponentPad*
%ADD11R,1.700000X1.700000*%
G04 #@! TD*
G04 #@! TA.AperFunction,ComponentPad*
%ADD12C,2.500000*%
G04 #@! TD*
G04 #@! TA.AperFunction,ComponentPad*
%ADD13R,2.170000X2.170000*%
G04 #@! TD*
G04 #@! TA.AperFunction,ViaPad*
%ADD14C,0.500000*%
G04 #@! TD*
G04 #@! TA.AperFunction,Conductor*
%ADD15C,0.250000*%
G04 #@! TD*
G04 APERTURE END LIST*
D10*
X81233600Y-52482000D03*
X104093600Y-55022000D03*
X99013600Y-55022000D03*
X63453600Y-55022000D03*
X76153600Y-52482000D03*
X78693600Y-52482000D03*
X60913600Y-55022000D03*
X76153600Y-55022000D03*
X86313600Y-55022000D03*
X83773600Y-52482000D03*
X96473600Y-55022000D03*
X101553600Y-52482000D03*
X65993600Y-55022000D03*
X106633600Y-52482000D03*
X73613600Y-55022000D03*
X65993600Y-52482000D03*
X63453600Y-52482000D03*
X71073600Y-55022000D03*
X96473600Y-52482000D03*
X60913600Y-52482000D03*
X81233600Y-55022000D03*
X91393600Y-52482000D03*
X78693600Y-55022000D03*
X88853600Y-55022000D03*
X93933600Y-55022000D03*
X68533600Y-55022000D03*
X101553600Y-55022000D03*
X68533600Y-52482000D03*
X73613600Y-52482000D03*
X99013600Y-52482000D03*
X93933600Y-52482000D03*
X104093600Y-52482000D03*
X91393600Y-55022000D03*
X58373600Y-55022000D03*
X88853600Y-52482000D03*
X86313600Y-52482000D03*
X106633600Y-55022000D03*
X83773600Y-55022000D03*
D11*
X58373600Y-52482000D03*
D10*
X71073600Y-52482000D03*
X113000000Y-75330000D03*
X113000000Y-72790000D03*
D11*
X113000000Y-70250000D03*
D10*
X113000000Y-92950000D03*
X113000000Y-90410000D03*
X113000000Y-87870000D03*
X113000000Y-85330000D03*
X113000000Y-82790000D03*
D11*
X113000000Y-80250000D03*
D10*
X113000000Y-65330000D03*
X113000000Y-62790000D03*
D11*
X113000000Y-60250000D03*
D12*
X66350000Y-69475000D03*
D13*
X86350000Y-69475000D03*
D14*
X55500000Y-66500000D03*
X55500000Y-65000000D03*
X55500000Y-63500000D03*
X54000000Y-63500000D03*
X54000000Y-65000000D03*
X54000000Y-66500000D03*
X94095000Y-69905000D03*
X90150000Y-63950000D03*
X57062500Y-85187500D03*
X57062500Y-80687500D03*
X57062500Y-76187500D03*
X96130000Y-83030000D03*
X99940000Y-82940000D03*
X59700000Y-71000000D03*
X77000000Y-86900000D03*
X78700000Y-81500000D03*
X95300000Y-93300000D03*
X100200000Y-98200000D03*
X92475000Y-97125000D03*
X105825000Y-81700000D03*
X60530000Y-87870000D03*
X67500000Y-94830000D03*
X73090000Y-92810000D03*
X74990000Y-98810000D03*
X64500000Y-63500000D03*
X64500000Y-65000000D03*
X63000000Y-65000000D03*
X63000000Y-63500000D03*
X61500000Y-63500000D03*
X61500000Y-65000000D03*
X61500000Y-66500000D03*
X63000000Y-66500000D03*
X64500000Y-66500000D03*
X94200000Y-71800000D03*
X93250000Y-84850000D03*
X79800000Y-86600000D03*
X95200000Y-90600000D03*
X63300000Y-85175000D03*
X105800000Y-84925000D03*
X74110000Y-88870000D03*
X58910000Y-91730000D03*
X69200000Y-82000000D03*
X67100000Y-82075000D03*
X86100000Y-80000000D03*
X83600000Y-80400000D03*
X65050000Y-82075000D03*
X97905000Y-58005000D03*
X71250000Y-81950000D03*
X96635000Y-60235000D03*
X108200000Y-98300000D03*
X73090000Y-97070000D03*
X76870000Y-98890000D03*
X87700000Y-81775000D03*
X87900000Y-74500000D03*
X81435000Y-92275000D03*
X80840000Y-99310000D03*
X97190000Y-99950000D03*
X98130000Y-87930000D03*
X98920000Y-90400000D03*
X98064999Y-99204999D03*
X80780000Y-90900000D03*
X80780000Y-98360000D03*
X78250000Y-93800000D03*
X78240000Y-91670000D03*
X78520000Y-94550000D03*
X78825001Y-91075001D03*
X86100000Y-96910000D03*
X86100000Y-98430000D03*
X78055001Y-95814999D03*
X77674999Y-92325001D03*
X88780000Y-90360000D03*
X88780000Y-101570000D03*
X69170000Y-101360000D03*
X69170000Y-93960000D03*
X62525000Y-96845000D03*
X84500000Y-90590000D03*
X83860000Y-100240000D03*
X62540000Y-100240000D03*
X65065000Y-96735000D03*
X92310000Y-87700000D03*
X90860000Y-101800000D03*
X65120000Y-102280000D03*
X63795000Y-88075000D03*
X88990000Y-86900000D03*
X89730000Y-103280000D03*
X63450000Y-101700000D03*
X88590000Y-89300000D03*
X90400000Y-76900000D03*
X65320000Y-87380000D03*
X65180000Y-76900000D03*
X88040000Y-88490000D03*
X89850000Y-75640000D03*
X63130000Y-86590000D03*
X65080000Y-75660000D03*
X73630000Y-86630000D03*
X99940000Y-78700000D03*
X93340000Y-78420000D03*
X74230000Y-78620000D03*
X73275000Y-81850000D03*
X72275000Y-78975000D03*
X84500000Y-81125000D03*
X99175000Y-71875000D03*
X92850000Y-71900000D03*
X87275000Y-71900000D03*
X104330000Y-92600000D03*
X87700000Y-90740000D03*
X87700000Y-98580000D03*
X103410000Y-99120000D03*
X104360000Y-94700000D03*
X98640000Y-95640000D03*
X92370000Y-86090000D03*
X92370000Y-77180000D03*
X91040000Y-84240000D03*
X91040000Y-75090000D03*
X104380000Y-96800000D03*
X88630000Y-80910000D03*
X88940000Y-73280000D03*
X94460000Y-73960000D03*
X99310000Y-73960000D03*
X107310000Y-75140000D03*
X89300000Y-78190000D03*
X89300000Y-82350000D03*
D15*
X69200000Y-82000000D02*
X70350000Y-80850000D01*
X70350000Y-80850000D02*
X70350000Y-58950000D01*
X70350000Y-58950000D02*
X67275000Y-55875000D01*
X67275000Y-53763400D02*
X65993600Y-52482000D01*
X67275000Y-55875000D02*
X67275000Y-53763400D01*
X65381600Y-56950000D02*
X63453600Y-55022000D01*
X67100000Y-56950000D02*
X65381600Y-56950000D01*
X69650000Y-59500000D02*
X67100000Y-56950000D01*
X69650000Y-76250000D02*
X69650000Y-59500000D01*
X69825000Y-76425000D02*
X69650000Y-76250000D01*
X69825000Y-79350000D02*
X69825000Y-76425000D01*
X67100000Y-82075000D02*
X69825000Y-79350000D01*
X86100000Y-80000000D02*
X84000000Y-80000000D01*
X84000000Y-80000000D02*
X83600000Y-80400000D01*
X66625000Y-57650000D02*
X63541600Y-57650000D01*
X69050000Y-60075000D02*
X66625000Y-57650000D01*
X69050000Y-78975000D02*
X69050000Y-60075000D01*
X63541600Y-57650000D02*
X60913600Y-55022000D01*
X65950000Y-82075000D02*
X69050000Y-78975000D01*
X65050000Y-82075000D02*
X65950000Y-82075000D01*
X97905000Y-58005000D02*
X92705000Y-58005000D01*
X91393600Y-56693600D02*
X91393600Y-55022000D01*
X92705000Y-58005000D02*
X91393600Y-56693600D01*
X71250000Y-81950000D02*
X71250000Y-58325000D01*
X71250000Y-58325000D02*
X69825000Y-56900000D01*
X69825000Y-53773400D02*
X68533600Y-52482000D01*
X69825000Y-56900000D02*
X69825000Y-53773400D01*
X96635000Y-60235000D02*
X93435000Y-60235000D01*
X93435000Y-60235000D02*
X90100000Y-56900000D01*
X90100000Y-53775600D02*
X91393600Y-52482000D01*
X90100000Y-56900000D02*
X90100000Y-53775600D01*
X87700000Y-81775000D02*
X87900000Y-81575000D01*
X87900000Y-81575000D02*
X87900000Y-74500000D01*
X81435000Y-92275000D02*
X81435000Y-98715000D01*
X81435000Y-98715000D02*
X80840000Y-99310000D01*
X97190000Y-99950000D02*
X97190000Y-95140000D01*
X97190000Y-95140000D02*
X98130000Y-94200000D01*
X98130000Y-94200000D02*
X98130000Y-87930000D01*
X98920000Y-90400000D02*
X98920000Y-94330000D01*
X98064999Y-95185001D02*
X98064999Y-99204999D01*
X98920000Y-94330000D02*
X98064999Y-95185001D01*
X80780000Y-90900000D02*
X80780000Y-98360000D01*
X78250000Y-91680000D02*
X78240000Y-91670000D01*
X78250000Y-93800000D02*
X78250000Y-91680000D01*
X78825001Y-94244999D02*
X78825001Y-91075001D01*
X78520000Y-94550000D02*
X78825001Y-94244999D01*
X86100000Y-98430000D02*
X86100000Y-96910000D01*
X78055001Y-95814999D02*
X78055001Y-95075001D01*
X77674999Y-94694999D02*
X77674999Y-92325001D01*
X78055001Y-95075001D02*
X77674999Y-94694999D01*
X88780000Y-90360000D02*
X88780000Y-101570000D01*
X69170000Y-101360000D02*
X69170000Y-93960000D01*
X84500000Y-90590000D02*
X84500000Y-99590000D01*
X83860000Y-100230000D02*
X83860000Y-100240000D01*
X84500000Y-99590000D02*
X83860000Y-100230000D01*
X62540000Y-96860000D02*
X62525000Y-96845000D01*
X62540000Y-100240000D02*
X62540000Y-96860000D01*
X91899999Y-88110001D02*
X91899999Y-95540001D01*
X92310000Y-87700000D02*
X91899999Y-88110001D01*
X91899999Y-95540001D02*
X90880000Y-96560000D01*
X90880000Y-101780000D02*
X90860000Y-101800000D01*
X90880000Y-96560000D02*
X90880000Y-101780000D01*
X65120000Y-96790000D02*
X65065000Y-96735000D01*
X65120000Y-102280000D02*
X65120000Y-96790000D01*
X88990000Y-86900000D02*
X88990000Y-87790000D01*
X88990000Y-87790000D02*
X89730000Y-88530000D01*
X89730000Y-88530000D02*
X89730000Y-103280000D01*
X63795000Y-101355000D02*
X63795000Y-88075000D01*
X63450000Y-101700000D02*
X63795000Y-101355000D01*
X88590000Y-89300000D02*
X88680000Y-89210000D01*
X88680000Y-89210000D02*
X88680000Y-88160000D01*
X88580000Y-88016410D02*
X88330000Y-87766410D01*
X88580000Y-88060000D02*
X88580000Y-88016410D01*
X88680000Y-88160000D02*
X88580000Y-88060000D01*
X88330000Y-87766410D02*
X88330000Y-86530000D01*
X88330000Y-86530000D02*
X90410000Y-84450000D01*
X90410000Y-83750000D02*
X90589990Y-83570010D01*
X90410000Y-84450000D02*
X90410000Y-83750000D01*
X90589990Y-79619990D02*
X90550000Y-79580000D01*
X90589990Y-83570010D02*
X90589990Y-79619990D01*
X90550000Y-79580000D02*
X90550000Y-77050000D01*
X90550000Y-77050000D02*
X90400000Y-76900000D01*
X65320000Y-87380000D02*
X65320000Y-85870000D01*
X65320000Y-85870000D02*
X64320000Y-84870000D01*
X64320000Y-84870000D02*
X64320000Y-77760000D01*
X64320000Y-77760000D02*
X65180000Y-76900000D01*
X87879990Y-87952810D02*
X87879991Y-86343599D01*
X88040000Y-88112820D02*
X87879990Y-87952810D01*
X88040000Y-88490000D02*
X88040000Y-88112820D01*
X87879991Y-86343599D02*
X89950000Y-84273590D01*
X89950000Y-79640000D02*
X89980000Y-79610000D01*
X89950000Y-84273590D02*
X89950000Y-79640000D01*
X89980000Y-79610000D02*
X89980000Y-77570000D01*
X89980000Y-77570000D02*
X89620000Y-77210000D01*
X89620000Y-77210000D02*
X89620000Y-75870000D01*
X89620000Y-75870000D02*
X89850000Y-75640000D01*
X63130000Y-86590000D02*
X61740000Y-85200000D01*
X61740000Y-85200000D02*
X61740000Y-78170000D01*
X61740000Y-78170000D02*
X64250000Y-75660000D01*
X64250000Y-75660000D02*
X65080000Y-75660000D01*
X73630000Y-86630000D02*
X74170000Y-86090000D01*
X99940000Y-78700000D02*
X93620000Y-78700000D01*
X93620000Y-78700000D02*
X93340000Y-78420000D01*
X74230000Y-86030000D02*
X74170000Y-86090000D01*
X74230000Y-78620000D02*
X74230000Y-86030000D01*
X73275000Y-81850000D02*
X73275000Y-58725000D01*
X73613600Y-58386400D02*
X73613600Y-55022000D01*
X73275000Y-58725000D02*
X73613600Y-58386400D01*
X71073600Y-55022000D02*
X72275000Y-56223400D01*
X72275000Y-56223400D02*
X72275000Y-70200000D01*
X72275000Y-70200000D02*
X72275000Y-78975000D01*
X86625000Y-81125000D02*
X84500000Y-81125000D01*
X99175000Y-71875000D02*
X95875000Y-71875000D01*
X95875000Y-71875000D02*
X95100000Y-71100000D01*
X95100000Y-71100000D02*
X93650000Y-71100000D01*
X93650000Y-71100000D02*
X92850000Y-71900000D01*
X86625000Y-81125000D02*
X87275000Y-80475000D01*
X87275000Y-80475000D02*
X87275000Y-71900000D01*
X87700000Y-90740000D02*
X87700000Y-98580000D01*
X103410000Y-99120000D02*
X103410000Y-96750000D01*
X103410000Y-96750000D02*
X105330000Y-94830000D01*
X105330000Y-93600000D02*
X104330000Y-92600000D01*
X105330000Y-94830000D02*
X105330000Y-93600000D01*
X103420000Y-95640000D02*
X104360000Y-94700000D01*
X98640000Y-95640000D02*
X103420000Y-95640000D01*
X92370000Y-86090000D02*
X92370000Y-77180000D01*
X91040000Y-84240000D02*
X91040000Y-75090000D01*
X88630000Y-78008998D02*
X88940000Y-77698998D01*
X88630000Y-80910000D02*
X88630000Y-78008998D01*
X88940000Y-77698998D02*
X88940000Y-73280000D01*
X94460000Y-73960000D02*
X99310000Y-73960000D01*
X104380000Y-96800000D02*
X105100000Y-96800000D01*
X105100000Y-96800000D02*
X107310000Y-94590000D01*
X107310000Y-94590000D02*
X107310000Y-75140000D01*
X89300000Y-78190000D02*
X89300000Y-82350000D01*
M02*
