G04 #@! TF.GenerationSoftware,KiCad,Pcbnew,(5.1.8)-1*
G04 #@! TF.CreationDate,2020-12-29T20:44:18-05:00*
G04 #@! TF.ProjectId,rpi_sensor_hat,7270695f-7365-46e7-936f-725f6861742e,rev?*
G04 #@! TF.SameCoordinates,Original*
G04 #@! TF.FileFunction,Legend,Top*
G04 #@! TF.FilePolarity,Positive*
%FSLAX46Y46*%
G04 Gerber Fmt 4.6, Leading zero omitted, Abs format (unit mm)*
G04 Created by KiCad (PCBNEW (5.1.8)-1) date 2020-12-29 20:44:18*
%MOMM*%
%LPD*%
G01*
G04 APERTURE LIST*
%ADD10C,0.150000*%
%ADD11C,0.300000*%
%ADD12C,0.010000*%
%ADD13C,0.120000*%
%ADD14C,0.100000*%
G04 APERTURE END LIST*
D10*
X57812380Y-98942976D02*
X57336190Y-99276309D01*
X57812380Y-99514404D02*
X56812380Y-99514404D01*
X56812380Y-99133452D01*
X56860000Y-99038214D01*
X56907619Y-98990595D01*
X57002857Y-98942976D01*
X57145714Y-98942976D01*
X57240952Y-98990595D01*
X57288571Y-99038214D01*
X57336190Y-99133452D01*
X57336190Y-99514404D01*
X57288571Y-98514404D02*
X57288571Y-98181071D01*
X57812380Y-98038214D02*
X57812380Y-98514404D01*
X56812380Y-98514404D01*
X56812380Y-98038214D01*
X56812380Y-97752500D02*
X57812380Y-97419166D01*
X56812380Y-97085833D01*
X56812380Y-96562023D02*
X56812380Y-96466785D01*
X56860000Y-96371547D01*
X56907619Y-96323928D01*
X57002857Y-96276309D01*
X57193333Y-96228690D01*
X57431428Y-96228690D01*
X57621904Y-96276309D01*
X57717142Y-96323928D01*
X57764761Y-96371547D01*
X57812380Y-96466785D01*
X57812380Y-96562023D01*
X57764761Y-96657261D01*
X57717142Y-96704880D01*
X57621904Y-96752500D01*
X57431428Y-96800119D01*
X57193333Y-96800119D01*
X57002857Y-96752500D01*
X56907619Y-96704880D01*
X56860000Y-96657261D01*
X56812380Y-96562023D01*
X102204761Y-84212023D02*
X102252380Y-84069166D01*
X102252380Y-83831071D01*
X102204761Y-83735833D01*
X102157142Y-83688214D01*
X102061904Y-83640595D01*
X101966666Y-83640595D01*
X101871428Y-83688214D01*
X101823809Y-83735833D01*
X101776190Y-83831071D01*
X101728571Y-84021547D01*
X101680952Y-84116785D01*
X101633333Y-84164404D01*
X101538095Y-84212023D01*
X101442857Y-84212023D01*
X101347619Y-84164404D01*
X101300000Y-84116785D01*
X101252380Y-84021547D01*
X101252380Y-83783452D01*
X101300000Y-83640595D01*
X101252380Y-83307261D02*
X102252380Y-83069166D01*
X101538095Y-82878690D01*
X102252380Y-82688214D01*
X101252380Y-82450119D01*
X102252380Y-82069166D02*
X101252380Y-82069166D01*
X101252380Y-81831071D01*
X101300000Y-81688214D01*
X101395238Y-81592976D01*
X101490476Y-81545357D01*
X101680952Y-81497738D01*
X101823809Y-81497738D01*
X102014285Y-81545357D01*
X102109523Y-81592976D01*
X102204761Y-81688214D01*
X102252380Y-81831071D01*
X102252380Y-82069166D01*
X109335595Y-93452380D02*
X109335595Y-92452380D01*
X109907023Y-93452380D01*
X109907023Y-92452380D01*
X110954642Y-93357142D02*
X110907023Y-93404761D01*
X110764166Y-93452380D01*
X110668928Y-93452380D01*
X110526071Y-93404761D01*
X110430833Y-93309523D01*
X110383214Y-93214285D01*
X110335595Y-93023809D01*
X110335595Y-92880952D01*
X110383214Y-92690476D01*
X110430833Y-92595238D01*
X110526071Y-92500000D01*
X110668928Y-92452380D01*
X110764166Y-92452380D01*
X110907023Y-92500000D01*
X110954642Y-92547619D01*
X109335595Y-85702380D02*
X109335595Y-84702380D01*
X109907023Y-85702380D01*
X109907023Y-84702380D01*
X110954642Y-85607142D02*
X110907023Y-85654761D01*
X110764166Y-85702380D01*
X110668928Y-85702380D01*
X110526071Y-85654761D01*
X110430833Y-85559523D01*
X110383214Y-85464285D01*
X110335595Y-85273809D01*
X110335595Y-85130952D01*
X110383214Y-84940476D01*
X110430833Y-84845238D01*
X110526071Y-84750000D01*
X110668928Y-84702380D01*
X110764166Y-84702380D01*
X110907023Y-84750000D01*
X110954642Y-84797619D01*
X109335595Y-83452380D02*
X109335595Y-82452380D01*
X109907023Y-83452380D01*
X109907023Y-82452380D01*
X110954642Y-83357142D02*
X110907023Y-83404761D01*
X110764166Y-83452380D01*
X110668928Y-83452380D01*
X110526071Y-83404761D01*
X110430833Y-83309523D01*
X110383214Y-83214285D01*
X110335595Y-83023809D01*
X110335595Y-82880952D01*
X110383214Y-82690476D01*
X110430833Y-82595238D01*
X110526071Y-82500000D01*
X110668928Y-82452380D01*
X110764166Y-82452380D01*
X110907023Y-82500000D01*
X110954642Y-82547619D01*
X109192738Y-89952380D02*
X109764166Y-89952380D01*
X109478452Y-90952380D02*
X109478452Y-89952380D01*
X110002261Y-89952380D02*
X110668928Y-90952380D01*
X110668928Y-89952380D02*
X110002261Y-90952380D01*
X109907023Y-88202380D02*
X109573690Y-87726190D01*
X109335595Y-88202380D02*
X109335595Y-87202380D01*
X109716547Y-87202380D01*
X109811785Y-87250000D01*
X109859404Y-87297619D01*
X109907023Y-87392857D01*
X109907023Y-87535714D01*
X109859404Y-87630952D01*
X109811785Y-87678571D01*
X109716547Y-87726190D01*
X109335595Y-87726190D01*
X110240357Y-87202380D02*
X110907023Y-88202380D01*
X110907023Y-87202380D02*
X110240357Y-88202380D01*
X108859404Y-79750000D02*
X108764166Y-79702380D01*
X108621309Y-79702380D01*
X108478452Y-79750000D01*
X108383214Y-79845238D01*
X108335595Y-79940476D01*
X108287976Y-80130952D01*
X108287976Y-80273809D01*
X108335595Y-80464285D01*
X108383214Y-80559523D01*
X108478452Y-80654761D01*
X108621309Y-80702380D01*
X108716547Y-80702380D01*
X108859404Y-80654761D01*
X108907023Y-80607142D01*
X108907023Y-80273809D01*
X108716547Y-80273809D01*
X109335595Y-80702380D02*
X109335595Y-79702380D01*
X109907023Y-80702380D01*
X109907023Y-79702380D01*
X110383214Y-80702380D02*
X110383214Y-79702380D01*
X110621309Y-79702380D01*
X110764166Y-79750000D01*
X110859404Y-79845238D01*
X110907023Y-79940476D01*
X110954642Y-80130952D01*
X110954642Y-80273809D01*
X110907023Y-80464285D01*
X110859404Y-80559523D01*
X110764166Y-80654761D01*
X110621309Y-80702380D01*
X110383214Y-80702380D01*
X102871309Y-68477380D02*
X102871309Y-69191666D01*
X102823690Y-69334523D01*
X102728452Y-69429761D01*
X102585595Y-69477380D01*
X102490357Y-69477380D01*
X103776071Y-68810714D02*
X103776071Y-69477380D01*
X103347500Y-68810714D02*
X103347500Y-69334523D01*
X103395119Y-69429761D01*
X103490357Y-69477380D01*
X103633214Y-69477380D01*
X103728452Y-69429761D01*
X103776071Y-69382142D01*
X104252261Y-69477380D02*
X104252261Y-68810714D01*
X104252261Y-68905952D02*
X104299880Y-68858333D01*
X104395119Y-68810714D01*
X104537976Y-68810714D01*
X104633214Y-68858333D01*
X104680833Y-68953571D01*
X104680833Y-69477380D01*
X104680833Y-68953571D02*
X104728452Y-68858333D01*
X104823690Y-68810714D01*
X104966547Y-68810714D01*
X105061785Y-68858333D01*
X105109404Y-68953571D01*
X105109404Y-69477380D01*
X105585595Y-68810714D02*
X105585595Y-69810714D01*
X105585595Y-68858333D02*
X105680833Y-68810714D01*
X105871309Y-68810714D01*
X105966547Y-68858333D01*
X106014166Y-68905952D01*
X106061785Y-69001190D01*
X106061785Y-69286904D01*
X106014166Y-69382142D01*
X105966547Y-69429761D01*
X105871309Y-69477380D01*
X105680833Y-69477380D01*
X105585595Y-69429761D01*
X106871309Y-69429761D02*
X106776071Y-69477380D01*
X106585595Y-69477380D01*
X106490357Y-69429761D01*
X106442738Y-69334523D01*
X106442738Y-68953571D01*
X106490357Y-68858333D01*
X106585595Y-68810714D01*
X106776071Y-68810714D01*
X106871309Y-68858333D01*
X106918928Y-68953571D01*
X106918928Y-69048809D01*
X106442738Y-69144047D01*
X107347500Y-69477380D02*
X107347500Y-68810714D01*
X107347500Y-69001190D02*
X107395119Y-68905952D01*
X107442738Y-68858333D01*
X107537976Y-68810714D01*
X107633214Y-68810714D01*
X102537976Y-71079761D02*
X102680833Y-71127380D01*
X102918928Y-71127380D01*
X103014166Y-71079761D01*
X103061785Y-71032142D01*
X103109404Y-70936904D01*
X103109404Y-70841666D01*
X103061785Y-70746428D01*
X103014166Y-70698809D01*
X102918928Y-70651190D01*
X102728452Y-70603571D01*
X102633214Y-70555952D01*
X102585595Y-70508333D01*
X102537976Y-70413095D01*
X102537976Y-70317857D01*
X102585595Y-70222619D01*
X102633214Y-70175000D01*
X102728452Y-70127380D01*
X102966547Y-70127380D01*
X103109404Y-70175000D01*
X103395119Y-70127380D02*
X103966547Y-70127380D01*
X103680833Y-71127380D02*
X103680833Y-70127380D01*
X104299880Y-71127380D02*
X104299880Y-70127380D01*
X104633214Y-70841666D01*
X104966547Y-70127380D01*
X104966547Y-71127380D01*
X105347500Y-70127380D02*
X105966547Y-70127380D01*
X105633214Y-70508333D01*
X105776071Y-70508333D01*
X105871309Y-70555952D01*
X105918928Y-70603571D01*
X105966547Y-70698809D01*
X105966547Y-70936904D01*
X105918928Y-71032142D01*
X105871309Y-71079761D01*
X105776071Y-71127380D01*
X105490357Y-71127380D01*
X105395119Y-71079761D01*
X105347500Y-71032142D01*
X106347500Y-70222619D02*
X106395119Y-70175000D01*
X106490357Y-70127380D01*
X106728452Y-70127380D01*
X106823690Y-70175000D01*
X106871309Y-70222619D01*
X106918928Y-70317857D01*
X106918928Y-70413095D01*
X106871309Y-70555952D01*
X106299880Y-71127380D01*
X106918928Y-71127380D01*
X103109404Y-72777380D02*
X102537976Y-72777380D01*
X102823690Y-72777380D02*
X102823690Y-71777380D01*
X102728452Y-71920238D01*
X102633214Y-72015476D01*
X102537976Y-72063095D01*
X103537976Y-72396428D02*
X104299880Y-72396428D01*
X104728452Y-71872619D02*
X104776071Y-71825000D01*
X104871309Y-71777380D01*
X105109404Y-71777380D01*
X105204642Y-71825000D01*
X105252261Y-71872619D01*
X105299880Y-71967857D01*
X105299880Y-72063095D01*
X105252261Y-72205952D01*
X104680833Y-72777380D01*
X105299880Y-72777380D01*
X105728452Y-72682142D02*
X105776071Y-72729761D01*
X105728452Y-72777380D01*
X105680833Y-72729761D01*
X105728452Y-72682142D01*
X105728452Y-72777380D01*
X105728452Y-72158333D02*
X105776071Y-72205952D01*
X105728452Y-72253571D01*
X105680833Y-72205952D01*
X105728452Y-72158333D01*
X105728452Y-72253571D01*
X107299880Y-72253571D02*
X106966547Y-72253571D01*
X106966547Y-72777380D02*
X106966547Y-71777380D01*
X107442738Y-71777380D01*
X108299880Y-72777380D02*
X107823690Y-72777380D01*
X107823690Y-71777380D01*
X108585595Y-72491666D02*
X109061785Y-72491666D01*
X108490357Y-72777380D02*
X108823690Y-71777380D01*
X109157023Y-72777380D01*
X109442738Y-72729761D02*
X109585595Y-72777380D01*
X109823690Y-72777380D01*
X109918928Y-72729761D01*
X109966547Y-72682142D01*
X110014166Y-72586904D01*
X110014166Y-72491666D01*
X109966547Y-72396428D01*
X109918928Y-72348809D01*
X109823690Y-72301190D01*
X109633214Y-72253571D01*
X109537976Y-72205952D01*
X109490357Y-72158333D01*
X109442738Y-72063095D01*
X109442738Y-71967857D01*
X109490357Y-71872619D01*
X109537976Y-71825000D01*
X109633214Y-71777380D01*
X109871309Y-71777380D01*
X110014166Y-71825000D01*
X110442738Y-72777380D02*
X110442738Y-71777380D01*
X110442738Y-72253571D02*
X111014166Y-72253571D01*
X111014166Y-72777380D02*
X111014166Y-71777380D01*
X102537976Y-73522619D02*
X102585595Y-73475000D01*
X102680833Y-73427380D01*
X102918928Y-73427380D01*
X103014166Y-73475000D01*
X103061785Y-73522619D01*
X103109404Y-73617857D01*
X103109404Y-73713095D01*
X103061785Y-73855952D01*
X102490357Y-74427380D01*
X103109404Y-74427380D01*
X103537976Y-74046428D02*
X104299880Y-74046428D01*
X104680833Y-73427380D02*
X105299880Y-73427380D01*
X104966547Y-73808333D01*
X105109404Y-73808333D01*
X105204642Y-73855952D01*
X105252261Y-73903571D01*
X105299880Y-73998809D01*
X105299880Y-74236904D01*
X105252261Y-74332142D01*
X105204642Y-74379761D01*
X105109404Y-74427380D01*
X104823690Y-74427380D01*
X104728452Y-74379761D01*
X104680833Y-74332142D01*
X105728452Y-74332142D02*
X105776071Y-74379761D01*
X105728452Y-74427380D01*
X105680833Y-74379761D01*
X105728452Y-74332142D01*
X105728452Y-74427380D01*
X105728452Y-73808333D02*
X105776071Y-73855952D01*
X105728452Y-73903571D01*
X105680833Y-73855952D01*
X105728452Y-73808333D01*
X105728452Y-73903571D01*
X107299880Y-73903571D02*
X107442738Y-73951190D01*
X107490357Y-73998809D01*
X107537976Y-74094047D01*
X107537976Y-74236904D01*
X107490357Y-74332142D01*
X107442738Y-74379761D01*
X107347500Y-74427380D01*
X106966547Y-74427380D01*
X106966547Y-73427380D01*
X107299880Y-73427380D01*
X107395119Y-73475000D01*
X107442738Y-73522619D01*
X107490357Y-73617857D01*
X107490357Y-73713095D01*
X107442738Y-73808333D01*
X107395119Y-73855952D01*
X107299880Y-73903571D01*
X106966547Y-73903571D01*
X108157023Y-73427380D02*
X108347500Y-73427380D01*
X108442738Y-73475000D01*
X108537976Y-73570238D01*
X108585595Y-73760714D01*
X108585595Y-74094047D01*
X108537976Y-74284523D01*
X108442738Y-74379761D01*
X108347500Y-74427380D01*
X108157023Y-74427380D01*
X108061785Y-74379761D01*
X107966547Y-74284523D01*
X107918928Y-74094047D01*
X107918928Y-73760714D01*
X107966547Y-73570238D01*
X108061785Y-73475000D01*
X108157023Y-73427380D01*
X109204642Y-73427380D02*
X109395119Y-73427380D01*
X109490357Y-73475000D01*
X109585595Y-73570238D01*
X109633214Y-73760714D01*
X109633214Y-74094047D01*
X109585595Y-74284523D01*
X109490357Y-74379761D01*
X109395119Y-74427380D01*
X109204642Y-74427380D01*
X109109404Y-74379761D01*
X109014166Y-74284523D01*
X108966547Y-74094047D01*
X108966547Y-73760714D01*
X109014166Y-73570238D01*
X109109404Y-73475000D01*
X109204642Y-73427380D01*
X109918928Y-73427380D02*
X110490357Y-73427380D01*
X110204642Y-74427380D02*
X110204642Y-73427380D01*
D11*
X60354642Y-104678571D02*
X60202857Y-105892857D01*
X60113571Y-106035714D01*
X60033214Y-106107142D01*
X59881428Y-106178571D01*
X59667142Y-106178571D01*
X59533214Y-106107142D01*
X60238571Y-105607142D02*
X60086785Y-105678571D01*
X59801071Y-105678571D01*
X59667142Y-105607142D01*
X59604642Y-105535714D01*
X59551071Y-105392857D01*
X59604642Y-104964285D01*
X59693928Y-104821428D01*
X59774285Y-104750000D01*
X59926071Y-104678571D01*
X60211785Y-104678571D01*
X60345714Y-104750000D01*
X60943928Y-105678571D02*
X61068928Y-104678571D01*
X61131428Y-104178571D02*
X61051071Y-104250000D01*
X61113571Y-104321428D01*
X61193928Y-104250000D01*
X61131428Y-104178571D01*
X61113571Y-104321428D01*
X61568928Y-104678571D02*
X62140357Y-104678571D01*
X61845714Y-104178571D02*
X61685000Y-105464285D01*
X61738571Y-105607142D01*
X61872500Y-105678571D01*
X62015357Y-105678571D01*
X62515357Y-105678571D02*
X62702857Y-104178571D01*
X63158214Y-105678571D02*
X63256428Y-104892857D01*
X63202857Y-104750000D01*
X63068928Y-104678571D01*
X62854642Y-104678571D01*
X62702857Y-104750000D01*
X62622500Y-104821428D01*
X64640357Y-104678571D02*
X64515357Y-105678571D01*
X63997500Y-104678571D02*
X63899285Y-105464285D01*
X63952857Y-105607142D01*
X64086785Y-105678571D01*
X64301071Y-105678571D01*
X64452857Y-105607142D01*
X64533214Y-105535714D01*
X65229642Y-105678571D02*
X65417142Y-104178571D01*
X65345714Y-104750000D02*
X65497500Y-104678571D01*
X65783214Y-104678571D01*
X65917142Y-104750000D01*
X65979642Y-104821428D01*
X66033214Y-104964285D01*
X65979642Y-105392857D01*
X65890357Y-105535714D01*
X65810000Y-105607142D01*
X65658214Y-105678571D01*
X65372500Y-105678571D01*
X65238571Y-105607142D01*
X66604642Y-105535714D02*
X66667142Y-105607142D01*
X66586785Y-105678571D01*
X66524285Y-105607142D01*
X66604642Y-105535714D01*
X66586785Y-105678571D01*
X67952857Y-105607142D02*
X67801071Y-105678571D01*
X67515357Y-105678571D01*
X67381428Y-105607142D01*
X67318928Y-105535714D01*
X67265357Y-105392857D01*
X67318928Y-104964285D01*
X67408214Y-104821428D01*
X67488571Y-104750000D01*
X67640357Y-104678571D01*
X67926071Y-104678571D01*
X68060000Y-104750000D01*
X68801071Y-105678571D02*
X68667142Y-105607142D01*
X68604642Y-105535714D01*
X68551071Y-105392857D01*
X68604642Y-104964285D01*
X68693928Y-104821428D01*
X68774285Y-104750000D01*
X68926071Y-104678571D01*
X69140357Y-104678571D01*
X69274285Y-104750000D01*
X69336785Y-104821428D01*
X69390357Y-104964285D01*
X69336785Y-105392857D01*
X69247500Y-105535714D01*
X69167142Y-105607142D01*
X69015357Y-105678571D01*
X68801071Y-105678571D01*
X69943928Y-105678571D02*
X70068928Y-104678571D01*
X70051071Y-104821428D02*
X70131428Y-104750000D01*
X70283214Y-104678571D01*
X70497500Y-104678571D01*
X70631428Y-104750000D01*
X70685000Y-104892857D01*
X70586785Y-105678571D01*
X70685000Y-104892857D02*
X70774285Y-104750000D01*
X70926071Y-104678571D01*
X71140357Y-104678571D01*
X71274285Y-104750000D01*
X71327857Y-104892857D01*
X71229642Y-105678571D01*
X73211785Y-104107142D02*
X71685000Y-106035714D01*
X73988571Y-104178571D02*
X74274285Y-104178571D01*
X74408214Y-104250000D01*
X74533214Y-104392857D01*
X74568928Y-104678571D01*
X74506428Y-105178571D01*
X74399285Y-105464285D01*
X74238571Y-105607142D01*
X74086785Y-105678571D01*
X73801071Y-105678571D01*
X73667142Y-105607142D01*
X73542142Y-105464285D01*
X73506428Y-105178571D01*
X73568928Y-104678571D01*
X73676071Y-104392857D01*
X73836785Y-104250000D01*
X73988571Y-104178571D01*
X75086785Y-105678571D02*
X75274285Y-104178571D01*
X75202857Y-104750000D02*
X75354642Y-104678571D01*
X75640357Y-104678571D01*
X75774285Y-104750000D01*
X75836785Y-104821428D01*
X75890357Y-104964285D01*
X75836785Y-105392857D01*
X75747500Y-105535714D01*
X75667142Y-105607142D01*
X75515357Y-105678571D01*
X75229642Y-105678571D01*
X75095714Y-105607142D01*
X77024285Y-105607142D02*
X76872500Y-105678571D01*
X76586785Y-105678571D01*
X76452857Y-105607142D01*
X76399285Y-105464285D01*
X76470714Y-104892857D01*
X76560000Y-104750000D01*
X76711785Y-104678571D01*
X76997500Y-104678571D01*
X77131428Y-104750000D01*
X77185000Y-104892857D01*
X77167142Y-105035714D01*
X76435000Y-105178571D01*
X77729642Y-105678571D02*
X77854642Y-104678571D01*
X77818928Y-104964285D02*
X77908214Y-104821428D01*
X77988571Y-104750000D01*
X78140357Y-104678571D01*
X78283214Y-104678571D01*
X78631428Y-104178571D02*
X79488571Y-104178571D01*
X78872500Y-105678571D02*
X79060000Y-104178571D01*
X80381428Y-105607142D02*
X80229642Y-105678571D01*
X79943928Y-105678571D01*
X79810000Y-105607142D01*
X79756428Y-105464285D01*
X79827857Y-104892857D01*
X79917142Y-104750000D01*
X80068928Y-104678571D01*
X80354642Y-104678571D01*
X80488571Y-104750000D01*
X80542142Y-104892857D01*
X80524285Y-105035714D01*
X79792142Y-105178571D01*
X81738571Y-105607142D02*
X81586785Y-105678571D01*
X81301071Y-105678571D01*
X81167142Y-105607142D01*
X81104642Y-105535714D01*
X81051071Y-105392857D01*
X81104642Y-104964285D01*
X81193928Y-104821428D01*
X81274285Y-104750000D01*
X81426071Y-104678571D01*
X81711785Y-104678571D01*
X81845714Y-104750000D01*
X82372500Y-105678571D02*
X82560000Y-104178571D01*
X83015357Y-105678571D02*
X83113571Y-104892857D01*
X83060000Y-104750000D01*
X82926071Y-104678571D01*
X82711785Y-104678571D01*
X82560000Y-104750000D01*
X82479642Y-104821428D01*
X83854642Y-104678571D02*
X83729642Y-105678571D01*
X83836785Y-104821428D02*
X83917142Y-104750000D01*
X84068928Y-104678571D01*
X84283214Y-104678571D01*
X84417142Y-104750000D01*
X84470714Y-104892857D01*
X84372500Y-105678571D01*
X85086785Y-105678571D02*
X85211785Y-104678571D01*
X85274285Y-104178571D02*
X85193928Y-104250000D01*
X85256428Y-104321428D01*
X85336785Y-104250000D01*
X85274285Y-104178571D01*
X85256428Y-104321428D01*
X85801071Y-105678571D02*
X85988571Y-104178571D01*
X86015357Y-105107142D02*
X86372500Y-105678571D01*
X86497500Y-104678571D02*
X85854642Y-105250000D01*
X86952857Y-105607142D02*
X87086785Y-105678571D01*
X87372500Y-105678571D01*
X87524285Y-105607142D01*
X87613571Y-105464285D01*
X87622500Y-105392857D01*
X87568928Y-105250000D01*
X87435000Y-105178571D01*
X87220714Y-105178571D01*
X87086785Y-105107142D01*
X87033214Y-104964285D01*
X87042142Y-104892857D01*
X87131428Y-104750000D01*
X87283214Y-104678571D01*
X87497500Y-104678571D01*
X87631428Y-104750000D01*
X89497500Y-104107142D02*
X87970714Y-106035714D01*
X89801071Y-105678571D02*
X89926071Y-104678571D01*
X89890357Y-104964285D02*
X89979642Y-104821428D01*
X90060000Y-104750000D01*
X90211785Y-104678571D01*
X90354642Y-104678571D01*
X90854642Y-104678571D02*
X90667142Y-106178571D01*
X90845714Y-104750000D02*
X90997500Y-104678571D01*
X91283214Y-104678571D01*
X91417142Y-104750000D01*
X91479642Y-104821428D01*
X91533214Y-104964285D01*
X91479642Y-105392857D01*
X91390357Y-105535714D01*
X91310000Y-105607142D01*
X91158214Y-105678571D01*
X90872500Y-105678571D01*
X90738571Y-105607142D01*
X92086785Y-105678571D02*
X92211785Y-104678571D01*
X92274285Y-104178571D02*
X92193928Y-104250000D01*
X92256428Y-104321428D01*
X92336785Y-104250000D01*
X92274285Y-104178571D01*
X92256428Y-104321428D01*
X92426071Y-105821428D02*
X93568928Y-105821428D01*
X93881428Y-105607142D02*
X94015357Y-105678571D01*
X94301071Y-105678571D01*
X94452857Y-105607142D01*
X94542142Y-105464285D01*
X94551071Y-105392857D01*
X94497500Y-105250000D01*
X94363571Y-105178571D01*
X94149285Y-105178571D01*
X94015357Y-105107142D01*
X93961785Y-104964285D01*
X93970714Y-104892857D01*
X94060000Y-104750000D01*
X94211785Y-104678571D01*
X94426071Y-104678571D01*
X94560000Y-104750000D01*
X95738571Y-105607142D02*
X95586785Y-105678571D01*
X95301071Y-105678571D01*
X95167142Y-105607142D01*
X95113571Y-105464285D01*
X95185000Y-104892857D01*
X95274285Y-104750000D01*
X95426071Y-104678571D01*
X95711785Y-104678571D01*
X95845714Y-104750000D01*
X95899285Y-104892857D01*
X95881428Y-105035714D01*
X95149285Y-105178571D01*
X96568928Y-104678571D02*
X96443928Y-105678571D01*
X96551071Y-104821428D02*
X96631428Y-104750000D01*
X96783214Y-104678571D01*
X96997500Y-104678571D01*
X97131428Y-104750000D01*
X97185000Y-104892857D01*
X97086785Y-105678571D01*
X97738571Y-105607142D02*
X97872500Y-105678571D01*
X98158214Y-105678571D01*
X98310000Y-105607142D01*
X98399285Y-105464285D01*
X98408214Y-105392857D01*
X98354642Y-105250000D01*
X98220714Y-105178571D01*
X98006428Y-105178571D01*
X97872500Y-105107142D01*
X97818928Y-104964285D01*
X97827857Y-104892857D01*
X97917142Y-104750000D01*
X98068928Y-104678571D01*
X98283214Y-104678571D01*
X98417142Y-104750000D01*
X99229642Y-105678571D02*
X99095714Y-105607142D01*
X99033214Y-105535714D01*
X98979642Y-105392857D01*
X99033214Y-104964285D01*
X99122500Y-104821428D01*
X99202857Y-104750000D01*
X99354642Y-104678571D01*
X99568928Y-104678571D01*
X99702857Y-104750000D01*
X99765357Y-104821428D01*
X99818928Y-104964285D01*
X99765357Y-105392857D01*
X99676071Y-105535714D01*
X99595714Y-105607142D01*
X99443928Y-105678571D01*
X99229642Y-105678571D01*
X100372500Y-105678571D02*
X100497500Y-104678571D01*
X100461785Y-104964285D02*
X100551071Y-104821428D01*
X100631428Y-104750000D01*
X100783214Y-104678571D01*
X100926071Y-104678571D01*
X100926071Y-105821428D02*
X102068928Y-105821428D01*
X102443928Y-105678571D02*
X102631428Y-104178571D01*
X103086785Y-105678571D02*
X103185000Y-104892857D01*
X103131428Y-104750000D01*
X102997500Y-104678571D01*
X102783214Y-104678571D01*
X102631428Y-104750000D01*
X102551071Y-104821428D01*
X104443928Y-105678571D02*
X104542142Y-104892857D01*
X104488571Y-104750000D01*
X104354642Y-104678571D01*
X104068928Y-104678571D01*
X103917142Y-104750000D01*
X104452857Y-105607142D02*
X104301071Y-105678571D01*
X103943928Y-105678571D01*
X103810000Y-105607142D01*
X103756428Y-105464285D01*
X103774285Y-105321428D01*
X103863571Y-105178571D01*
X104015357Y-105107142D01*
X104372500Y-105107142D01*
X104524285Y-105035714D01*
X105068928Y-104678571D02*
X105640357Y-104678571D01*
X105345714Y-104178571D02*
X105185000Y-105464285D01*
X105238571Y-105607142D01*
X105372500Y-105678571D01*
X105515357Y-105678571D01*
D10*
X103621309Y-58477380D02*
X103621309Y-59191666D01*
X103573690Y-59334523D01*
X103478452Y-59429761D01*
X103335595Y-59477380D01*
X103240357Y-59477380D01*
X104526071Y-58810714D02*
X104526071Y-59477380D01*
X104097500Y-58810714D02*
X104097500Y-59334523D01*
X104145119Y-59429761D01*
X104240357Y-59477380D01*
X104383214Y-59477380D01*
X104478452Y-59429761D01*
X104526071Y-59382142D01*
X105002261Y-59477380D02*
X105002261Y-58810714D01*
X105002261Y-58905952D02*
X105049880Y-58858333D01*
X105145119Y-58810714D01*
X105287976Y-58810714D01*
X105383214Y-58858333D01*
X105430833Y-58953571D01*
X105430833Y-59477380D01*
X105430833Y-58953571D02*
X105478452Y-58858333D01*
X105573690Y-58810714D01*
X105716547Y-58810714D01*
X105811785Y-58858333D01*
X105859404Y-58953571D01*
X105859404Y-59477380D01*
X106335595Y-58810714D02*
X106335595Y-59810714D01*
X106335595Y-58858333D02*
X106430833Y-58810714D01*
X106621309Y-58810714D01*
X106716547Y-58858333D01*
X106764166Y-58905952D01*
X106811785Y-59001190D01*
X106811785Y-59286904D01*
X106764166Y-59382142D01*
X106716547Y-59429761D01*
X106621309Y-59477380D01*
X106430833Y-59477380D01*
X106335595Y-59429761D01*
X107621309Y-59429761D02*
X107526071Y-59477380D01*
X107335595Y-59477380D01*
X107240357Y-59429761D01*
X107192738Y-59334523D01*
X107192738Y-58953571D01*
X107240357Y-58858333D01*
X107335595Y-58810714D01*
X107526071Y-58810714D01*
X107621309Y-58858333D01*
X107668928Y-58953571D01*
X107668928Y-59048809D01*
X107192738Y-59144047D01*
X108097500Y-59477380D02*
X108097500Y-58810714D01*
X108097500Y-59001190D02*
X108145119Y-58905952D01*
X108192738Y-58858333D01*
X108287976Y-58810714D01*
X108383214Y-58810714D01*
X103335595Y-61127380D02*
X103335595Y-60127380D01*
X103811785Y-61127380D02*
X103811785Y-60127380D01*
X104049880Y-60127380D01*
X104192738Y-60175000D01*
X104287976Y-60270238D01*
X104335595Y-60365476D01*
X104383214Y-60555952D01*
X104383214Y-60698809D01*
X104335595Y-60889285D01*
X104287976Y-60984523D01*
X104192738Y-61079761D01*
X104049880Y-61127380D01*
X103811785Y-61127380D01*
X105573690Y-60603571D02*
X105907023Y-60603571D01*
X106049880Y-61127380D02*
X105573690Y-61127380D01*
X105573690Y-60127380D01*
X106049880Y-60127380D01*
X106478452Y-60603571D02*
X106811785Y-60603571D01*
X106954642Y-61127380D02*
X106478452Y-61127380D01*
X106478452Y-60127380D01*
X106954642Y-60127380D01*
X107383214Y-61127380D02*
X107383214Y-60127380D01*
X107764166Y-60127380D01*
X107859404Y-60175000D01*
X107907023Y-60222619D01*
X107954642Y-60317857D01*
X107954642Y-60460714D01*
X107907023Y-60555952D01*
X107859404Y-60603571D01*
X107764166Y-60651190D01*
X107383214Y-60651190D01*
X108954642Y-61127380D02*
X108621309Y-60651190D01*
X108383214Y-61127380D02*
X108383214Y-60127380D01*
X108764166Y-60127380D01*
X108859404Y-60175000D01*
X108907023Y-60222619D01*
X108954642Y-60317857D01*
X108954642Y-60460714D01*
X108907023Y-60555952D01*
X108859404Y-60603571D01*
X108764166Y-60651190D01*
X108383214Y-60651190D01*
X109573690Y-60127380D02*
X109764166Y-60127380D01*
X109859404Y-60175000D01*
X109954642Y-60270238D01*
X110002261Y-60460714D01*
X110002261Y-60794047D01*
X109954642Y-60984523D01*
X109859404Y-61079761D01*
X109764166Y-61127380D01*
X109573690Y-61127380D01*
X109478452Y-61079761D01*
X109383214Y-60984523D01*
X109335595Y-60794047D01*
X109335595Y-60460714D01*
X109383214Y-60270238D01*
X109478452Y-60175000D01*
X109573690Y-60127380D01*
X110430833Y-61127380D02*
X110430833Y-60127380D01*
X110764166Y-60841666D01*
X111097500Y-60127380D01*
X111097500Y-61127380D01*
X103859404Y-62777380D02*
X103287976Y-62777380D01*
X103573690Y-62777380D02*
X103573690Y-61777380D01*
X103478452Y-61920238D01*
X103383214Y-62015476D01*
X103287976Y-62063095D01*
X104287976Y-62396428D02*
X105049880Y-62396428D01*
X105478452Y-61872619D02*
X105526071Y-61825000D01*
X105621309Y-61777380D01*
X105859404Y-61777380D01*
X105954642Y-61825000D01*
X106002261Y-61872619D01*
X106049880Y-61967857D01*
X106049880Y-62063095D01*
X106002261Y-62205952D01*
X105430833Y-62777380D01*
X106049880Y-62777380D01*
X106478452Y-62682142D02*
X106526071Y-62729761D01*
X106478452Y-62777380D01*
X106430833Y-62729761D01*
X106478452Y-62682142D01*
X106478452Y-62777380D01*
X106478452Y-62158333D02*
X106526071Y-62205952D01*
X106478452Y-62253571D01*
X106430833Y-62205952D01*
X106478452Y-62158333D01*
X106478452Y-62253571D01*
X108287976Y-62777380D02*
X107954642Y-62301190D01*
X107716547Y-62777380D02*
X107716547Y-61777380D01*
X108097500Y-61777380D01*
X108192738Y-61825000D01*
X108240357Y-61872619D01*
X108287976Y-61967857D01*
X108287976Y-62110714D01*
X108240357Y-62205952D01*
X108192738Y-62253571D01*
X108097500Y-62301190D01*
X107716547Y-62301190D01*
X109097500Y-62729761D02*
X109002261Y-62777380D01*
X108811785Y-62777380D01*
X108716547Y-62729761D01*
X108668928Y-62634523D01*
X108668928Y-62253571D01*
X108716547Y-62158333D01*
X108811785Y-62110714D01*
X109002261Y-62110714D01*
X109097500Y-62158333D01*
X109145119Y-62253571D01*
X109145119Y-62348809D01*
X108668928Y-62444047D01*
X110002261Y-62777380D02*
X110002261Y-62253571D01*
X109954642Y-62158333D01*
X109859404Y-62110714D01*
X109668928Y-62110714D01*
X109573690Y-62158333D01*
X110002261Y-62729761D02*
X109907023Y-62777380D01*
X109668928Y-62777380D01*
X109573690Y-62729761D01*
X109526071Y-62634523D01*
X109526071Y-62539285D01*
X109573690Y-62444047D01*
X109668928Y-62396428D01*
X109907023Y-62396428D01*
X110002261Y-62348809D01*
X110907023Y-62777380D02*
X110907023Y-61777380D01*
X110907023Y-62729761D02*
X110811785Y-62777380D01*
X110621309Y-62777380D01*
X110526071Y-62729761D01*
X110478452Y-62682142D01*
X110430833Y-62586904D01*
X110430833Y-62301190D01*
X110478452Y-62205952D01*
X110526071Y-62158333D01*
X110621309Y-62110714D01*
X110811785Y-62110714D01*
X110907023Y-62158333D01*
X103287976Y-63522619D02*
X103335595Y-63475000D01*
X103430833Y-63427380D01*
X103668928Y-63427380D01*
X103764166Y-63475000D01*
X103811785Y-63522619D01*
X103859404Y-63617857D01*
X103859404Y-63713095D01*
X103811785Y-63855952D01*
X103240357Y-64427380D01*
X103859404Y-64427380D01*
X104287976Y-64046428D02*
X105049880Y-64046428D01*
X105430833Y-63427380D02*
X106049880Y-63427380D01*
X105716547Y-63808333D01*
X105859404Y-63808333D01*
X105954642Y-63855952D01*
X106002261Y-63903571D01*
X106049880Y-63998809D01*
X106049880Y-64236904D01*
X106002261Y-64332142D01*
X105954642Y-64379761D01*
X105859404Y-64427380D01*
X105573690Y-64427380D01*
X105478452Y-64379761D01*
X105430833Y-64332142D01*
X106478452Y-64332142D02*
X106526071Y-64379761D01*
X106478452Y-64427380D01*
X106430833Y-64379761D01*
X106478452Y-64332142D01*
X106478452Y-64427380D01*
X106478452Y-63808333D02*
X106526071Y-63855952D01*
X106478452Y-63903571D01*
X106430833Y-63855952D01*
X106478452Y-63808333D01*
X106478452Y-63903571D01*
X107621309Y-63427380D02*
X107859404Y-64427380D01*
X108049880Y-63713095D01*
X108240357Y-64427380D01*
X108478452Y-63427380D01*
X108859404Y-64427380D02*
X108859404Y-63760714D01*
X108859404Y-63951190D02*
X108907023Y-63855952D01*
X108954642Y-63808333D01*
X109049880Y-63760714D01*
X109145119Y-63760714D01*
X109478452Y-64427380D02*
X109478452Y-63760714D01*
X109478452Y-63427380D02*
X109430833Y-63475000D01*
X109478452Y-63522619D01*
X109526071Y-63475000D01*
X109478452Y-63427380D01*
X109478452Y-63522619D01*
X109811785Y-63760714D02*
X110192738Y-63760714D01*
X109954642Y-63427380D02*
X109954642Y-64284523D01*
X110002261Y-64379761D01*
X110097500Y-64427380D01*
X110192738Y-64427380D01*
X110907023Y-64379761D02*
X110811785Y-64427380D01*
X110621309Y-64427380D01*
X110526071Y-64379761D01*
X110478452Y-64284523D01*
X110478452Y-63903571D01*
X110526071Y-63808333D01*
X110621309Y-63760714D01*
X110811785Y-63760714D01*
X110907023Y-63808333D01*
X110954642Y-63903571D01*
X110954642Y-63998809D01*
X110478452Y-64094047D01*
D12*
G36*
X50889054Y-96386400D02*
G01*
X51002993Y-96375535D01*
X51110616Y-96343918D01*
X51209615Y-96293015D01*
X51297684Y-96224293D01*
X51372516Y-96139219D01*
X51430384Y-96042232D01*
X51470005Y-95935964D01*
X51488573Y-95828950D01*
X51487434Y-95723300D01*
X51467930Y-95621125D01*
X51431406Y-95524534D01*
X51379205Y-95435638D01*
X51312673Y-95356546D01*
X51233152Y-95289369D01*
X51141987Y-95236217D01*
X51040523Y-95199199D01*
X50930102Y-95180427D01*
X50880206Y-95178489D01*
X50792267Y-95178489D01*
X50792267Y-95126560D01*
X50795111Y-95090253D01*
X50806911Y-95063355D01*
X50830649Y-95036249D01*
X50869031Y-94997867D01*
X53060602Y-94997867D01*
X53322739Y-94997876D01*
X53563241Y-94997908D01*
X53783048Y-94997972D01*
X53983101Y-94998076D01*
X54164344Y-94998227D01*
X54327716Y-94998434D01*
X54474160Y-94998706D01*
X54604617Y-94999050D01*
X54720029Y-94999474D01*
X54821338Y-94999987D01*
X54909484Y-95000597D01*
X54985410Y-95001312D01*
X55050057Y-95002140D01*
X55104367Y-95003089D01*
X55149280Y-95004167D01*
X55185740Y-95005383D01*
X55214687Y-95006745D01*
X55237063Y-95008261D01*
X55253809Y-95009938D01*
X55265868Y-95011786D01*
X55274180Y-95013813D01*
X55279687Y-95016025D01*
X55281537Y-95017108D01*
X55288549Y-95021271D01*
X55294996Y-95024805D01*
X55300900Y-95028635D01*
X55306286Y-95033682D01*
X55311178Y-95040871D01*
X55315598Y-95051123D01*
X55319572Y-95065364D01*
X55323121Y-95084514D01*
X55326270Y-95109499D01*
X55329042Y-95141240D01*
X55331461Y-95180662D01*
X55333551Y-95228686D01*
X55335335Y-95286237D01*
X55336837Y-95354237D01*
X55338080Y-95433610D01*
X55339089Y-95525279D01*
X55339885Y-95630166D01*
X55340494Y-95749196D01*
X55340939Y-95883290D01*
X55341243Y-96033373D01*
X55341430Y-96200367D01*
X55341524Y-96385196D01*
X55341548Y-96588783D01*
X55341525Y-96812050D01*
X55341480Y-97055922D01*
X55341437Y-97321321D01*
X55341432Y-97359704D01*
X55341389Y-97626682D01*
X55341318Y-97872002D01*
X55341213Y-98096583D01*
X55341066Y-98301345D01*
X55340869Y-98487206D01*
X55340616Y-98655088D01*
X55340300Y-98805908D01*
X55339913Y-98940587D01*
X55339447Y-99060044D01*
X55338897Y-99165199D01*
X55338253Y-99256971D01*
X55337511Y-99336279D01*
X55336661Y-99404043D01*
X55335697Y-99461182D01*
X55334611Y-99508617D01*
X55333397Y-99547266D01*
X55332047Y-99578049D01*
X55330555Y-99601885D01*
X55328911Y-99619694D01*
X55327111Y-99632395D01*
X55325145Y-99640908D01*
X55323477Y-99645266D01*
X55319906Y-99653728D01*
X55317270Y-99661497D01*
X55314634Y-99668602D01*
X55311062Y-99675073D01*
X55305621Y-99680939D01*
X55297375Y-99686229D01*
X55285390Y-99690974D01*
X55268731Y-99695202D01*
X55246463Y-99698943D01*
X55217652Y-99702227D01*
X55181363Y-99705083D01*
X55136661Y-99707540D01*
X55082611Y-99709629D01*
X55018279Y-99711378D01*
X54942730Y-99712817D01*
X54855030Y-99713976D01*
X54754243Y-99714883D01*
X54639434Y-99715569D01*
X54509670Y-99716063D01*
X54364015Y-99716395D01*
X54201535Y-99716593D01*
X54021295Y-99716687D01*
X53822360Y-99716708D01*
X53603796Y-99716685D01*
X53364668Y-99716646D01*
X53104040Y-99716622D01*
X53061889Y-99716622D01*
X52798992Y-99716636D01*
X52557732Y-99716661D01*
X52337165Y-99716671D01*
X52136352Y-99716642D01*
X51954349Y-99716548D01*
X51790216Y-99716362D01*
X51643011Y-99716059D01*
X51511792Y-99715614D01*
X51401867Y-99715034D01*
X51401867Y-99412197D01*
X51459711Y-99372407D01*
X51475479Y-99361236D01*
X51489441Y-99351166D01*
X51502784Y-99342138D01*
X51516693Y-99334097D01*
X51532356Y-99326986D01*
X51550958Y-99320747D01*
X51573686Y-99315325D01*
X51601727Y-99310662D01*
X51636267Y-99306701D01*
X51678492Y-99303385D01*
X51729589Y-99300659D01*
X51790744Y-99298464D01*
X51863144Y-99296745D01*
X51947975Y-99295444D01*
X52046422Y-99294505D01*
X52159674Y-99293870D01*
X52288916Y-99293484D01*
X52435334Y-99293288D01*
X52600116Y-99293227D01*
X52784447Y-99293243D01*
X52989513Y-99293280D01*
X53112133Y-99293289D01*
X53329082Y-99293265D01*
X53524642Y-99293231D01*
X53699999Y-99293243D01*
X53856341Y-99293358D01*
X53994857Y-99293630D01*
X54116734Y-99294118D01*
X54223160Y-99294876D01*
X54315322Y-99295962D01*
X54394409Y-99297431D01*
X54461608Y-99299340D01*
X54518107Y-99301744D01*
X54565093Y-99304701D01*
X54603755Y-99308266D01*
X54635280Y-99312495D01*
X54660855Y-99317446D01*
X54681670Y-99323173D01*
X54698911Y-99329733D01*
X54713765Y-99337183D01*
X54727422Y-99345579D01*
X54741069Y-99354976D01*
X54755893Y-99365432D01*
X54764783Y-99371523D01*
X54822400Y-99410296D01*
X54822400Y-98878732D01*
X54822365Y-98755483D01*
X54822215Y-98652987D01*
X54821878Y-98569420D01*
X54821286Y-98502956D01*
X54820367Y-98451771D01*
X54819051Y-98414041D01*
X54817269Y-98387940D01*
X54814951Y-98371644D01*
X54812026Y-98363328D01*
X54808424Y-98361168D01*
X54804075Y-98363339D01*
X54802645Y-98364535D01*
X54765573Y-98389685D01*
X54712772Y-98415583D01*
X54650770Y-98439192D01*
X54624357Y-98447461D01*
X54606416Y-98452078D01*
X54585355Y-98455979D01*
X54559089Y-98459248D01*
X54525532Y-98461966D01*
X54482599Y-98464215D01*
X54428204Y-98466077D01*
X54360262Y-98467636D01*
X54276688Y-98468972D01*
X54175395Y-98470169D01*
X54054300Y-98471308D01*
X54009600Y-98471685D01*
X53884449Y-98472702D01*
X53780082Y-98473460D01*
X53694707Y-98473903D01*
X53626533Y-98473970D01*
X53573765Y-98473605D01*
X53534614Y-98472748D01*
X53507285Y-98471341D01*
X53489986Y-98469325D01*
X53480926Y-98466643D01*
X53478312Y-98463236D01*
X53480351Y-98459044D01*
X53484667Y-98454571D01*
X53497602Y-98444216D01*
X53526676Y-98422158D01*
X53569759Y-98389957D01*
X53624718Y-98349174D01*
X53689423Y-98301370D01*
X53761742Y-98248105D01*
X53839544Y-98190940D01*
X53920698Y-98131437D01*
X54003072Y-98071155D01*
X54084536Y-98011655D01*
X54162957Y-97954498D01*
X54236204Y-97901245D01*
X54302147Y-97853457D01*
X54358654Y-97812693D01*
X54403593Y-97780516D01*
X54434834Y-97758485D01*
X54441466Y-97753917D01*
X54478369Y-97730996D01*
X54526359Y-97704188D01*
X54575897Y-97678789D01*
X54582577Y-97675568D01*
X54630772Y-97653890D01*
X54668334Y-97641304D01*
X54704160Y-97635574D01*
X54746200Y-97634456D01*
X54822400Y-97635090D01*
X54822400Y-96480651D01*
X54728669Y-96571815D01*
X54678775Y-96618612D01*
X54622295Y-96668899D01*
X54568026Y-96714944D01*
X54542673Y-96735369D01*
X54503128Y-96765807D01*
X54449916Y-96805862D01*
X54384667Y-96854361D01*
X54309011Y-96910135D01*
X54224577Y-96972011D01*
X54132994Y-97038819D01*
X54035892Y-97109387D01*
X53934901Y-97182545D01*
X53831650Y-97257121D01*
X53727768Y-97331944D01*
X53624885Y-97405843D01*
X53524631Y-97477646D01*
X53428636Y-97546184D01*
X53338527Y-97610284D01*
X53255936Y-97668775D01*
X53182492Y-97720486D01*
X53119824Y-97764247D01*
X53069561Y-97798885D01*
X53033334Y-97823230D01*
X53012771Y-97836111D01*
X53008668Y-97837869D01*
X52997342Y-97829910D01*
X52970162Y-97809115D01*
X52928829Y-97776847D01*
X52875044Y-97734470D01*
X52810506Y-97683347D01*
X52736918Y-97624841D01*
X52655978Y-97560314D01*
X52569388Y-97491131D01*
X52478848Y-97418653D01*
X52386060Y-97344246D01*
X52311702Y-97284517D01*
X52311702Y-96273511D01*
X52324659Y-96267602D01*
X52346908Y-96253272D01*
X52348391Y-96252225D01*
X52378544Y-96233438D01*
X52415375Y-96213791D01*
X52423511Y-96209892D01*
X52431940Y-96206356D01*
X52442059Y-96203230D01*
X52455260Y-96200486D01*
X52472938Y-96198092D01*
X52496484Y-96196019D01*
X52527293Y-96194235D01*
X52566757Y-96192712D01*
X52616269Y-96191419D01*
X52677223Y-96190326D01*
X52751011Y-96189403D01*
X52839028Y-96188619D01*
X52942665Y-96187945D01*
X53063316Y-96187350D01*
X53202374Y-96186805D01*
X53361232Y-96186279D01*
X53540089Y-96185745D01*
X53725207Y-96185206D01*
X53889145Y-96184772D01*
X54033303Y-96184509D01*
X54159079Y-96184484D01*
X54267871Y-96184765D01*
X54361077Y-96185419D01*
X54440097Y-96186514D01*
X54506328Y-96188118D01*
X54561170Y-96190297D01*
X54606021Y-96193119D01*
X54642278Y-96196651D01*
X54671341Y-96200961D01*
X54694609Y-96206117D01*
X54713479Y-96212185D01*
X54729351Y-96219233D01*
X54743622Y-96227329D01*
X54757691Y-96236540D01*
X54770158Y-96245040D01*
X54796452Y-96262176D01*
X54814037Y-96272322D01*
X54817257Y-96273511D01*
X54818334Y-96262604D01*
X54819335Y-96231411D01*
X54820235Y-96182223D01*
X54821010Y-96117333D01*
X54821637Y-96039030D01*
X54822091Y-95949607D01*
X54822349Y-95851356D01*
X54822400Y-95782445D01*
X54822180Y-95677452D01*
X54821548Y-95580610D01*
X54820549Y-95494107D01*
X54819227Y-95420132D01*
X54817626Y-95360874D01*
X54815791Y-95318520D01*
X54813765Y-95295260D01*
X54812493Y-95291378D01*
X54797591Y-95299076D01*
X54789560Y-95307074D01*
X54772434Y-95320246D01*
X54742183Y-95337485D01*
X54717622Y-95349407D01*
X54658711Y-95376045D01*
X53481845Y-95379120D01*
X52304978Y-95382195D01*
X52304978Y-95827853D01*
X52305142Y-95925670D01*
X52305611Y-96016064D01*
X52306347Y-96096630D01*
X52307316Y-96164962D01*
X52308480Y-96218656D01*
X52309803Y-96255305D01*
X52311249Y-96272504D01*
X52311702Y-96273511D01*
X52311702Y-97284517D01*
X52292722Y-97269270D01*
X52200537Y-97195090D01*
X52111204Y-97123069D01*
X52026424Y-97054569D01*
X51947898Y-96990955D01*
X51877326Y-96933588D01*
X51816409Y-96883833D01*
X51766847Y-96843052D01*
X51746178Y-96825888D01*
X51645516Y-96739596D01*
X51562259Y-96662997D01*
X51494438Y-96594183D01*
X51440089Y-96531248D01*
X51432722Y-96521867D01*
X51402117Y-96482356D01*
X51401867Y-97614116D01*
X51449844Y-97608827D01*
X51507188Y-97612130D01*
X51575463Y-97633661D01*
X51655212Y-97673635D01*
X51727495Y-97718943D01*
X51750140Y-97735161D01*
X51787696Y-97763214D01*
X51838021Y-97801430D01*
X51898973Y-97848137D01*
X51968411Y-97901661D01*
X52044194Y-97960331D01*
X52124180Y-98022475D01*
X52206228Y-98086421D01*
X52288196Y-98150495D01*
X52367943Y-98213027D01*
X52443327Y-98272343D01*
X52512207Y-98326771D01*
X52572442Y-98374639D01*
X52621889Y-98414275D01*
X52658408Y-98444006D01*
X52679858Y-98462161D01*
X52683156Y-98465220D01*
X52675149Y-98468079D01*
X52644855Y-98470293D01*
X52592556Y-98471857D01*
X52518531Y-98472767D01*
X52423063Y-98473020D01*
X52306434Y-98472613D01*
X52186445Y-98471704D01*
X52054333Y-98470382D01*
X51942594Y-98468857D01*
X51849025Y-98466881D01*
X51771419Y-98464206D01*
X51707574Y-98460582D01*
X51655283Y-98455761D01*
X51612344Y-98449494D01*
X51576551Y-98441532D01*
X51545700Y-98431627D01*
X51517586Y-98419531D01*
X51490005Y-98404993D01*
X51464966Y-98390311D01*
X51401867Y-98352314D01*
X51401867Y-99412197D01*
X51401867Y-99715034D01*
X51395617Y-99715001D01*
X51293544Y-99714195D01*
X51204633Y-99713170D01*
X51127941Y-99711900D01*
X51062527Y-99710360D01*
X51007449Y-99708524D01*
X50961765Y-99706367D01*
X50924534Y-99703863D01*
X50894813Y-99700987D01*
X50871662Y-99697713D01*
X50854139Y-99694015D01*
X50841301Y-99689869D01*
X50832208Y-99685247D01*
X50825918Y-99680126D01*
X50821488Y-99674478D01*
X50817978Y-99668279D01*
X50814445Y-99661504D01*
X50810876Y-99655508D01*
X50808300Y-99650275D01*
X50805972Y-99642099D01*
X50803878Y-99629886D01*
X50802007Y-99612541D01*
X50800347Y-99588969D01*
X50798884Y-99558077D01*
X50797608Y-99518768D01*
X50796504Y-99469950D01*
X50795561Y-99410527D01*
X50794767Y-99339404D01*
X50794109Y-99255488D01*
X50793575Y-99157683D01*
X50793153Y-99044894D01*
X50792829Y-98916029D01*
X50792592Y-98769991D01*
X50792430Y-98605686D01*
X50792330Y-98422020D01*
X50792280Y-98217897D01*
X50792267Y-98006753D01*
X50792267Y-96386400D01*
X50889054Y-96386400D01*
G37*
X50889054Y-96386400D02*
X51002993Y-96375535D01*
X51110616Y-96343918D01*
X51209615Y-96293015D01*
X51297684Y-96224293D01*
X51372516Y-96139219D01*
X51430384Y-96042232D01*
X51470005Y-95935964D01*
X51488573Y-95828950D01*
X51487434Y-95723300D01*
X51467930Y-95621125D01*
X51431406Y-95524534D01*
X51379205Y-95435638D01*
X51312673Y-95356546D01*
X51233152Y-95289369D01*
X51141987Y-95236217D01*
X51040523Y-95199199D01*
X50930102Y-95180427D01*
X50880206Y-95178489D01*
X50792267Y-95178489D01*
X50792267Y-95126560D01*
X50795111Y-95090253D01*
X50806911Y-95063355D01*
X50830649Y-95036249D01*
X50869031Y-94997867D01*
X53060602Y-94997867D01*
X53322739Y-94997876D01*
X53563241Y-94997908D01*
X53783048Y-94997972D01*
X53983101Y-94998076D01*
X54164344Y-94998227D01*
X54327716Y-94998434D01*
X54474160Y-94998706D01*
X54604617Y-94999050D01*
X54720029Y-94999474D01*
X54821338Y-94999987D01*
X54909484Y-95000597D01*
X54985410Y-95001312D01*
X55050057Y-95002140D01*
X55104367Y-95003089D01*
X55149280Y-95004167D01*
X55185740Y-95005383D01*
X55214687Y-95006745D01*
X55237063Y-95008261D01*
X55253809Y-95009938D01*
X55265868Y-95011786D01*
X55274180Y-95013813D01*
X55279687Y-95016025D01*
X55281537Y-95017108D01*
X55288549Y-95021271D01*
X55294996Y-95024805D01*
X55300900Y-95028635D01*
X55306286Y-95033682D01*
X55311178Y-95040871D01*
X55315598Y-95051123D01*
X55319572Y-95065364D01*
X55323121Y-95084514D01*
X55326270Y-95109499D01*
X55329042Y-95141240D01*
X55331461Y-95180662D01*
X55333551Y-95228686D01*
X55335335Y-95286237D01*
X55336837Y-95354237D01*
X55338080Y-95433610D01*
X55339089Y-95525279D01*
X55339885Y-95630166D01*
X55340494Y-95749196D01*
X55340939Y-95883290D01*
X55341243Y-96033373D01*
X55341430Y-96200367D01*
X55341524Y-96385196D01*
X55341548Y-96588783D01*
X55341525Y-96812050D01*
X55341480Y-97055922D01*
X55341437Y-97321321D01*
X55341432Y-97359704D01*
X55341389Y-97626682D01*
X55341318Y-97872002D01*
X55341213Y-98096583D01*
X55341066Y-98301345D01*
X55340869Y-98487206D01*
X55340616Y-98655088D01*
X55340300Y-98805908D01*
X55339913Y-98940587D01*
X55339447Y-99060044D01*
X55338897Y-99165199D01*
X55338253Y-99256971D01*
X55337511Y-99336279D01*
X55336661Y-99404043D01*
X55335697Y-99461182D01*
X55334611Y-99508617D01*
X55333397Y-99547266D01*
X55332047Y-99578049D01*
X55330555Y-99601885D01*
X55328911Y-99619694D01*
X55327111Y-99632395D01*
X55325145Y-99640908D01*
X55323477Y-99645266D01*
X55319906Y-99653728D01*
X55317270Y-99661497D01*
X55314634Y-99668602D01*
X55311062Y-99675073D01*
X55305621Y-99680939D01*
X55297375Y-99686229D01*
X55285390Y-99690974D01*
X55268731Y-99695202D01*
X55246463Y-99698943D01*
X55217652Y-99702227D01*
X55181363Y-99705083D01*
X55136661Y-99707540D01*
X55082611Y-99709629D01*
X55018279Y-99711378D01*
X54942730Y-99712817D01*
X54855030Y-99713976D01*
X54754243Y-99714883D01*
X54639434Y-99715569D01*
X54509670Y-99716063D01*
X54364015Y-99716395D01*
X54201535Y-99716593D01*
X54021295Y-99716687D01*
X53822360Y-99716708D01*
X53603796Y-99716685D01*
X53364668Y-99716646D01*
X53104040Y-99716622D01*
X53061889Y-99716622D01*
X52798992Y-99716636D01*
X52557732Y-99716661D01*
X52337165Y-99716671D01*
X52136352Y-99716642D01*
X51954349Y-99716548D01*
X51790216Y-99716362D01*
X51643011Y-99716059D01*
X51511792Y-99715614D01*
X51401867Y-99715034D01*
X51401867Y-99412197D01*
X51459711Y-99372407D01*
X51475479Y-99361236D01*
X51489441Y-99351166D01*
X51502784Y-99342138D01*
X51516693Y-99334097D01*
X51532356Y-99326986D01*
X51550958Y-99320747D01*
X51573686Y-99315325D01*
X51601727Y-99310662D01*
X51636267Y-99306701D01*
X51678492Y-99303385D01*
X51729589Y-99300659D01*
X51790744Y-99298464D01*
X51863144Y-99296745D01*
X51947975Y-99295444D01*
X52046422Y-99294505D01*
X52159674Y-99293870D01*
X52288916Y-99293484D01*
X52435334Y-99293288D01*
X52600116Y-99293227D01*
X52784447Y-99293243D01*
X52989513Y-99293280D01*
X53112133Y-99293289D01*
X53329082Y-99293265D01*
X53524642Y-99293231D01*
X53699999Y-99293243D01*
X53856341Y-99293358D01*
X53994857Y-99293630D01*
X54116734Y-99294118D01*
X54223160Y-99294876D01*
X54315322Y-99295962D01*
X54394409Y-99297431D01*
X54461608Y-99299340D01*
X54518107Y-99301744D01*
X54565093Y-99304701D01*
X54603755Y-99308266D01*
X54635280Y-99312495D01*
X54660855Y-99317446D01*
X54681670Y-99323173D01*
X54698911Y-99329733D01*
X54713765Y-99337183D01*
X54727422Y-99345579D01*
X54741069Y-99354976D01*
X54755893Y-99365432D01*
X54764783Y-99371523D01*
X54822400Y-99410296D01*
X54822400Y-98878732D01*
X54822365Y-98755483D01*
X54822215Y-98652987D01*
X54821878Y-98569420D01*
X54821286Y-98502956D01*
X54820367Y-98451771D01*
X54819051Y-98414041D01*
X54817269Y-98387940D01*
X54814951Y-98371644D01*
X54812026Y-98363328D01*
X54808424Y-98361168D01*
X54804075Y-98363339D01*
X54802645Y-98364535D01*
X54765573Y-98389685D01*
X54712772Y-98415583D01*
X54650770Y-98439192D01*
X54624357Y-98447461D01*
X54606416Y-98452078D01*
X54585355Y-98455979D01*
X54559089Y-98459248D01*
X54525532Y-98461966D01*
X54482599Y-98464215D01*
X54428204Y-98466077D01*
X54360262Y-98467636D01*
X54276688Y-98468972D01*
X54175395Y-98470169D01*
X54054300Y-98471308D01*
X54009600Y-98471685D01*
X53884449Y-98472702D01*
X53780082Y-98473460D01*
X53694707Y-98473903D01*
X53626533Y-98473970D01*
X53573765Y-98473605D01*
X53534614Y-98472748D01*
X53507285Y-98471341D01*
X53489986Y-98469325D01*
X53480926Y-98466643D01*
X53478312Y-98463236D01*
X53480351Y-98459044D01*
X53484667Y-98454571D01*
X53497602Y-98444216D01*
X53526676Y-98422158D01*
X53569759Y-98389957D01*
X53624718Y-98349174D01*
X53689423Y-98301370D01*
X53761742Y-98248105D01*
X53839544Y-98190940D01*
X53920698Y-98131437D01*
X54003072Y-98071155D01*
X54084536Y-98011655D01*
X54162957Y-97954498D01*
X54236204Y-97901245D01*
X54302147Y-97853457D01*
X54358654Y-97812693D01*
X54403593Y-97780516D01*
X54434834Y-97758485D01*
X54441466Y-97753917D01*
X54478369Y-97730996D01*
X54526359Y-97704188D01*
X54575897Y-97678789D01*
X54582577Y-97675568D01*
X54630772Y-97653890D01*
X54668334Y-97641304D01*
X54704160Y-97635574D01*
X54746200Y-97634456D01*
X54822400Y-97635090D01*
X54822400Y-96480651D01*
X54728669Y-96571815D01*
X54678775Y-96618612D01*
X54622295Y-96668899D01*
X54568026Y-96714944D01*
X54542673Y-96735369D01*
X54503128Y-96765807D01*
X54449916Y-96805862D01*
X54384667Y-96854361D01*
X54309011Y-96910135D01*
X54224577Y-96972011D01*
X54132994Y-97038819D01*
X54035892Y-97109387D01*
X53934901Y-97182545D01*
X53831650Y-97257121D01*
X53727768Y-97331944D01*
X53624885Y-97405843D01*
X53524631Y-97477646D01*
X53428636Y-97546184D01*
X53338527Y-97610284D01*
X53255936Y-97668775D01*
X53182492Y-97720486D01*
X53119824Y-97764247D01*
X53069561Y-97798885D01*
X53033334Y-97823230D01*
X53012771Y-97836111D01*
X53008668Y-97837869D01*
X52997342Y-97829910D01*
X52970162Y-97809115D01*
X52928829Y-97776847D01*
X52875044Y-97734470D01*
X52810506Y-97683347D01*
X52736918Y-97624841D01*
X52655978Y-97560314D01*
X52569388Y-97491131D01*
X52478848Y-97418653D01*
X52386060Y-97344246D01*
X52311702Y-97284517D01*
X52311702Y-96273511D01*
X52324659Y-96267602D01*
X52346908Y-96253272D01*
X52348391Y-96252225D01*
X52378544Y-96233438D01*
X52415375Y-96213791D01*
X52423511Y-96209892D01*
X52431940Y-96206356D01*
X52442059Y-96203230D01*
X52455260Y-96200486D01*
X52472938Y-96198092D01*
X52496484Y-96196019D01*
X52527293Y-96194235D01*
X52566757Y-96192712D01*
X52616269Y-96191419D01*
X52677223Y-96190326D01*
X52751011Y-96189403D01*
X52839028Y-96188619D01*
X52942665Y-96187945D01*
X53063316Y-96187350D01*
X53202374Y-96186805D01*
X53361232Y-96186279D01*
X53540089Y-96185745D01*
X53725207Y-96185206D01*
X53889145Y-96184772D01*
X54033303Y-96184509D01*
X54159079Y-96184484D01*
X54267871Y-96184765D01*
X54361077Y-96185419D01*
X54440097Y-96186514D01*
X54506328Y-96188118D01*
X54561170Y-96190297D01*
X54606021Y-96193119D01*
X54642278Y-96196651D01*
X54671341Y-96200961D01*
X54694609Y-96206117D01*
X54713479Y-96212185D01*
X54729351Y-96219233D01*
X54743622Y-96227329D01*
X54757691Y-96236540D01*
X54770158Y-96245040D01*
X54796452Y-96262176D01*
X54814037Y-96272322D01*
X54817257Y-96273511D01*
X54818334Y-96262604D01*
X54819335Y-96231411D01*
X54820235Y-96182223D01*
X54821010Y-96117333D01*
X54821637Y-96039030D01*
X54822091Y-95949607D01*
X54822349Y-95851356D01*
X54822400Y-95782445D01*
X54822180Y-95677452D01*
X54821548Y-95580610D01*
X54820549Y-95494107D01*
X54819227Y-95420132D01*
X54817626Y-95360874D01*
X54815791Y-95318520D01*
X54813765Y-95295260D01*
X54812493Y-95291378D01*
X54797591Y-95299076D01*
X54789560Y-95307074D01*
X54772434Y-95320246D01*
X54742183Y-95337485D01*
X54717622Y-95349407D01*
X54658711Y-95376045D01*
X53481845Y-95379120D01*
X52304978Y-95382195D01*
X52304978Y-95827853D01*
X52305142Y-95925670D01*
X52305611Y-96016064D01*
X52306347Y-96096630D01*
X52307316Y-96164962D01*
X52308480Y-96218656D01*
X52309803Y-96255305D01*
X52311249Y-96272504D01*
X52311702Y-96273511D01*
X52311702Y-97284517D01*
X52292722Y-97269270D01*
X52200537Y-97195090D01*
X52111204Y-97123069D01*
X52026424Y-97054569D01*
X51947898Y-96990955D01*
X51877326Y-96933588D01*
X51816409Y-96883833D01*
X51766847Y-96843052D01*
X51746178Y-96825888D01*
X51645516Y-96739596D01*
X51562259Y-96662997D01*
X51494438Y-96594183D01*
X51440089Y-96531248D01*
X51432722Y-96521867D01*
X51402117Y-96482356D01*
X51401867Y-97614116D01*
X51449844Y-97608827D01*
X51507188Y-97612130D01*
X51575463Y-97633661D01*
X51655212Y-97673635D01*
X51727495Y-97718943D01*
X51750140Y-97735161D01*
X51787696Y-97763214D01*
X51838021Y-97801430D01*
X51898973Y-97848137D01*
X51968411Y-97901661D01*
X52044194Y-97960331D01*
X52124180Y-98022475D01*
X52206228Y-98086421D01*
X52288196Y-98150495D01*
X52367943Y-98213027D01*
X52443327Y-98272343D01*
X52512207Y-98326771D01*
X52572442Y-98374639D01*
X52621889Y-98414275D01*
X52658408Y-98444006D01*
X52679858Y-98462161D01*
X52683156Y-98465220D01*
X52675149Y-98468079D01*
X52644855Y-98470293D01*
X52592556Y-98471857D01*
X52518531Y-98472767D01*
X52423063Y-98473020D01*
X52306434Y-98472613D01*
X52186445Y-98471704D01*
X52054333Y-98470382D01*
X51942594Y-98468857D01*
X51849025Y-98466881D01*
X51771419Y-98464206D01*
X51707574Y-98460582D01*
X51655283Y-98455761D01*
X51612344Y-98449494D01*
X51576551Y-98441532D01*
X51545700Y-98431627D01*
X51517586Y-98419531D01*
X51490005Y-98404993D01*
X51464966Y-98390311D01*
X51401867Y-98352314D01*
X51401867Y-99412197D01*
X51401867Y-99715034D01*
X51395617Y-99715001D01*
X51293544Y-99714195D01*
X51204633Y-99713170D01*
X51127941Y-99711900D01*
X51062527Y-99710360D01*
X51007449Y-99708524D01*
X50961765Y-99706367D01*
X50924534Y-99703863D01*
X50894813Y-99700987D01*
X50871662Y-99697713D01*
X50854139Y-99694015D01*
X50841301Y-99689869D01*
X50832208Y-99685247D01*
X50825918Y-99680126D01*
X50821488Y-99674478D01*
X50817978Y-99668279D01*
X50814445Y-99661504D01*
X50810876Y-99655508D01*
X50808300Y-99650275D01*
X50805972Y-99642099D01*
X50803878Y-99629886D01*
X50802007Y-99612541D01*
X50800347Y-99588969D01*
X50798884Y-99558077D01*
X50797608Y-99518768D01*
X50796504Y-99469950D01*
X50795561Y-99410527D01*
X50794767Y-99339404D01*
X50794109Y-99255488D01*
X50793575Y-99157683D01*
X50793153Y-99044894D01*
X50792829Y-98916029D01*
X50792592Y-98769991D01*
X50792430Y-98605686D01*
X50792330Y-98422020D01*
X50792280Y-98217897D01*
X50792267Y-98006753D01*
X50792267Y-96386400D01*
X50889054Y-96386400D01*
G36*
X51349071Y-93111571D02*
G01*
X51370245Y-92951430D01*
X51410385Y-92787490D01*
X51469889Y-92617687D01*
X51549154Y-92439957D01*
X51554699Y-92428690D01*
X51582725Y-92370995D01*
X51606802Y-92319448D01*
X51625249Y-92277809D01*
X51636386Y-92249838D01*
X51638933Y-92240267D01*
X51643941Y-92221050D01*
X51648147Y-92216439D01*
X51658580Y-92221542D01*
X51684868Y-92237582D01*
X51724257Y-92262712D01*
X51773991Y-92295086D01*
X51831315Y-92332857D01*
X51893476Y-92374178D01*
X51957718Y-92417202D01*
X52021285Y-92460083D01*
X52081425Y-92500974D01*
X52135380Y-92538029D01*
X52180397Y-92569400D01*
X52213721Y-92593241D01*
X52232597Y-92607706D01*
X52234787Y-92609691D01*
X52230138Y-92619809D01*
X52212962Y-92642150D01*
X52186440Y-92672720D01*
X52171964Y-92688464D01*
X52096682Y-92784953D01*
X52041241Y-92891664D01*
X52006141Y-93007168D01*
X51991880Y-93130038D01*
X51993051Y-93199439D01*
X52010212Y-93320577D01*
X52046094Y-93429795D01*
X52100959Y-93527418D01*
X52175070Y-93613772D01*
X52268688Y-93689185D01*
X52382076Y-93753982D01*
X52468667Y-93791399D01*
X52604366Y-93835252D01*
X52751850Y-93867572D01*
X52907314Y-93888443D01*
X53066956Y-93897949D01*
X53226973Y-93896173D01*
X53383561Y-93883197D01*
X53532918Y-93859106D01*
X53671240Y-93823982D01*
X53794724Y-93777908D01*
X53828978Y-93761627D01*
X53943064Y-93693380D01*
X54039557Y-93612921D01*
X54117670Y-93521430D01*
X54176617Y-93420089D01*
X54215612Y-93310080D01*
X54233868Y-93192585D01*
X54235211Y-93151117D01*
X54224290Y-93029559D01*
X54191474Y-92909122D01*
X54137439Y-92791334D01*
X54062865Y-92677723D01*
X53984539Y-92586315D01*
X53940008Y-92539785D01*
X54237271Y-92358517D01*
X54311433Y-92313420D01*
X54379646Y-92272181D01*
X54439459Y-92236265D01*
X54488420Y-92207134D01*
X54524079Y-92186250D01*
X54543984Y-92175076D01*
X54547079Y-92173625D01*
X54556718Y-92181854D01*
X54573999Y-92207433D01*
X54597283Y-92247127D01*
X54624934Y-92297703D01*
X54655315Y-92355926D01*
X54686790Y-92418563D01*
X54717722Y-92482379D01*
X54746473Y-92544140D01*
X54771408Y-92600612D01*
X54790889Y-92648562D01*
X54799318Y-92672014D01*
X54837133Y-92805779D01*
X54862136Y-92943673D01*
X54875140Y-93091378D01*
X54877468Y-93218167D01*
X54876373Y-93286122D01*
X54874275Y-93351723D01*
X54871434Y-93409153D01*
X54868106Y-93452597D01*
X54866422Y-93466702D01*
X54837587Y-93605716D01*
X54792468Y-93747243D01*
X54733750Y-93884725D01*
X54664120Y-94011606D01*
X54611441Y-94089111D01*
X54503239Y-94216519D01*
X54376671Y-94334822D01*
X54234866Y-94441828D01*
X54080951Y-94535348D01*
X53918053Y-94613190D01*
X53800756Y-94657044D01*
X53617128Y-94707292D01*
X53422581Y-94740791D01*
X53221325Y-94757551D01*
X53017568Y-94757584D01*
X52815521Y-94740899D01*
X52619392Y-94707507D01*
X52433391Y-94657420D01*
X52421803Y-94653603D01*
X52259750Y-94590719D01*
X52111832Y-94513972D01*
X51973865Y-94420758D01*
X51841661Y-94308473D01*
X51796399Y-94264608D01*
X51672457Y-94128466D01*
X51569915Y-93988509D01*
X51487656Y-93842589D01*
X51424564Y-93688558D01*
X51379523Y-93524268D01*
X51362033Y-93428711D01*
X51346466Y-93269977D01*
X51349071Y-93111571D01*
G37*
X51349071Y-93111571D02*
X51370245Y-92951430D01*
X51410385Y-92787490D01*
X51469889Y-92617687D01*
X51549154Y-92439957D01*
X51554699Y-92428690D01*
X51582725Y-92370995D01*
X51606802Y-92319448D01*
X51625249Y-92277809D01*
X51636386Y-92249838D01*
X51638933Y-92240267D01*
X51643941Y-92221050D01*
X51648147Y-92216439D01*
X51658580Y-92221542D01*
X51684868Y-92237582D01*
X51724257Y-92262712D01*
X51773991Y-92295086D01*
X51831315Y-92332857D01*
X51893476Y-92374178D01*
X51957718Y-92417202D01*
X52021285Y-92460083D01*
X52081425Y-92500974D01*
X52135380Y-92538029D01*
X52180397Y-92569400D01*
X52213721Y-92593241D01*
X52232597Y-92607706D01*
X52234787Y-92609691D01*
X52230138Y-92619809D01*
X52212962Y-92642150D01*
X52186440Y-92672720D01*
X52171964Y-92688464D01*
X52096682Y-92784953D01*
X52041241Y-92891664D01*
X52006141Y-93007168D01*
X51991880Y-93130038D01*
X51993051Y-93199439D01*
X52010212Y-93320577D01*
X52046094Y-93429795D01*
X52100959Y-93527418D01*
X52175070Y-93613772D01*
X52268688Y-93689185D01*
X52382076Y-93753982D01*
X52468667Y-93791399D01*
X52604366Y-93835252D01*
X52751850Y-93867572D01*
X52907314Y-93888443D01*
X53066956Y-93897949D01*
X53226973Y-93896173D01*
X53383561Y-93883197D01*
X53532918Y-93859106D01*
X53671240Y-93823982D01*
X53794724Y-93777908D01*
X53828978Y-93761627D01*
X53943064Y-93693380D01*
X54039557Y-93612921D01*
X54117670Y-93521430D01*
X54176617Y-93420089D01*
X54215612Y-93310080D01*
X54233868Y-93192585D01*
X54235211Y-93151117D01*
X54224290Y-93029559D01*
X54191474Y-92909122D01*
X54137439Y-92791334D01*
X54062865Y-92677723D01*
X53984539Y-92586315D01*
X53940008Y-92539785D01*
X54237271Y-92358517D01*
X54311433Y-92313420D01*
X54379646Y-92272181D01*
X54439459Y-92236265D01*
X54488420Y-92207134D01*
X54524079Y-92186250D01*
X54543984Y-92175076D01*
X54547079Y-92173625D01*
X54556718Y-92181854D01*
X54573999Y-92207433D01*
X54597283Y-92247127D01*
X54624934Y-92297703D01*
X54655315Y-92355926D01*
X54686790Y-92418563D01*
X54717722Y-92482379D01*
X54746473Y-92544140D01*
X54771408Y-92600612D01*
X54790889Y-92648562D01*
X54799318Y-92672014D01*
X54837133Y-92805779D01*
X54862136Y-92943673D01*
X54875140Y-93091378D01*
X54877468Y-93218167D01*
X54876373Y-93286122D01*
X54874275Y-93351723D01*
X54871434Y-93409153D01*
X54868106Y-93452597D01*
X54866422Y-93466702D01*
X54837587Y-93605716D01*
X54792468Y-93747243D01*
X54733750Y-93884725D01*
X54664120Y-94011606D01*
X54611441Y-94089111D01*
X54503239Y-94216519D01*
X54376671Y-94334822D01*
X54234866Y-94441828D01*
X54080951Y-94535348D01*
X53918053Y-94613190D01*
X53800756Y-94657044D01*
X53617128Y-94707292D01*
X53422581Y-94740791D01*
X53221325Y-94757551D01*
X53017568Y-94757584D01*
X52815521Y-94740899D01*
X52619392Y-94707507D01*
X52433391Y-94657420D01*
X52421803Y-94653603D01*
X52259750Y-94590719D01*
X52111832Y-94513972D01*
X51973865Y-94420758D01*
X51841661Y-94308473D01*
X51796399Y-94264608D01*
X51672457Y-94128466D01*
X51569915Y-93988509D01*
X51487656Y-93842589D01*
X51424564Y-93688558D01*
X51379523Y-93524268D01*
X51362033Y-93428711D01*
X51346466Y-93269977D01*
X51349071Y-93111571D01*
G36*
X52266552Y-90766426D02*
G01*
X52286567Y-90614508D01*
X52320202Y-90479244D01*
X52367725Y-90359761D01*
X52429405Y-90255185D01*
X52492965Y-90177576D01*
X52567099Y-90108735D01*
X52646871Y-90054994D01*
X52739091Y-90012090D01*
X52782161Y-89996616D01*
X52821142Y-89983756D01*
X52857289Y-89972554D01*
X52892434Y-89962880D01*
X52928410Y-89954604D01*
X52967050Y-89947597D01*
X53010185Y-89941728D01*
X53059649Y-89936869D01*
X53117273Y-89932890D01*
X53184891Y-89929660D01*
X53264334Y-89927051D01*
X53357436Y-89924933D01*
X53466027Y-89923176D01*
X53591942Y-89921651D01*
X53737012Y-89920228D01*
X53879778Y-89918975D01*
X54035968Y-89917649D01*
X54171239Y-89916444D01*
X54287246Y-89915234D01*
X54385645Y-89913894D01*
X54468093Y-89912300D01*
X54536246Y-89910325D01*
X54591760Y-89907844D01*
X54636292Y-89904731D01*
X54671498Y-89900862D01*
X54699034Y-89896111D01*
X54720556Y-89890352D01*
X54737722Y-89883461D01*
X54752186Y-89875311D01*
X54765606Y-89865777D01*
X54779638Y-89854734D01*
X54785071Y-89850434D01*
X54807910Y-89834614D01*
X54823463Y-89827578D01*
X54823922Y-89827556D01*
X54826121Y-89838433D01*
X54828147Y-89869418D01*
X54829942Y-89918043D01*
X54831451Y-89981837D01*
X54832616Y-90058331D01*
X54833380Y-90145056D01*
X54833686Y-90239543D01*
X54833689Y-90250450D01*
X54833689Y-90673343D01*
X54737622Y-90676605D01*
X54641556Y-90679867D01*
X54692543Y-90741956D01*
X54760057Y-90839286D01*
X54814749Y-90949187D01*
X54844978Y-91035651D01*
X54859666Y-91104722D01*
X54869659Y-91188075D01*
X54874646Y-91277841D01*
X54874313Y-91366155D01*
X54868351Y-91445149D01*
X54862638Y-91481378D01*
X54824776Y-91621397D01*
X54769932Y-91747822D01*
X54698924Y-91859740D01*
X54612568Y-91956238D01*
X54511679Y-92036400D01*
X54397076Y-92099313D01*
X54270984Y-92143688D01*
X54214401Y-92156022D01*
X54152202Y-92163632D01*
X54077363Y-92167261D01*
X54043467Y-92167755D01*
X54040282Y-92167690D01*
X54040282Y-91407752D01*
X54115333Y-91398459D01*
X54179160Y-91370272D01*
X54234798Y-91321803D01*
X54239211Y-91316746D01*
X54274037Y-91268452D01*
X54296620Y-91216743D01*
X54308540Y-91156011D01*
X54311383Y-91080648D01*
X54310978Y-91062541D01*
X54308325Y-91008722D01*
X54302909Y-90968692D01*
X54292745Y-90933676D01*
X54275850Y-90894897D01*
X54270672Y-90884255D01*
X54234844Y-90823604D01*
X54192212Y-90776785D01*
X54176973Y-90764048D01*
X54120462Y-90719378D01*
X53924586Y-90719378D01*
X53845939Y-90719914D01*
X53787988Y-90721604D01*
X53748875Y-90724572D01*
X53726741Y-90728943D01*
X53720274Y-90733028D01*
X53717111Y-90748953D01*
X53714488Y-90782736D01*
X53712655Y-90829660D01*
X53711857Y-90885007D01*
X53711842Y-90893894D01*
X53717096Y-91014670D01*
X53733263Y-91117340D01*
X53760961Y-91203894D01*
X53800808Y-91276319D01*
X53847758Y-91331249D01*
X53905645Y-91375796D01*
X53968693Y-91400520D01*
X54040282Y-91407752D01*
X54040282Y-92167690D01*
X53949712Y-92165822D01*
X53870812Y-92157478D01*
X53799590Y-92141232D01*
X53728864Y-92115595D01*
X53676493Y-92091599D01*
X53581196Y-92032980D01*
X53493170Y-91954883D01*
X53414017Y-91859685D01*
X53345340Y-91749762D01*
X53288741Y-91627490D01*
X53245821Y-91495245D01*
X53230882Y-91430578D01*
X53208777Y-91294396D01*
X53194194Y-91145951D01*
X53187813Y-90994495D01*
X53189445Y-90867936D01*
X53196224Y-90706050D01*
X53137245Y-90713470D01*
X53038092Y-90732762D01*
X52957372Y-90763896D01*
X52894466Y-90807731D01*
X52848756Y-90865129D01*
X52819622Y-90936952D01*
X52806447Y-91024059D01*
X52808611Y-91127314D01*
X52812612Y-91165289D01*
X52837780Y-91306480D01*
X52878814Y-91443293D01*
X52916815Y-91537822D01*
X52936190Y-91582982D01*
X52951760Y-91621415D01*
X52961405Y-91647766D01*
X52963452Y-91655454D01*
X52954374Y-91665198D01*
X52925405Y-91681917D01*
X52876217Y-91705768D01*
X52806484Y-91736907D01*
X52715879Y-91775493D01*
X52700089Y-91782090D01*
X52627772Y-91812147D01*
X52562425Y-91839126D01*
X52506906Y-91861864D01*
X52464072Y-91879194D01*
X52436781Y-91889952D01*
X52427942Y-91893059D01*
X52423187Y-91883060D01*
X52417910Y-91856783D01*
X52414231Y-91828511D01*
X52409474Y-91798354D01*
X52400028Y-91750567D01*
X52386820Y-91689388D01*
X52370776Y-91619054D01*
X52352820Y-91543806D01*
X52345797Y-91515245D01*
X52320209Y-91410184D01*
X52300147Y-91322520D01*
X52284969Y-91247932D01*
X52274035Y-91182097D01*
X52266704Y-91120693D01*
X52262335Y-91059398D01*
X52260287Y-90993890D01*
X52259889Y-90935872D01*
X52266552Y-90766426D01*
G37*
X52266552Y-90766426D02*
X52286567Y-90614508D01*
X52320202Y-90479244D01*
X52367725Y-90359761D01*
X52429405Y-90255185D01*
X52492965Y-90177576D01*
X52567099Y-90108735D01*
X52646871Y-90054994D01*
X52739091Y-90012090D01*
X52782161Y-89996616D01*
X52821142Y-89983756D01*
X52857289Y-89972554D01*
X52892434Y-89962880D01*
X52928410Y-89954604D01*
X52967050Y-89947597D01*
X53010185Y-89941728D01*
X53059649Y-89936869D01*
X53117273Y-89932890D01*
X53184891Y-89929660D01*
X53264334Y-89927051D01*
X53357436Y-89924933D01*
X53466027Y-89923176D01*
X53591942Y-89921651D01*
X53737012Y-89920228D01*
X53879778Y-89918975D01*
X54035968Y-89917649D01*
X54171239Y-89916444D01*
X54287246Y-89915234D01*
X54385645Y-89913894D01*
X54468093Y-89912300D01*
X54536246Y-89910325D01*
X54591760Y-89907844D01*
X54636292Y-89904731D01*
X54671498Y-89900862D01*
X54699034Y-89896111D01*
X54720556Y-89890352D01*
X54737722Y-89883461D01*
X54752186Y-89875311D01*
X54765606Y-89865777D01*
X54779638Y-89854734D01*
X54785071Y-89850434D01*
X54807910Y-89834614D01*
X54823463Y-89827578D01*
X54823922Y-89827556D01*
X54826121Y-89838433D01*
X54828147Y-89869418D01*
X54829942Y-89918043D01*
X54831451Y-89981837D01*
X54832616Y-90058331D01*
X54833380Y-90145056D01*
X54833686Y-90239543D01*
X54833689Y-90250450D01*
X54833689Y-90673343D01*
X54737622Y-90676605D01*
X54641556Y-90679867D01*
X54692543Y-90741956D01*
X54760057Y-90839286D01*
X54814749Y-90949187D01*
X54844978Y-91035651D01*
X54859666Y-91104722D01*
X54869659Y-91188075D01*
X54874646Y-91277841D01*
X54874313Y-91366155D01*
X54868351Y-91445149D01*
X54862638Y-91481378D01*
X54824776Y-91621397D01*
X54769932Y-91747822D01*
X54698924Y-91859740D01*
X54612568Y-91956238D01*
X54511679Y-92036400D01*
X54397076Y-92099313D01*
X54270984Y-92143688D01*
X54214401Y-92156022D01*
X54152202Y-92163632D01*
X54077363Y-92167261D01*
X54043467Y-92167755D01*
X54040282Y-92167690D01*
X54040282Y-91407752D01*
X54115333Y-91398459D01*
X54179160Y-91370272D01*
X54234798Y-91321803D01*
X54239211Y-91316746D01*
X54274037Y-91268452D01*
X54296620Y-91216743D01*
X54308540Y-91156011D01*
X54311383Y-91080648D01*
X54310978Y-91062541D01*
X54308325Y-91008722D01*
X54302909Y-90968692D01*
X54292745Y-90933676D01*
X54275850Y-90894897D01*
X54270672Y-90884255D01*
X54234844Y-90823604D01*
X54192212Y-90776785D01*
X54176973Y-90764048D01*
X54120462Y-90719378D01*
X53924586Y-90719378D01*
X53845939Y-90719914D01*
X53787988Y-90721604D01*
X53748875Y-90724572D01*
X53726741Y-90728943D01*
X53720274Y-90733028D01*
X53717111Y-90748953D01*
X53714488Y-90782736D01*
X53712655Y-90829660D01*
X53711857Y-90885007D01*
X53711842Y-90893894D01*
X53717096Y-91014670D01*
X53733263Y-91117340D01*
X53760961Y-91203894D01*
X53800808Y-91276319D01*
X53847758Y-91331249D01*
X53905645Y-91375796D01*
X53968693Y-91400520D01*
X54040282Y-91407752D01*
X54040282Y-92167690D01*
X53949712Y-92165822D01*
X53870812Y-92157478D01*
X53799590Y-92141232D01*
X53728864Y-92115595D01*
X53676493Y-92091599D01*
X53581196Y-92032980D01*
X53493170Y-91954883D01*
X53414017Y-91859685D01*
X53345340Y-91749762D01*
X53288741Y-91627490D01*
X53245821Y-91495245D01*
X53230882Y-91430578D01*
X53208777Y-91294396D01*
X53194194Y-91145951D01*
X53187813Y-90994495D01*
X53189445Y-90867936D01*
X53196224Y-90706050D01*
X53137245Y-90713470D01*
X53038092Y-90732762D01*
X52957372Y-90763896D01*
X52894466Y-90807731D01*
X52848756Y-90865129D01*
X52819622Y-90936952D01*
X52806447Y-91024059D01*
X52808611Y-91127314D01*
X52812612Y-91165289D01*
X52837780Y-91306480D01*
X52878814Y-91443293D01*
X52916815Y-91537822D01*
X52936190Y-91582982D01*
X52951760Y-91621415D01*
X52961405Y-91647766D01*
X52963452Y-91655454D01*
X52954374Y-91665198D01*
X52925405Y-91681917D01*
X52876217Y-91705768D01*
X52806484Y-91736907D01*
X52715879Y-91775493D01*
X52700089Y-91782090D01*
X52627772Y-91812147D01*
X52562425Y-91839126D01*
X52506906Y-91861864D01*
X52464072Y-91879194D01*
X52436781Y-91889952D01*
X52427942Y-91893059D01*
X52423187Y-91883060D01*
X52417910Y-91856783D01*
X52414231Y-91828511D01*
X52409474Y-91798354D01*
X52400028Y-91750567D01*
X52386820Y-91689388D01*
X52370776Y-91619054D01*
X52352820Y-91543806D01*
X52345797Y-91515245D01*
X52320209Y-91410184D01*
X52300147Y-91322520D01*
X52284969Y-91247932D01*
X52274035Y-91182097D01*
X52266704Y-91120693D01*
X52262335Y-91059398D01*
X52260287Y-90993890D01*
X52259889Y-90935872D01*
X52266552Y-90766426D01*
G36*
X52872245Y-87253493D02*
G01*
X53106662Y-87253474D01*
X53319603Y-87253448D01*
X53512168Y-87253375D01*
X53685459Y-87253218D01*
X53840576Y-87252936D01*
X53978620Y-87252491D01*
X54100692Y-87251844D01*
X54207894Y-87250955D01*
X54301326Y-87249787D01*
X54382090Y-87248299D01*
X54451286Y-87246454D01*
X54510015Y-87244211D01*
X54559379Y-87241531D01*
X54600478Y-87238377D01*
X54634413Y-87234708D01*
X54662286Y-87230487D01*
X54685198Y-87225673D01*
X54704249Y-87220227D01*
X54720540Y-87214112D01*
X54735173Y-87207288D01*
X54749249Y-87199715D01*
X54763868Y-87191355D01*
X54772974Y-87186161D01*
X54833689Y-87151896D01*
X54833689Y-88010045D01*
X54737733Y-88010045D01*
X54694370Y-88010776D01*
X54661205Y-88012728D01*
X54643424Y-88015537D01*
X54641778Y-88016779D01*
X54648662Y-88028201D01*
X54666505Y-88050916D01*
X54685879Y-88073615D01*
X54726614Y-88128200D01*
X54767617Y-88197679D01*
X54805123Y-88274730D01*
X54835364Y-88352035D01*
X54845012Y-88382887D01*
X54859578Y-88451384D01*
X54869539Y-88534236D01*
X54874583Y-88623629D01*
X54874396Y-88711752D01*
X54868666Y-88790793D01*
X54862858Y-88828489D01*
X54824797Y-88966586D01*
X54767073Y-89093887D01*
X54690211Y-89209708D01*
X54594739Y-89313363D01*
X54481179Y-89404167D01*
X54370381Y-89470969D01*
X54253625Y-89525836D01*
X54134276Y-89567837D01*
X54008283Y-89597833D01*
X53871594Y-89616689D01*
X53720158Y-89625268D01*
X53642711Y-89625994D01*
X53585934Y-89623900D01*
X53585934Y-88794783D01*
X53679002Y-88794576D01*
X53766692Y-88791663D01*
X53843772Y-88786000D01*
X53905009Y-88777545D01*
X53917350Y-88774962D01*
X54024633Y-88743160D01*
X54111658Y-88701502D01*
X54178642Y-88649637D01*
X54225805Y-88587219D01*
X54253365Y-88513900D01*
X54261541Y-88429331D01*
X54250551Y-88333165D01*
X54234829Y-88269689D01*
X54216639Y-88220546D01*
X54190791Y-88166417D01*
X54167089Y-88125756D01*
X54120721Y-88055200D01*
X52970530Y-88055200D01*
X52926962Y-88122608D01*
X52886040Y-88201133D01*
X52859389Y-88285319D01*
X52847465Y-88370443D01*
X52850722Y-88451784D01*
X52869615Y-88524620D01*
X52885184Y-88556574D01*
X52928181Y-88614499D01*
X52984953Y-88663456D01*
X53057575Y-88704610D01*
X53148121Y-88739126D01*
X53258666Y-88768167D01*
X53264533Y-88769448D01*
X53326788Y-88779619D01*
X53404594Y-88787261D01*
X53492720Y-88792330D01*
X53585934Y-88794783D01*
X53585934Y-89623900D01*
X53429895Y-89618143D01*
X53234059Y-89596198D01*
X53055332Y-89560214D01*
X52893845Y-89510241D01*
X52749726Y-89446332D01*
X52623106Y-89368538D01*
X52514115Y-89276911D01*
X52422883Y-89171503D01*
X52391932Y-89126338D01*
X52335785Y-89025389D01*
X52296174Y-88922099D01*
X52272014Y-88812011D01*
X52262219Y-88690670D01*
X52263265Y-88598164D01*
X52274231Y-88468510D01*
X52296046Y-88355916D01*
X52329714Y-88257125D01*
X52376236Y-88168879D01*
X52410448Y-88120014D01*
X52432362Y-88090647D01*
X52447333Y-88068957D01*
X52451733Y-88060747D01*
X52440904Y-88059132D01*
X52410251Y-88057841D01*
X52362526Y-88056862D01*
X52300479Y-88056183D01*
X52226862Y-88055790D01*
X52144427Y-88055670D01*
X52055925Y-88055812D01*
X51964107Y-88056203D01*
X51871724Y-88056829D01*
X51781528Y-88057680D01*
X51696271Y-88058740D01*
X51618703Y-88059999D01*
X51551576Y-88061444D01*
X51497641Y-88063062D01*
X51459650Y-88064839D01*
X51452667Y-88065331D01*
X51382251Y-88072908D01*
X51327102Y-88084469D01*
X51279981Y-88102208D01*
X51233647Y-88128318D01*
X51224067Y-88134585D01*
X51187378Y-88159017D01*
X51187378Y-87253689D01*
X52872245Y-87253493D01*
G37*
X52872245Y-87253493D02*
X53106662Y-87253474D01*
X53319603Y-87253448D01*
X53512168Y-87253375D01*
X53685459Y-87253218D01*
X53840576Y-87252936D01*
X53978620Y-87252491D01*
X54100692Y-87251844D01*
X54207894Y-87250955D01*
X54301326Y-87249787D01*
X54382090Y-87248299D01*
X54451286Y-87246454D01*
X54510015Y-87244211D01*
X54559379Y-87241531D01*
X54600478Y-87238377D01*
X54634413Y-87234708D01*
X54662286Y-87230487D01*
X54685198Y-87225673D01*
X54704249Y-87220227D01*
X54720540Y-87214112D01*
X54735173Y-87207288D01*
X54749249Y-87199715D01*
X54763868Y-87191355D01*
X54772974Y-87186161D01*
X54833689Y-87151896D01*
X54833689Y-88010045D01*
X54737733Y-88010045D01*
X54694370Y-88010776D01*
X54661205Y-88012728D01*
X54643424Y-88015537D01*
X54641778Y-88016779D01*
X54648662Y-88028201D01*
X54666505Y-88050916D01*
X54685879Y-88073615D01*
X54726614Y-88128200D01*
X54767617Y-88197679D01*
X54805123Y-88274730D01*
X54835364Y-88352035D01*
X54845012Y-88382887D01*
X54859578Y-88451384D01*
X54869539Y-88534236D01*
X54874583Y-88623629D01*
X54874396Y-88711752D01*
X54868666Y-88790793D01*
X54862858Y-88828489D01*
X54824797Y-88966586D01*
X54767073Y-89093887D01*
X54690211Y-89209708D01*
X54594739Y-89313363D01*
X54481179Y-89404167D01*
X54370381Y-89470969D01*
X54253625Y-89525836D01*
X54134276Y-89567837D01*
X54008283Y-89597833D01*
X53871594Y-89616689D01*
X53720158Y-89625268D01*
X53642711Y-89625994D01*
X53585934Y-89623900D01*
X53585934Y-88794783D01*
X53679002Y-88794576D01*
X53766692Y-88791663D01*
X53843772Y-88786000D01*
X53905009Y-88777545D01*
X53917350Y-88774962D01*
X54024633Y-88743160D01*
X54111658Y-88701502D01*
X54178642Y-88649637D01*
X54225805Y-88587219D01*
X54253365Y-88513900D01*
X54261541Y-88429331D01*
X54250551Y-88333165D01*
X54234829Y-88269689D01*
X54216639Y-88220546D01*
X54190791Y-88166417D01*
X54167089Y-88125756D01*
X54120721Y-88055200D01*
X52970530Y-88055200D01*
X52926962Y-88122608D01*
X52886040Y-88201133D01*
X52859389Y-88285319D01*
X52847465Y-88370443D01*
X52850722Y-88451784D01*
X52869615Y-88524620D01*
X52885184Y-88556574D01*
X52928181Y-88614499D01*
X52984953Y-88663456D01*
X53057575Y-88704610D01*
X53148121Y-88739126D01*
X53258666Y-88768167D01*
X53264533Y-88769448D01*
X53326788Y-88779619D01*
X53404594Y-88787261D01*
X53492720Y-88792330D01*
X53585934Y-88794783D01*
X53585934Y-89623900D01*
X53429895Y-89618143D01*
X53234059Y-89596198D01*
X53055332Y-89560214D01*
X52893845Y-89510241D01*
X52749726Y-89446332D01*
X52623106Y-89368538D01*
X52514115Y-89276911D01*
X52422883Y-89171503D01*
X52391932Y-89126338D01*
X52335785Y-89025389D01*
X52296174Y-88922099D01*
X52272014Y-88812011D01*
X52262219Y-88690670D01*
X52263265Y-88598164D01*
X52274231Y-88468510D01*
X52296046Y-88355916D01*
X52329714Y-88257125D01*
X52376236Y-88168879D01*
X52410448Y-88120014D01*
X52432362Y-88090647D01*
X52447333Y-88068957D01*
X52451733Y-88060747D01*
X52440904Y-88059132D01*
X52410251Y-88057841D01*
X52362526Y-88056862D01*
X52300479Y-88056183D01*
X52226862Y-88055790D01*
X52144427Y-88055670D01*
X52055925Y-88055812D01*
X51964107Y-88056203D01*
X51871724Y-88056829D01*
X51781528Y-88057680D01*
X51696271Y-88058740D01*
X51618703Y-88059999D01*
X51551576Y-88061444D01*
X51497641Y-88063062D01*
X51459650Y-88064839D01*
X51452667Y-88065331D01*
X51382251Y-88072908D01*
X51327102Y-88084469D01*
X51279981Y-88102208D01*
X51233647Y-88128318D01*
X51224067Y-88134585D01*
X51187378Y-88159017D01*
X51187378Y-87253689D01*
X52872245Y-87253493D01*
G36*
X50426571Y-95713043D02*
G01*
X50450809Y-95616768D01*
X50493641Y-95530184D01*
X50553419Y-95455373D01*
X50628494Y-95394418D01*
X50717220Y-95349399D01*
X50813530Y-95323136D01*
X50910795Y-95317286D01*
X51004654Y-95332140D01*
X51092511Y-95365840D01*
X51171770Y-95416528D01*
X51239836Y-95482345D01*
X51294112Y-95561434D01*
X51332002Y-95651934D01*
X51344426Y-95703200D01*
X51351947Y-95747698D01*
X51354919Y-95781999D01*
X51353094Y-95814960D01*
X51346225Y-95855434D01*
X51339250Y-95888531D01*
X51307741Y-95981947D01*
X51256617Y-96065619D01*
X51187429Y-96137665D01*
X51101728Y-96196200D01*
X51074489Y-96210148D01*
X51038122Y-96226586D01*
X51007582Y-96236894D01*
X50975450Y-96242460D01*
X50934307Y-96244669D01*
X50888222Y-96244948D01*
X50803865Y-96240861D01*
X50734586Y-96227446D01*
X50673961Y-96202256D01*
X50615567Y-96162846D01*
X50571302Y-96124298D01*
X50505484Y-96052406D01*
X50460053Y-95977313D01*
X50432850Y-95894562D01*
X50422576Y-95816928D01*
X50426571Y-95713043D01*
G37*
X50426571Y-95713043D02*
X50450809Y-95616768D01*
X50493641Y-95530184D01*
X50553419Y-95455373D01*
X50628494Y-95394418D01*
X50717220Y-95349399D01*
X50813530Y-95323136D01*
X50910795Y-95317286D01*
X51004654Y-95332140D01*
X51092511Y-95365840D01*
X51171770Y-95416528D01*
X51239836Y-95482345D01*
X51294112Y-95561434D01*
X51332002Y-95651934D01*
X51344426Y-95703200D01*
X51351947Y-95747698D01*
X51354919Y-95781999D01*
X51353094Y-95814960D01*
X51346225Y-95855434D01*
X51339250Y-95888531D01*
X51307741Y-95981947D01*
X51256617Y-96065619D01*
X51187429Y-96137665D01*
X51101728Y-96196200D01*
X51074489Y-96210148D01*
X51038122Y-96226586D01*
X51007582Y-96236894D01*
X50975450Y-96242460D01*
X50934307Y-96244669D01*
X50888222Y-96244948D01*
X50803865Y-96240861D01*
X50734586Y-96227446D01*
X50673961Y-96202256D01*
X50615567Y-96162846D01*
X50571302Y-96124298D01*
X50505484Y-96052406D01*
X50460053Y-95977313D01*
X50432850Y-95894562D01*
X50422576Y-95816928D01*
X50426571Y-95713043D01*
G36*
X55669066Y-99561371D02*
G01*
X55669467Y-99521889D01*
X55672259Y-99406200D01*
X55680550Y-99309311D01*
X55695232Y-99227919D01*
X55717193Y-99158723D01*
X55747322Y-99098420D01*
X55786510Y-99043708D01*
X55803532Y-99024167D01*
X55843363Y-98991750D01*
X55897413Y-98962520D01*
X55957323Y-98939991D01*
X56014739Y-98927679D01*
X56035956Y-98926400D01*
X56094769Y-98934417D01*
X56159013Y-98955899D01*
X56219821Y-98986999D01*
X56268330Y-99023866D01*
X56274182Y-99029854D01*
X56315321Y-99080579D01*
X56347435Y-99136125D01*
X56371365Y-99199696D01*
X56387953Y-99274494D01*
X56398041Y-99363722D01*
X56402469Y-99470582D01*
X56402845Y-99519528D01*
X56402545Y-99581762D01*
X56401292Y-99625528D01*
X56398554Y-99654931D01*
X56393801Y-99674079D01*
X56386501Y-99687077D01*
X56380267Y-99694045D01*
X56372694Y-99700626D01*
X56362924Y-99705788D01*
X56348340Y-99709703D01*
X56326326Y-99712543D01*
X56294264Y-99714480D01*
X56249536Y-99715684D01*
X56189526Y-99716328D01*
X56111617Y-99716583D01*
X56035956Y-99716622D01*
X55935041Y-99716870D01*
X55854427Y-99716817D01*
X55815822Y-99715857D01*
X55815822Y-99569867D01*
X56256089Y-99569867D01*
X56256004Y-99476734D01*
X56254396Y-99420693D01*
X56250256Y-99361999D01*
X56244464Y-99313028D01*
X56244226Y-99311538D01*
X56225090Y-99232392D01*
X56195287Y-99171002D01*
X56152878Y-99124305D01*
X56106961Y-99094635D01*
X56056026Y-99076353D01*
X56008200Y-99077771D01*
X55956933Y-99098988D01*
X55903899Y-99140489D01*
X55864600Y-99197998D01*
X55838331Y-99272750D01*
X55829035Y-99322708D01*
X55822507Y-99379416D01*
X55817782Y-99439519D01*
X55815817Y-99490639D01*
X55815808Y-99493667D01*
X55815822Y-99569867D01*
X55815822Y-99715857D01*
X55791851Y-99715260D01*
X55745055Y-99710998D01*
X55711778Y-99702830D01*
X55689759Y-99689556D01*
X55676739Y-99669974D01*
X55670457Y-99642883D01*
X55668653Y-99607082D01*
X55669066Y-99561371D01*
G37*
X55669066Y-99561371D02*
X55669467Y-99521889D01*
X55672259Y-99406200D01*
X55680550Y-99309311D01*
X55695232Y-99227919D01*
X55717193Y-99158723D01*
X55747322Y-99098420D01*
X55786510Y-99043708D01*
X55803532Y-99024167D01*
X55843363Y-98991750D01*
X55897413Y-98962520D01*
X55957323Y-98939991D01*
X56014739Y-98927679D01*
X56035956Y-98926400D01*
X56094769Y-98934417D01*
X56159013Y-98955899D01*
X56219821Y-98986999D01*
X56268330Y-99023866D01*
X56274182Y-99029854D01*
X56315321Y-99080579D01*
X56347435Y-99136125D01*
X56371365Y-99199696D01*
X56387953Y-99274494D01*
X56398041Y-99363722D01*
X56402469Y-99470582D01*
X56402845Y-99519528D01*
X56402545Y-99581762D01*
X56401292Y-99625528D01*
X56398554Y-99654931D01*
X56393801Y-99674079D01*
X56386501Y-99687077D01*
X56380267Y-99694045D01*
X56372694Y-99700626D01*
X56362924Y-99705788D01*
X56348340Y-99709703D01*
X56326326Y-99712543D01*
X56294264Y-99714480D01*
X56249536Y-99715684D01*
X56189526Y-99716328D01*
X56111617Y-99716583D01*
X56035956Y-99716622D01*
X55935041Y-99716870D01*
X55854427Y-99716817D01*
X55815822Y-99715857D01*
X55815822Y-99569867D01*
X56256089Y-99569867D01*
X56256004Y-99476734D01*
X56254396Y-99420693D01*
X56250256Y-99361999D01*
X56244464Y-99313028D01*
X56244226Y-99311538D01*
X56225090Y-99232392D01*
X56195287Y-99171002D01*
X56152878Y-99124305D01*
X56106961Y-99094635D01*
X56056026Y-99076353D01*
X56008200Y-99077771D01*
X55956933Y-99098988D01*
X55903899Y-99140489D01*
X55864600Y-99197998D01*
X55838331Y-99272750D01*
X55829035Y-99322708D01*
X55822507Y-99379416D01*
X55817782Y-99439519D01*
X55815817Y-99490639D01*
X55815808Y-99493667D01*
X55815822Y-99569867D01*
X55815822Y-99715857D01*
X55791851Y-99715260D01*
X55745055Y-99710998D01*
X55711778Y-99702830D01*
X55689759Y-99689556D01*
X55676739Y-99669974D01*
X55670457Y-99642883D01*
X55668653Y-99607082D01*
X55669066Y-99561371D01*
G36*
X55669146Y-98152794D02*
G01*
X55669518Y-98083386D01*
X55670385Y-98030997D01*
X55671946Y-97992847D01*
X55674403Y-97966159D01*
X55677957Y-97948153D01*
X55682810Y-97936049D01*
X55689161Y-97927069D01*
X55692084Y-97923818D01*
X55723142Y-97904043D01*
X55758828Y-97900482D01*
X55790510Y-97913491D01*
X55796913Y-97919506D01*
X55803121Y-97929235D01*
X55807910Y-97944901D01*
X55811514Y-97969408D01*
X55814164Y-98005661D01*
X55816095Y-98056565D01*
X55817539Y-98125026D01*
X55818418Y-98187617D01*
X55821467Y-98435334D01*
X55886378Y-98438719D01*
X55951289Y-98442105D01*
X55951289Y-98273958D01*
X55951919Y-98200959D01*
X55954553Y-98147517D01*
X55960309Y-98110628D01*
X55970304Y-98087288D01*
X55985656Y-98074494D01*
X56007482Y-98069242D01*
X56027738Y-98068445D01*
X56052592Y-98070923D01*
X56070906Y-98080277D01*
X56083637Y-98099383D01*
X56091741Y-98131118D01*
X56096176Y-98178359D01*
X56097899Y-98243983D01*
X56098045Y-98279801D01*
X56098045Y-98440978D01*
X56256089Y-98440978D01*
X56256089Y-98192622D01*
X56256202Y-98111213D01*
X56256712Y-98049342D01*
X56257870Y-98003968D01*
X56259930Y-97972054D01*
X56263146Y-97950559D01*
X56267772Y-97936443D01*
X56274059Y-97926668D01*
X56278667Y-97921689D01*
X56305560Y-97904610D01*
X56329467Y-97899111D01*
X56358667Y-97906963D01*
X56380267Y-97921689D01*
X56387066Y-97929546D01*
X56392346Y-97939688D01*
X56396298Y-97954844D01*
X56399113Y-97977741D01*
X56400982Y-98011109D01*
X56402098Y-98057675D01*
X56402651Y-98120167D01*
X56402833Y-98201314D01*
X56402845Y-98243422D01*
X56402765Y-98333598D01*
X56402398Y-98403924D01*
X56401552Y-98457129D01*
X56400036Y-98495940D01*
X56397659Y-98523087D01*
X56394229Y-98541298D01*
X56389554Y-98553300D01*
X56383444Y-98561822D01*
X56380267Y-98565156D01*
X56372670Y-98571755D01*
X56362870Y-98576927D01*
X56348239Y-98580846D01*
X56326152Y-98583684D01*
X56293982Y-98585615D01*
X56249103Y-98586812D01*
X56188889Y-98587448D01*
X56110713Y-98587697D01*
X56037923Y-98587734D01*
X55944707Y-98587700D01*
X55871431Y-98587465D01*
X55815458Y-98586830D01*
X55774151Y-98585594D01*
X55744872Y-98583556D01*
X55724984Y-98580517D01*
X55711850Y-98576277D01*
X55702832Y-98570635D01*
X55695293Y-98563391D01*
X55693612Y-98561606D01*
X55686172Y-98552945D01*
X55680409Y-98542882D01*
X55676112Y-98528625D01*
X55673064Y-98507383D01*
X55671051Y-98476364D01*
X55669860Y-98432777D01*
X55669275Y-98373831D01*
X55669083Y-98296734D01*
X55669067Y-98242001D01*
X55669146Y-98152794D01*
G37*
X55669146Y-98152794D02*
X55669518Y-98083386D01*
X55670385Y-98030997D01*
X55671946Y-97992847D01*
X55674403Y-97966159D01*
X55677957Y-97948153D01*
X55682810Y-97936049D01*
X55689161Y-97927069D01*
X55692084Y-97923818D01*
X55723142Y-97904043D01*
X55758828Y-97900482D01*
X55790510Y-97913491D01*
X55796913Y-97919506D01*
X55803121Y-97929235D01*
X55807910Y-97944901D01*
X55811514Y-97969408D01*
X55814164Y-98005661D01*
X55816095Y-98056565D01*
X55817539Y-98125026D01*
X55818418Y-98187617D01*
X55821467Y-98435334D01*
X55886378Y-98438719D01*
X55951289Y-98442105D01*
X55951289Y-98273958D01*
X55951919Y-98200959D01*
X55954553Y-98147517D01*
X55960309Y-98110628D01*
X55970304Y-98087288D01*
X55985656Y-98074494D01*
X56007482Y-98069242D01*
X56027738Y-98068445D01*
X56052592Y-98070923D01*
X56070906Y-98080277D01*
X56083637Y-98099383D01*
X56091741Y-98131118D01*
X56096176Y-98178359D01*
X56097899Y-98243983D01*
X56098045Y-98279801D01*
X56098045Y-98440978D01*
X56256089Y-98440978D01*
X56256089Y-98192622D01*
X56256202Y-98111213D01*
X56256712Y-98049342D01*
X56257870Y-98003968D01*
X56259930Y-97972054D01*
X56263146Y-97950559D01*
X56267772Y-97936443D01*
X56274059Y-97926668D01*
X56278667Y-97921689D01*
X56305560Y-97904610D01*
X56329467Y-97899111D01*
X56358667Y-97906963D01*
X56380267Y-97921689D01*
X56387066Y-97929546D01*
X56392346Y-97939688D01*
X56396298Y-97954844D01*
X56399113Y-97977741D01*
X56400982Y-98011109D01*
X56402098Y-98057675D01*
X56402651Y-98120167D01*
X56402833Y-98201314D01*
X56402845Y-98243422D01*
X56402765Y-98333598D01*
X56402398Y-98403924D01*
X56401552Y-98457129D01*
X56400036Y-98495940D01*
X56397659Y-98523087D01*
X56394229Y-98541298D01*
X56389554Y-98553300D01*
X56383444Y-98561822D01*
X56380267Y-98565156D01*
X56372670Y-98571755D01*
X56362870Y-98576927D01*
X56348239Y-98580846D01*
X56326152Y-98583684D01*
X56293982Y-98585615D01*
X56249103Y-98586812D01*
X56188889Y-98587448D01*
X56110713Y-98587697D01*
X56037923Y-98587734D01*
X55944707Y-98587700D01*
X55871431Y-98587465D01*
X55815458Y-98586830D01*
X55774151Y-98585594D01*
X55744872Y-98583556D01*
X55724984Y-98580517D01*
X55711850Y-98576277D01*
X55702832Y-98570635D01*
X55695293Y-98563391D01*
X55693612Y-98561606D01*
X55686172Y-98552945D01*
X55680409Y-98542882D01*
X55676112Y-98528625D01*
X55673064Y-98507383D01*
X55671051Y-98476364D01*
X55669860Y-98432777D01*
X55669275Y-98373831D01*
X55669083Y-98296734D01*
X55669067Y-98242001D01*
X55669146Y-98152794D01*
G36*
X55670351Y-97131703D02*
G01*
X55675581Y-97056888D01*
X55683750Y-96987306D01*
X55694550Y-96927002D01*
X55707673Y-96880020D01*
X55722813Y-96850406D01*
X55727269Y-96845860D01*
X55761850Y-96830054D01*
X55797351Y-96834847D01*
X55827725Y-96859364D01*
X55828596Y-96860534D01*
X55837954Y-96874954D01*
X55842876Y-96890008D01*
X55843473Y-96911005D01*
X55839861Y-96943257D01*
X55832154Y-96992073D01*
X55831505Y-96996000D01*
X55822569Y-97068739D01*
X55818161Y-97147217D01*
X55818119Y-97225927D01*
X55822279Y-97299361D01*
X55830479Y-97362011D01*
X55842557Y-97408370D01*
X55843771Y-97411416D01*
X55862615Y-97445048D01*
X55881685Y-97456864D01*
X55900439Y-97447614D01*
X55918337Y-97418047D01*
X55934837Y-97368911D01*
X55949396Y-97300957D01*
X55956406Y-97255645D01*
X55969889Y-97161456D01*
X55982214Y-97086544D01*
X55994449Y-97027717D01*
X56007661Y-96981785D01*
X56022917Y-96945555D01*
X56041285Y-96915838D01*
X56063831Y-96889442D01*
X56085971Y-96868230D01*
X56116819Y-96843065D01*
X56143345Y-96830681D01*
X56176026Y-96826808D01*
X56187995Y-96826667D01*
X56227712Y-96829576D01*
X56257259Y-96841202D01*
X56283486Y-96861323D01*
X56323576Y-96902216D01*
X56354149Y-96947817D01*
X56376203Y-97001513D01*
X56390735Y-97066692D01*
X56398741Y-97146744D01*
X56401218Y-97245057D01*
X56401177Y-97261289D01*
X56399818Y-97326849D01*
X56396730Y-97391866D01*
X56392356Y-97449252D01*
X56387140Y-97491922D01*
X56386541Y-97495372D01*
X56376491Y-97537796D01*
X56363796Y-97573780D01*
X56352190Y-97594150D01*
X56321572Y-97613107D01*
X56285918Y-97614427D01*
X56254144Y-97598085D01*
X56250551Y-97594429D01*
X56239876Y-97579315D01*
X56235276Y-97560415D01*
X56236059Y-97531162D01*
X56240127Y-97495651D01*
X56243762Y-97455970D01*
X56246828Y-97400345D01*
X56249053Y-97335406D01*
X56250164Y-97267785D01*
X56250237Y-97250000D01*
X56249964Y-97182128D01*
X56248646Y-97132454D01*
X56245827Y-97096610D01*
X56241050Y-97070224D01*
X56233857Y-97048926D01*
X56227867Y-97036126D01*
X56211233Y-97008000D01*
X56196168Y-96990068D01*
X56191897Y-96987447D01*
X56174263Y-96992976D01*
X56157192Y-97019260D01*
X56141458Y-97064478D01*
X56127838Y-97126808D01*
X56124804Y-97145171D01*
X56109738Y-97241090D01*
X56097146Y-97317641D01*
X56086111Y-97377780D01*
X56075720Y-97424460D01*
X56065056Y-97460637D01*
X56053205Y-97489265D01*
X56039251Y-97513298D01*
X56022281Y-97535692D01*
X56001378Y-97559402D01*
X55994049Y-97567380D01*
X55966699Y-97595353D01*
X55945029Y-97610160D01*
X55920232Y-97615952D01*
X55888983Y-97616889D01*
X55827705Y-97606575D01*
X55775640Y-97575752D01*
X55732958Y-97524595D01*
X55699825Y-97453283D01*
X55684964Y-97402400D01*
X55675366Y-97347100D01*
X55669936Y-97280853D01*
X55668367Y-97207706D01*
X55670351Y-97131703D01*
G37*
X55670351Y-97131703D02*
X55675581Y-97056888D01*
X55683750Y-96987306D01*
X55694550Y-96927002D01*
X55707673Y-96880020D01*
X55722813Y-96850406D01*
X55727269Y-96845860D01*
X55761850Y-96830054D01*
X55797351Y-96834847D01*
X55827725Y-96859364D01*
X55828596Y-96860534D01*
X55837954Y-96874954D01*
X55842876Y-96890008D01*
X55843473Y-96911005D01*
X55839861Y-96943257D01*
X55832154Y-96992073D01*
X55831505Y-96996000D01*
X55822569Y-97068739D01*
X55818161Y-97147217D01*
X55818119Y-97225927D01*
X55822279Y-97299361D01*
X55830479Y-97362011D01*
X55842557Y-97408370D01*
X55843771Y-97411416D01*
X55862615Y-97445048D01*
X55881685Y-97456864D01*
X55900439Y-97447614D01*
X55918337Y-97418047D01*
X55934837Y-97368911D01*
X55949396Y-97300957D01*
X55956406Y-97255645D01*
X55969889Y-97161456D01*
X55982214Y-97086544D01*
X55994449Y-97027717D01*
X56007661Y-96981785D01*
X56022917Y-96945555D01*
X56041285Y-96915838D01*
X56063831Y-96889442D01*
X56085971Y-96868230D01*
X56116819Y-96843065D01*
X56143345Y-96830681D01*
X56176026Y-96826808D01*
X56187995Y-96826667D01*
X56227712Y-96829576D01*
X56257259Y-96841202D01*
X56283486Y-96861323D01*
X56323576Y-96902216D01*
X56354149Y-96947817D01*
X56376203Y-97001513D01*
X56390735Y-97066692D01*
X56398741Y-97146744D01*
X56401218Y-97245057D01*
X56401177Y-97261289D01*
X56399818Y-97326849D01*
X56396730Y-97391866D01*
X56392356Y-97449252D01*
X56387140Y-97491922D01*
X56386541Y-97495372D01*
X56376491Y-97537796D01*
X56363796Y-97573780D01*
X56352190Y-97594150D01*
X56321572Y-97613107D01*
X56285918Y-97614427D01*
X56254144Y-97598085D01*
X56250551Y-97594429D01*
X56239876Y-97579315D01*
X56235276Y-97560415D01*
X56236059Y-97531162D01*
X56240127Y-97495651D01*
X56243762Y-97455970D01*
X56246828Y-97400345D01*
X56249053Y-97335406D01*
X56250164Y-97267785D01*
X56250237Y-97250000D01*
X56249964Y-97182128D01*
X56248646Y-97132454D01*
X56245827Y-97096610D01*
X56241050Y-97070224D01*
X56233857Y-97048926D01*
X56227867Y-97036126D01*
X56211233Y-97008000D01*
X56196168Y-96990068D01*
X56191897Y-96987447D01*
X56174263Y-96992976D01*
X56157192Y-97019260D01*
X56141458Y-97064478D01*
X56127838Y-97126808D01*
X56124804Y-97145171D01*
X56109738Y-97241090D01*
X56097146Y-97317641D01*
X56086111Y-97377780D01*
X56075720Y-97424460D01*
X56065056Y-97460637D01*
X56053205Y-97489265D01*
X56039251Y-97513298D01*
X56022281Y-97535692D01*
X56001378Y-97559402D01*
X55994049Y-97567380D01*
X55966699Y-97595353D01*
X55945029Y-97610160D01*
X55920232Y-97615952D01*
X55888983Y-97616889D01*
X55827705Y-97606575D01*
X55775640Y-97575752D01*
X55732958Y-97524595D01*
X55699825Y-97453283D01*
X55684964Y-97402400D01*
X55675366Y-97347100D01*
X55669936Y-97280853D01*
X55668367Y-97207706D01*
X55670351Y-97131703D01*
G36*
X55691645Y-96363822D02*
G01*
X55699218Y-96357242D01*
X55708987Y-96352079D01*
X55723571Y-96348164D01*
X55745585Y-96345324D01*
X55777648Y-96343387D01*
X55822375Y-96342183D01*
X55882385Y-96341539D01*
X55960294Y-96341284D01*
X56035956Y-96341245D01*
X56129802Y-96341314D01*
X56203689Y-96341638D01*
X56260232Y-96342386D01*
X56302049Y-96343732D01*
X56331757Y-96345846D01*
X56351973Y-96348900D01*
X56365314Y-96353066D01*
X56374398Y-96358516D01*
X56380267Y-96363822D01*
X56399947Y-96396826D01*
X56398181Y-96431991D01*
X56376717Y-96463455D01*
X56368337Y-96470684D01*
X56358614Y-96476334D01*
X56344861Y-96480599D01*
X56324389Y-96483673D01*
X56294512Y-96485752D01*
X56252541Y-96487030D01*
X56195789Y-96487701D01*
X56121567Y-96487959D01*
X56037537Y-96488000D01*
X55724485Y-96488000D01*
X55696776Y-96460291D01*
X55673463Y-96426137D01*
X55672623Y-96393006D01*
X55691645Y-96363822D01*
G37*
X55691645Y-96363822D02*
X55699218Y-96357242D01*
X55708987Y-96352079D01*
X55723571Y-96348164D01*
X55745585Y-96345324D01*
X55777648Y-96343387D01*
X55822375Y-96342183D01*
X55882385Y-96341539D01*
X55960294Y-96341284D01*
X56035956Y-96341245D01*
X56129802Y-96341314D01*
X56203689Y-96341638D01*
X56260232Y-96342386D01*
X56302049Y-96343732D01*
X56331757Y-96345846D01*
X56351973Y-96348900D01*
X56365314Y-96353066D01*
X56374398Y-96358516D01*
X56380267Y-96363822D01*
X56399947Y-96396826D01*
X56398181Y-96431991D01*
X56376717Y-96463455D01*
X56368337Y-96470684D01*
X56358614Y-96476334D01*
X56344861Y-96480599D01*
X56324389Y-96483673D01*
X56294512Y-96485752D01*
X56252541Y-96487030D01*
X56195789Y-96487701D01*
X56121567Y-96487959D01*
X56037537Y-96488000D01*
X55724485Y-96488000D01*
X55696776Y-96460291D01*
X55673463Y-96426137D01*
X55672623Y-96393006D01*
X55691645Y-96363822D01*
G36*
X55674599Y-95390081D02*
G01*
X55686095Y-95321565D01*
X55703967Y-95268943D01*
X55727499Y-95234708D01*
X55740924Y-95225379D01*
X55772148Y-95215893D01*
X55800395Y-95222277D01*
X55827182Y-95242430D01*
X55839713Y-95273745D01*
X55838696Y-95319183D01*
X55831906Y-95354326D01*
X55818971Y-95432419D01*
X55817742Y-95512226D01*
X55828241Y-95601555D01*
X55832690Y-95626229D01*
X55856108Y-95709291D01*
X55890945Y-95774273D01*
X55936604Y-95820461D01*
X55992494Y-95847145D01*
X56021388Y-95852663D01*
X56080012Y-95849051D01*
X56131879Y-95825729D01*
X56175978Y-95784824D01*
X56211299Y-95728459D01*
X56236829Y-95658760D01*
X56251559Y-95577852D01*
X56254478Y-95487860D01*
X56244575Y-95390910D01*
X56243641Y-95385436D01*
X56236459Y-95346875D01*
X56229521Y-95325494D01*
X56219227Y-95316227D01*
X56201976Y-95314006D01*
X56192841Y-95313956D01*
X56154489Y-95313956D01*
X56154489Y-95382431D01*
X56150347Y-95442900D01*
X56137147Y-95484165D01*
X56113730Y-95508175D01*
X56078936Y-95516877D01*
X56074394Y-95516983D01*
X56044654Y-95511892D01*
X56023419Y-95494433D01*
X56009366Y-95461939D01*
X56001173Y-95411743D01*
X55998161Y-95363123D01*
X55996433Y-95292456D01*
X55999070Y-95241198D01*
X56008800Y-95206239D01*
X56028353Y-95184470D01*
X56060456Y-95172780D01*
X56107838Y-95168060D01*
X56170071Y-95167200D01*
X56239535Y-95168609D01*
X56286786Y-95172848D01*
X56312012Y-95179936D01*
X56313988Y-95181311D01*
X56345508Y-95220228D01*
X56370470Y-95277286D01*
X56388340Y-95348869D01*
X56398586Y-95431358D01*
X56400673Y-95521139D01*
X56394068Y-95614592D01*
X56385956Y-95669556D01*
X56361554Y-95755766D01*
X56321662Y-95835892D01*
X56269887Y-95902977D01*
X56259539Y-95913173D01*
X56216035Y-95946302D01*
X56162118Y-95976194D01*
X56105592Y-95999357D01*
X56054259Y-96012298D01*
X56034544Y-96013858D01*
X55993419Y-96007218D01*
X55942252Y-95989568D01*
X55888394Y-95964297D01*
X55839195Y-95934789D01*
X55806334Y-95908719D01*
X55757452Y-95847765D01*
X55718545Y-95768969D01*
X55690494Y-95675157D01*
X55674179Y-95569150D01*
X55670192Y-95472000D01*
X55674599Y-95390081D01*
G37*
X55674599Y-95390081D02*
X55686095Y-95321565D01*
X55703967Y-95268943D01*
X55727499Y-95234708D01*
X55740924Y-95225379D01*
X55772148Y-95215893D01*
X55800395Y-95222277D01*
X55827182Y-95242430D01*
X55839713Y-95273745D01*
X55838696Y-95319183D01*
X55831906Y-95354326D01*
X55818971Y-95432419D01*
X55817742Y-95512226D01*
X55828241Y-95601555D01*
X55832690Y-95626229D01*
X55856108Y-95709291D01*
X55890945Y-95774273D01*
X55936604Y-95820461D01*
X55992494Y-95847145D01*
X56021388Y-95852663D01*
X56080012Y-95849051D01*
X56131879Y-95825729D01*
X56175978Y-95784824D01*
X56211299Y-95728459D01*
X56236829Y-95658760D01*
X56251559Y-95577852D01*
X56254478Y-95487860D01*
X56244575Y-95390910D01*
X56243641Y-95385436D01*
X56236459Y-95346875D01*
X56229521Y-95325494D01*
X56219227Y-95316227D01*
X56201976Y-95314006D01*
X56192841Y-95313956D01*
X56154489Y-95313956D01*
X56154489Y-95382431D01*
X56150347Y-95442900D01*
X56137147Y-95484165D01*
X56113730Y-95508175D01*
X56078936Y-95516877D01*
X56074394Y-95516983D01*
X56044654Y-95511892D01*
X56023419Y-95494433D01*
X56009366Y-95461939D01*
X56001173Y-95411743D01*
X55998161Y-95363123D01*
X55996433Y-95292456D01*
X55999070Y-95241198D01*
X56008800Y-95206239D01*
X56028353Y-95184470D01*
X56060456Y-95172780D01*
X56107838Y-95168060D01*
X56170071Y-95167200D01*
X56239535Y-95168609D01*
X56286786Y-95172848D01*
X56312012Y-95179936D01*
X56313988Y-95181311D01*
X56345508Y-95220228D01*
X56370470Y-95277286D01*
X56388340Y-95348869D01*
X56398586Y-95431358D01*
X56400673Y-95521139D01*
X56394068Y-95614592D01*
X56385956Y-95669556D01*
X56361554Y-95755766D01*
X56321662Y-95835892D01*
X56269887Y-95902977D01*
X56259539Y-95913173D01*
X56216035Y-95946302D01*
X56162118Y-95976194D01*
X56105592Y-95999357D01*
X56054259Y-96012298D01*
X56034544Y-96013858D01*
X55993419Y-96007218D01*
X55942252Y-95989568D01*
X55888394Y-95964297D01*
X55839195Y-95934789D01*
X55806334Y-95908719D01*
X55757452Y-95847765D01*
X55718545Y-95768969D01*
X55690494Y-95675157D01*
X55674179Y-95569150D01*
X55670192Y-95472000D01*
X55674599Y-95390081D01*
G36*
X55673448Y-94740114D02*
G01*
X55687273Y-94716548D01*
X55709881Y-94685735D01*
X55742338Y-94646078D01*
X55785708Y-94595980D01*
X55841058Y-94533843D01*
X55909451Y-94458072D01*
X55988084Y-94371334D01*
X56151878Y-94190711D01*
X55932029Y-94185067D01*
X55856351Y-94183029D01*
X55799994Y-94181063D01*
X55759706Y-94178734D01*
X55732235Y-94175606D01*
X55714329Y-94171245D01*
X55702737Y-94165216D01*
X55694208Y-94157084D01*
X55690623Y-94152772D01*
X55671670Y-94118241D01*
X55674441Y-94085383D01*
X55690633Y-94059318D01*
X55712199Y-94032667D01*
X56027151Y-94029352D01*
X56119779Y-94028435D01*
X56192544Y-94027968D01*
X56248161Y-94028113D01*
X56289342Y-94029032D01*
X56318803Y-94030887D01*
X56339255Y-94033839D01*
X56353413Y-94038050D01*
X56363991Y-94043682D01*
X56372474Y-94049927D01*
X56388207Y-94063439D01*
X56398636Y-94076883D01*
X56402639Y-94092124D01*
X56399094Y-94111026D01*
X56386879Y-94135455D01*
X56364871Y-94167273D01*
X56331949Y-94208348D01*
X56286991Y-94260542D01*
X56228875Y-94325722D01*
X56162099Y-94399556D01*
X55921458Y-94664845D01*
X56140589Y-94670489D01*
X56216128Y-94672531D01*
X56272354Y-94674502D01*
X56312524Y-94676839D01*
X56339896Y-94679981D01*
X56357728Y-94684364D01*
X56369279Y-94690424D01*
X56377807Y-94698600D01*
X56381282Y-94702784D01*
X56400372Y-94739765D01*
X56397493Y-94774708D01*
X56373100Y-94805136D01*
X56363286Y-94812097D01*
X56351826Y-94817523D01*
X56335968Y-94821603D01*
X56312963Y-94824529D01*
X56280062Y-94826492D01*
X56234516Y-94827683D01*
X56173573Y-94828292D01*
X56094486Y-94828511D01*
X56035956Y-94828534D01*
X55944407Y-94828460D01*
X55872687Y-94828113D01*
X55818045Y-94827301D01*
X55777732Y-94825833D01*
X55748998Y-94823519D01*
X55729093Y-94820167D01*
X55715268Y-94815588D01*
X55704772Y-94809589D01*
X55698811Y-94805136D01*
X55684691Y-94793850D01*
X55674029Y-94783301D01*
X55667892Y-94771893D01*
X55667343Y-94758030D01*
X55673448Y-94740114D01*
G37*
X55673448Y-94740114D02*
X55687273Y-94716548D01*
X55709881Y-94685735D01*
X55742338Y-94646078D01*
X55785708Y-94595980D01*
X55841058Y-94533843D01*
X55909451Y-94458072D01*
X55988084Y-94371334D01*
X56151878Y-94190711D01*
X55932029Y-94185067D01*
X55856351Y-94183029D01*
X55799994Y-94181063D01*
X55759706Y-94178734D01*
X55732235Y-94175606D01*
X55714329Y-94171245D01*
X55702737Y-94165216D01*
X55694208Y-94157084D01*
X55690623Y-94152772D01*
X55671670Y-94118241D01*
X55674441Y-94085383D01*
X55690633Y-94059318D01*
X55712199Y-94032667D01*
X56027151Y-94029352D01*
X56119779Y-94028435D01*
X56192544Y-94027968D01*
X56248161Y-94028113D01*
X56289342Y-94029032D01*
X56318803Y-94030887D01*
X56339255Y-94033839D01*
X56353413Y-94038050D01*
X56363991Y-94043682D01*
X56372474Y-94049927D01*
X56388207Y-94063439D01*
X56398636Y-94076883D01*
X56402639Y-94092124D01*
X56399094Y-94111026D01*
X56386879Y-94135455D01*
X56364871Y-94167273D01*
X56331949Y-94208348D01*
X56286991Y-94260542D01*
X56228875Y-94325722D01*
X56162099Y-94399556D01*
X55921458Y-94664845D01*
X56140589Y-94670489D01*
X56216128Y-94672531D01*
X56272354Y-94674502D01*
X56312524Y-94676839D01*
X56339896Y-94679981D01*
X56357728Y-94684364D01*
X56369279Y-94690424D01*
X56377807Y-94698600D01*
X56381282Y-94702784D01*
X56400372Y-94739765D01*
X56397493Y-94774708D01*
X56373100Y-94805136D01*
X56363286Y-94812097D01*
X56351826Y-94817523D01*
X56335968Y-94821603D01*
X56312963Y-94824529D01*
X56280062Y-94826492D01*
X56234516Y-94827683D01*
X56173573Y-94828292D01*
X56094486Y-94828511D01*
X56035956Y-94828534D01*
X55944407Y-94828460D01*
X55872687Y-94828113D01*
X55818045Y-94827301D01*
X55777732Y-94825833D01*
X55748998Y-94823519D01*
X55729093Y-94820167D01*
X55715268Y-94815588D01*
X55704772Y-94809589D01*
X55698811Y-94805136D01*
X55684691Y-94793850D01*
X55674029Y-94783301D01*
X55667892Y-94771893D01*
X55667343Y-94758030D01*
X55673448Y-94740114D01*
G36*
X55669260Y-93209657D02*
G01*
X55670174Y-93133299D01*
X55672311Y-93074783D01*
X55676175Y-93031745D01*
X55682267Y-93001817D01*
X55691090Y-92982632D01*
X55703146Y-92971824D01*
X55718939Y-92967027D01*
X55738970Y-92965873D01*
X55741335Y-92965867D01*
X55763992Y-92966869D01*
X55781503Y-92971604D01*
X55794574Y-92982667D01*
X55803913Y-93002652D01*
X55810227Y-93034154D01*
X55814222Y-93079768D01*
X55816606Y-93142087D01*
X55818086Y-93223707D01*
X55818414Y-93248723D01*
X55821467Y-93490800D01*
X55886378Y-93494186D01*
X55951289Y-93497571D01*
X55951289Y-93329424D01*
X55951531Y-93263734D01*
X55952556Y-93216828D01*
X55954811Y-93184917D01*
X55958742Y-93164209D01*
X55964798Y-93150916D01*
X55973424Y-93141245D01*
X55973493Y-93141183D01*
X56007112Y-93123644D01*
X56043448Y-93124278D01*
X56074423Y-93142686D01*
X56077607Y-93146329D01*
X56085812Y-93159259D01*
X56091521Y-93176976D01*
X56095162Y-93203430D01*
X56097167Y-93242568D01*
X56097964Y-93298338D01*
X56098045Y-93334006D01*
X56098045Y-93496445D01*
X56256089Y-93496445D01*
X56256089Y-93249839D01*
X56256231Y-93168420D01*
X56256814Y-93106590D01*
X56258068Y-93061363D01*
X56260227Y-93029752D01*
X56263523Y-93008769D01*
X56268189Y-92995427D01*
X56274457Y-92986739D01*
X56276733Y-92984550D01*
X56308280Y-92968386D01*
X56344168Y-92967203D01*
X56375285Y-92980464D01*
X56385271Y-92990957D01*
X56390769Y-93001871D01*
X56395022Y-93018783D01*
X56398180Y-93044367D01*
X56400392Y-93081299D01*
X56401806Y-93132254D01*
X56402572Y-93199906D01*
X56402838Y-93286931D01*
X56402845Y-93306606D01*
X56402787Y-93395089D01*
X56402467Y-93463773D01*
X56401667Y-93515436D01*
X56400167Y-93552855D01*
X56397749Y-93578810D01*
X56394194Y-93596078D01*
X56389282Y-93607438D01*
X56382795Y-93615668D01*
X56378138Y-93620183D01*
X56369889Y-93626979D01*
X56359669Y-93632288D01*
X56344800Y-93636294D01*
X56322602Y-93639179D01*
X56290393Y-93641126D01*
X56245496Y-93642319D01*
X56185228Y-93642939D01*
X56106911Y-93643171D01*
X56040994Y-93643200D01*
X55948628Y-93643129D01*
X55876117Y-93642792D01*
X55820737Y-93642002D01*
X55779765Y-93640574D01*
X55750478Y-93638321D01*
X55730153Y-93635057D01*
X55716066Y-93630596D01*
X55705495Y-93624752D01*
X55698811Y-93619803D01*
X55669067Y-93596406D01*
X55669067Y-93306226D01*
X55669260Y-93209657D01*
G37*
X55669260Y-93209657D02*
X55670174Y-93133299D01*
X55672311Y-93074783D01*
X55676175Y-93031745D01*
X55682267Y-93001817D01*
X55691090Y-92982632D01*
X55703146Y-92971824D01*
X55718939Y-92967027D01*
X55738970Y-92965873D01*
X55741335Y-92965867D01*
X55763992Y-92966869D01*
X55781503Y-92971604D01*
X55794574Y-92982667D01*
X55803913Y-93002652D01*
X55810227Y-93034154D01*
X55814222Y-93079768D01*
X55816606Y-93142087D01*
X55818086Y-93223707D01*
X55818414Y-93248723D01*
X55821467Y-93490800D01*
X55886378Y-93494186D01*
X55951289Y-93497571D01*
X55951289Y-93329424D01*
X55951531Y-93263734D01*
X55952556Y-93216828D01*
X55954811Y-93184917D01*
X55958742Y-93164209D01*
X55964798Y-93150916D01*
X55973424Y-93141245D01*
X55973493Y-93141183D01*
X56007112Y-93123644D01*
X56043448Y-93124278D01*
X56074423Y-93142686D01*
X56077607Y-93146329D01*
X56085812Y-93159259D01*
X56091521Y-93176976D01*
X56095162Y-93203430D01*
X56097167Y-93242568D01*
X56097964Y-93298338D01*
X56098045Y-93334006D01*
X56098045Y-93496445D01*
X56256089Y-93496445D01*
X56256089Y-93249839D01*
X56256231Y-93168420D01*
X56256814Y-93106590D01*
X56258068Y-93061363D01*
X56260227Y-93029752D01*
X56263523Y-93008769D01*
X56268189Y-92995427D01*
X56274457Y-92986739D01*
X56276733Y-92984550D01*
X56308280Y-92968386D01*
X56344168Y-92967203D01*
X56375285Y-92980464D01*
X56385271Y-92990957D01*
X56390769Y-93001871D01*
X56395022Y-93018783D01*
X56398180Y-93044367D01*
X56400392Y-93081299D01*
X56401806Y-93132254D01*
X56402572Y-93199906D01*
X56402838Y-93286931D01*
X56402845Y-93306606D01*
X56402787Y-93395089D01*
X56402467Y-93463773D01*
X56401667Y-93515436D01*
X56400167Y-93552855D01*
X56397749Y-93578810D01*
X56394194Y-93596078D01*
X56389282Y-93607438D01*
X56382795Y-93615668D01*
X56378138Y-93620183D01*
X56369889Y-93626979D01*
X56359669Y-93632288D01*
X56344800Y-93636294D01*
X56322602Y-93639179D01*
X56290393Y-93641126D01*
X56245496Y-93642319D01*
X56185228Y-93642939D01*
X56106911Y-93643171D01*
X56040994Y-93643200D01*
X55948628Y-93643129D01*
X55876117Y-93642792D01*
X55820737Y-93642002D01*
X55779765Y-93640574D01*
X55750478Y-93638321D01*
X55730153Y-93635057D01*
X55716066Y-93630596D01*
X55705495Y-93624752D01*
X55698811Y-93619803D01*
X55669067Y-93596406D01*
X55669067Y-93306226D01*
X55669260Y-93209657D01*
G36*
X55669275Y-92421691D02*
G01*
X55673636Y-92292712D01*
X55686861Y-92183009D01*
X55709741Y-92090774D01*
X55743070Y-92014198D01*
X55787638Y-91951473D01*
X55844236Y-91900788D01*
X55913658Y-91860337D01*
X55915351Y-91859541D01*
X55977483Y-91835399D01*
X56032509Y-91826797D01*
X56087887Y-91833769D01*
X56151073Y-91856346D01*
X56160689Y-91860628D01*
X56216966Y-91889828D01*
X56260451Y-91922644D01*
X56297417Y-91964998D01*
X56334135Y-92022810D01*
X56336052Y-92026169D01*
X56360227Y-92076496D01*
X56378282Y-92133379D01*
X56390839Y-92200473D01*
X56398522Y-92281435D01*
X56401953Y-92379918D01*
X56402251Y-92414714D01*
X56402845Y-92580406D01*
X56373100Y-92603803D01*
X56363319Y-92610743D01*
X56351897Y-92616158D01*
X56336095Y-92620235D01*
X56313175Y-92623163D01*
X56280396Y-92625133D01*
X56256089Y-92625775D01*
X56256089Y-92469156D01*
X56256089Y-92375274D01*
X56254483Y-92320336D01*
X56250255Y-92263940D01*
X56244292Y-92217655D01*
X56243790Y-92214861D01*
X56221736Y-92132652D01*
X56188600Y-92068886D01*
X56142847Y-92021548D01*
X56082939Y-91988618D01*
X56067061Y-91982892D01*
X56042333Y-91977279D01*
X56017902Y-91979709D01*
X55985400Y-91991533D01*
X55969434Y-91998660D01*
X55927006Y-92022000D01*
X55897240Y-92050120D01*
X55876511Y-92081060D01*
X55849537Y-92143034D01*
X55829998Y-92222349D01*
X55818746Y-92314747D01*
X55816270Y-92381667D01*
X55815822Y-92469156D01*
X56256089Y-92469156D01*
X56256089Y-92625775D01*
X56235021Y-92626332D01*
X56174311Y-92626950D01*
X56095526Y-92627175D01*
X56033920Y-92627200D01*
X55724485Y-92627200D01*
X55696776Y-92599491D01*
X55685544Y-92587194D01*
X55677853Y-92573897D01*
X55673040Y-92555328D01*
X55670446Y-92527214D01*
X55669410Y-92485283D01*
X55669270Y-92425263D01*
X55669275Y-92421691D01*
G37*
X55669275Y-92421691D02*
X55673636Y-92292712D01*
X55686861Y-92183009D01*
X55709741Y-92090774D01*
X55743070Y-92014198D01*
X55787638Y-91951473D01*
X55844236Y-91900788D01*
X55913658Y-91860337D01*
X55915351Y-91859541D01*
X55977483Y-91835399D01*
X56032509Y-91826797D01*
X56087887Y-91833769D01*
X56151073Y-91856346D01*
X56160689Y-91860628D01*
X56216966Y-91889828D01*
X56260451Y-91922644D01*
X56297417Y-91964998D01*
X56334135Y-92022810D01*
X56336052Y-92026169D01*
X56360227Y-92076496D01*
X56378282Y-92133379D01*
X56390839Y-92200473D01*
X56398522Y-92281435D01*
X56401953Y-92379918D01*
X56402251Y-92414714D01*
X56402845Y-92580406D01*
X56373100Y-92603803D01*
X56363319Y-92610743D01*
X56351897Y-92616158D01*
X56336095Y-92620235D01*
X56313175Y-92623163D01*
X56280396Y-92625133D01*
X56256089Y-92625775D01*
X56256089Y-92469156D01*
X56256089Y-92375274D01*
X56254483Y-92320336D01*
X56250255Y-92263940D01*
X56244292Y-92217655D01*
X56243790Y-92214861D01*
X56221736Y-92132652D01*
X56188600Y-92068886D01*
X56142847Y-92021548D01*
X56082939Y-91988618D01*
X56067061Y-91982892D01*
X56042333Y-91977279D01*
X56017902Y-91979709D01*
X55985400Y-91991533D01*
X55969434Y-91998660D01*
X55927006Y-92022000D01*
X55897240Y-92050120D01*
X55876511Y-92081060D01*
X55849537Y-92143034D01*
X55829998Y-92222349D01*
X55818746Y-92314747D01*
X55816270Y-92381667D01*
X55815822Y-92469156D01*
X56256089Y-92469156D01*
X56256089Y-92625775D01*
X56235021Y-92626332D01*
X56174311Y-92626950D01*
X56095526Y-92627175D01*
X56033920Y-92627200D01*
X55724485Y-92627200D01*
X55696776Y-92599491D01*
X55685544Y-92587194D01*
X55677853Y-92573897D01*
X55673040Y-92555328D01*
X55670446Y-92527214D01*
X55669410Y-92485283D01*
X55669270Y-92425263D01*
X55669275Y-92421691D01*
G36*
X55671034Y-89695335D02*
G01*
X55678035Y-89675745D01*
X55678377Y-89674990D01*
X55698678Y-89648387D01*
X55719561Y-89633730D01*
X55729352Y-89630862D01*
X55742361Y-89631004D01*
X55760895Y-89635039D01*
X55787257Y-89643854D01*
X55823752Y-89658331D01*
X55872687Y-89679355D01*
X55936365Y-89707812D01*
X56017093Y-89744585D01*
X56061216Y-89764825D01*
X56139985Y-89801375D01*
X56212423Y-89835685D01*
X56275880Y-89866448D01*
X56327708Y-89892352D01*
X56365259Y-89912090D01*
X56385884Y-89924350D01*
X56388733Y-89926776D01*
X56401302Y-89957817D01*
X56399619Y-89992879D01*
X56384332Y-90021000D01*
X56383089Y-90022146D01*
X56366154Y-90033332D01*
X56333170Y-90052096D01*
X56288380Y-90076125D01*
X56236032Y-90103103D01*
X56216742Y-90112799D01*
X56070150Y-90185986D01*
X56229393Y-90265760D01*
X56284415Y-90294233D01*
X56332132Y-90320650D01*
X56368893Y-90342852D01*
X56391044Y-90358681D01*
X56395741Y-90364046D01*
X56402102Y-90405743D01*
X56388733Y-90440151D01*
X56374446Y-90450272D01*
X56342692Y-90467786D01*
X56296597Y-90491265D01*
X56239285Y-90519280D01*
X56173880Y-90550401D01*
X56103507Y-90583201D01*
X56031291Y-90616250D01*
X55960355Y-90648119D01*
X55893825Y-90677381D01*
X55834826Y-90702605D01*
X55786481Y-90722364D01*
X55751915Y-90735228D01*
X55734253Y-90739769D01*
X55733613Y-90739723D01*
X55711388Y-90728674D01*
X55688753Y-90706590D01*
X55687768Y-90705290D01*
X55672425Y-90678147D01*
X55672574Y-90653042D01*
X55675466Y-90643632D01*
X55681718Y-90632166D01*
X55694014Y-90619990D01*
X55714908Y-90605643D01*
X55746949Y-90587664D01*
X55792688Y-90564593D01*
X55854677Y-90534970D01*
X55911898Y-90508255D01*
X55978226Y-90477520D01*
X56037874Y-90449979D01*
X56087725Y-90427062D01*
X56124664Y-90410202D01*
X56145573Y-90400827D01*
X56148845Y-90399460D01*
X56143497Y-90393311D01*
X56121109Y-90379178D01*
X56084946Y-90358943D01*
X56038277Y-90334485D01*
X56019022Y-90324752D01*
X55954004Y-90291783D01*
X55906654Y-90266357D01*
X55874219Y-90246388D01*
X55853946Y-90229790D01*
X55843082Y-90214476D01*
X55838875Y-90198360D01*
X55838400Y-90187857D01*
X55840042Y-90169330D01*
X55846831Y-90153096D01*
X55861566Y-90136965D01*
X55887044Y-90118749D01*
X55926061Y-90096261D01*
X55981414Y-90067311D01*
X56012903Y-90051338D01*
X56063087Y-90025430D01*
X56104704Y-90002833D01*
X56134242Y-89985542D01*
X56148189Y-89975550D01*
X56148770Y-89974191D01*
X56137793Y-89967739D01*
X56109290Y-89953292D01*
X56066244Y-89932297D01*
X56011638Y-89906203D01*
X55948454Y-89876454D01*
X55917071Y-89861820D01*
X55836078Y-89823750D01*
X55773756Y-89793095D01*
X55728071Y-89768263D01*
X55696989Y-89747663D01*
X55678478Y-89729702D01*
X55670504Y-89712790D01*
X55671034Y-89695335D01*
G37*
X55671034Y-89695335D02*
X55678035Y-89675745D01*
X55678377Y-89674990D01*
X55698678Y-89648387D01*
X55719561Y-89633730D01*
X55729352Y-89630862D01*
X55742361Y-89631004D01*
X55760895Y-89635039D01*
X55787257Y-89643854D01*
X55823752Y-89658331D01*
X55872687Y-89679355D01*
X55936365Y-89707812D01*
X56017093Y-89744585D01*
X56061216Y-89764825D01*
X56139985Y-89801375D01*
X56212423Y-89835685D01*
X56275880Y-89866448D01*
X56327708Y-89892352D01*
X56365259Y-89912090D01*
X56385884Y-89924350D01*
X56388733Y-89926776D01*
X56401302Y-89957817D01*
X56399619Y-89992879D01*
X56384332Y-90021000D01*
X56383089Y-90022146D01*
X56366154Y-90033332D01*
X56333170Y-90052096D01*
X56288380Y-90076125D01*
X56236032Y-90103103D01*
X56216742Y-90112799D01*
X56070150Y-90185986D01*
X56229393Y-90265760D01*
X56284415Y-90294233D01*
X56332132Y-90320650D01*
X56368893Y-90342852D01*
X56391044Y-90358681D01*
X56395741Y-90364046D01*
X56402102Y-90405743D01*
X56388733Y-90440151D01*
X56374446Y-90450272D01*
X56342692Y-90467786D01*
X56296597Y-90491265D01*
X56239285Y-90519280D01*
X56173880Y-90550401D01*
X56103507Y-90583201D01*
X56031291Y-90616250D01*
X55960355Y-90648119D01*
X55893825Y-90677381D01*
X55834826Y-90702605D01*
X55786481Y-90722364D01*
X55751915Y-90735228D01*
X55734253Y-90739769D01*
X55733613Y-90739723D01*
X55711388Y-90728674D01*
X55688753Y-90706590D01*
X55687768Y-90705290D01*
X55672425Y-90678147D01*
X55672574Y-90653042D01*
X55675466Y-90643632D01*
X55681718Y-90632166D01*
X55694014Y-90619990D01*
X55714908Y-90605643D01*
X55746949Y-90587664D01*
X55792688Y-90564593D01*
X55854677Y-90534970D01*
X55911898Y-90508255D01*
X55978226Y-90477520D01*
X56037874Y-90449979D01*
X56087725Y-90427062D01*
X56124664Y-90410202D01*
X56145573Y-90400827D01*
X56148845Y-90399460D01*
X56143497Y-90393311D01*
X56121109Y-90379178D01*
X56084946Y-90358943D01*
X56038277Y-90334485D01*
X56019022Y-90324752D01*
X55954004Y-90291783D01*
X55906654Y-90266357D01*
X55874219Y-90246388D01*
X55853946Y-90229790D01*
X55843082Y-90214476D01*
X55838875Y-90198360D01*
X55838400Y-90187857D01*
X55840042Y-90169330D01*
X55846831Y-90153096D01*
X55861566Y-90136965D01*
X55887044Y-90118749D01*
X55926061Y-90096261D01*
X55981414Y-90067311D01*
X56012903Y-90051338D01*
X56063087Y-90025430D01*
X56104704Y-90002833D01*
X56134242Y-89985542D01*
X56148189Y-89975550D01*
X56148770Y-89974191D01*
X56137793Y-89967739D01*
X56109290Y-89953292D01*
X56066244Y-89932297D01*
X56011638Y-89906203D01*
X55948454Y-89876454D01*
X55917071Y-89861820D01*
X55836078Y-89823750D01*
X55773756Y-89793095D01*
X55728071Y-89768263D01*
X55696989Y-89747663D01*
X55678478Y-89729702D01*
X55670504Y-89712790D01*
X55671034Y-89695335D01*
G36*
X55675877Y-89251386D02*
G01*
X55690647Y-89227673D01*
X55712227Y-89201022D01*
X56033773Y-89201022D01*
X56127830Y-89201107D01*
X56201932Y-89201471D01*
X56258704Y-89202276D01*
X56300768Y-89203687D01*
X56330748Y-89205867D01*
X56351267Y-89208979D01*
X56364949Y-89213186D01*
X56374416Y-89218652D01*
X56379082Y-89222528D01*
X56399575Y-89253966D01*
X56398739Y-89289767D01*
X56381264Y-89321127D01*
X56359684Y-89347778D01*
X55712227Y-89347778D01*
X55690647Y-89321127D01*
X55674949Y-89295406D01*
X55669067Y-89274400D01*
X55675877Y-89251386D01*
G37*
X55675877Y-89251386D02*
X55690647Y-89227673D01*
X55712227Y-89201022D01*
X56033773Y-89201022D01*
X56127830Y-89201107D01*
X56201932Y-89201471D01*
X56258704Y-89202276D01*
X56300768Y-89203687D01*
X56330748Y-89205867D01*
X56351267Y-89208979D01*
X56364949Y-89213186D01*
X56374416Y-89218652D01*
X56379082Y-89222528D01*
X56399575Y-89253966D01*
X56398739Y-89289767D01*
X56381264Y-89321127D01*
X56359684Y-89347778D01*
X55712227Y-89347778D01*
X55690647Y-89321127D01*
X55674949Y-89295406D01*
X55669067Y-89274400D01*
X55675877Y-89251386D01*
G36*
X55669163Y-88476935D02*
G01*
X55669542Y-88398228D01*
X55670333Y-88337137D01*
X55671670Y-88291183D01*
X55673683Y-88257886D01*
X55676506Y-88234764D01*
X55680269Y-88219338D01*
X55685105Y-88209129D01*
X55688822Y-88204187D01*
X55721358Y-88178543D01*
X55755138Y-88175441D01*
X55785826Y-88191289D01*
X55798089Y-88201652D01*
X55806450Y-88212804D01*
X55811657Y-88228965D01*
X55814457Y-88254358D01*
X55815596Y-88293202D01*
X55815821Y-88349720D01*
X55815822Y-88360820D01*
X55815822Y-88506756D01*
X56086756Y-88506756D01*
X56172154Y-88506852D01*
X56237864Y-88507289D01*
X56286774Y-88508288D01*
X56321773Y-88510072D01*
X56345749Y-88512863D01*
X56361593Y-88516883D01*
X56372191Y-88522355D01*
X56380267Y-88529334D01*
X56400112Y-88562266D01*
X56398548Y-88596646D01*
X56375906Y-88627824D01*
X56373100Y-88630114D01*
X56362492Y-88637571D01*
X56350081Y-88643253D01*
X56332850Y-88647399D01*
X56307784Y-88650250D01*
X56271867Y-88652046D01*
X56222083Y-88653028D01*
X56155417Y-88653436D01*
X56079589Y-88653511D01*
X55815822Y-88653511D01*
X55815822Y-88792873D01*
X55815418Y-88852678D01*
X55813840Y-88894082D01*
X55810547Y-88921252D01*
X55804992Y-88938354D01*
X55796631Y-88949557D01*
X55795178Y-88950917D01*
X55761939Y-88967275D01*
X55724362Y-88965828D01*
X55691645Y-88947022D01*
X55685298Y-88939750D01*
X55680266Y-88930373D01*
X55676396Y-88916391D01*
X55673537Y-88895304D01*
X55671535Y-88864611D01*
X55670239Y-88821811D01*
X55669498Y-88764405D01*
X55669158Y-88689890D01*
X55669068Y-88595767D01*
X55669067Y-88575740D01*
X55669163Y-88476935D01*
G37*
X55669163Y-88476935D02*
X55669542Y-88398228D01*
X55670333Y-88337137D01*
X55671670Y-88291183D01*
X55673683Y-88257886D01*
X55676506Y-88234764D01*
X55680269Y-88219338D01*
X55685105Y-88209129D01*
X55688822Y-88204187D01*
X55721358Y-88178543D01*
X55755138Y-88175441D01*
X55785826Y-88191289D01*
X55798089Y-88201652D01*
X55806450Y-88212804D01*
X55811657Y-88228965D01*
X55814457Y-88254358D01*
X55815596Y-88293202D01*
X55815821Y-88349720D01*
X55815822Y-88360820D01*
X55815822Y-88506756D01*
X56086756Y-88506756D01*
X56172154Y-88506852D01*
X56237864Y-88507289D01*
X56286774Y-88508288D01*
X56321773Y-88510072D01*
X56345749Y-88512863D01*
X56361593Y-88516883D01*
X56372191Y-88522355D01*
X56380267Y-88529334D01*
X56400112Y-88562266D01*
X56398548Y-88596646D01*
X56375906Y-88627824D01*
X56373100Y-88630114D01*
X56362492Y-88637571D01*
X56350081Y-88643253D01*
X56332850Y-88647399D01*
X56307784Y-88650250D01*
X56271867Y-88652046D01*
X56222083Y-88653028D01*
X56155417Y-88653436D01*
X56079589Y-88653511D01*
X55815822Y-88653511D01*
X55815822Y-88792873D01*
X55815418Y-88852678D01*
X55813840Y-88894082D01*
X55810547Y-88921252D01*
X55804992Y-88938354D01*
X55796631Y-88949557D01*
X55795178Y-88950917D01*
X55761939Y-88967275D01*
X55724362Y-88965828D01*
X55691645Y-88947022D01*
X55685298Y-88939750D01*
X55680266Y-88930373D01*
X55676396Y-88916391D01*
X55673537Y-88895304D01*
X55671535Y-88864611D01*
X55670239Y-88821811D01*
X55669498Y-88764405D01*
X55669158Y-88689890D01*
X55669068Y-88595767D01*
X55669067Y-88575740D01*
X55669163Y-88476935D01*
G36*
X55674533Y-87211177D02*
G01*
X55696776Y-87179798D01*
X55724485Y-87152089D01*
X56033920Y-87152089D01*
X56125799Y-87152162D01*
X56197840Y-87152505D01*
X56252780Y-87153308D01*
X56293360Y-87154759D01*
X56322317Y-87157048D01*
X56342391Y-87160364D01*
X56356321Y-87164895D01*
X56366845Y-87170831D01*
X56373100Y-87175486D01*
X56397673Y-87206217D01*
X56400341Y-87241504D01*
X56385271Y-87273755D01*
X56376374Y-87284412D01*
X56364557Y-87291536D01*
X56345526Y-87295833D01*
X56314992Y-87298009D01*
X56268662Y-87298772D01*
X56232871Y-87298845D01*
X56098045Y-87298845D01*
X56098045Y-87795556D01*
X56220700Y-87795556D01*
X56276787Y-87796069D01*
X56315333Y-87798124D01*
X56341361Y-87802492D01*
X56359897Y-87809944D01*
X56373100Y-87818953D01*
X56397604Y-87849856D01*
X56400506Y-87884804D01*
X56383089Y-87918262D01*
X56373959Y-87927396D01*
X56361855Y-87933848D01*
X56343001Y-87938103D01*
X56313620Y-87940648D01*
X56269937Y-87941971D01*
X56208175Y-87942557D01*
X56194000Y-87942625D01*
X56077631Y-87943109D01*
X55981727Y-87943359D01*
X55904177Y-87943277D01*
X55842869Y-87942769D01*
X55795690Y-87941738D01*
X55760530Y-87940087D01*
X55735276Y-87937721D01*
X55717817Y-87934543D01*
X55706041Y-87930456D01*
X55697835Y-87925366D01*
X55691645Y-87919734D01*
X55671844Y-87887872D01*
X55674533Y-87854643D01*
X55696776Y-87823265D01*
X55711126Y-87810567D01*
X55726978Y-87802474D01*
X55749554Y-87797958D01*
X55784078Y-87795994D01*
X55835776Y-87795556D01*
X55951289Y-87795556D01*
X55951289Y-87298845D01*
X55832756Y-87298845D01*
X55778148Y-87298338D01*
X55741275Y-87296302D01*
X55717307Y-87291965D01*
X55701415Y-87284553D01*
X55691645Y-87276267D01*
X55671844Y-87244406D01*
X55674533Y-87211177D01*
G37*
X55674533Y-87211177D02*
X55696776Y-87179798D01*
X55724485Y-87152089D01*
X56033920Y-87152089D01*
X56125799Y-87152162D01*
X56197840Y-87152505D01*
X56252780Y-87153308D01*
X56293360Y-87154759D01*
X56322317Y-87157048D01*
X56342391Y-87160364D01*
X56356321Y-87164895D01*
X56366845Y-87170831D01*
X56373100Y-87175486D01*
X56397673Y-87206217D01*
X56400341Y-87241504D01*
X56385271Y-87273755D01*
X56376374Y-87284412D01*
X56364557Y-87291536D01*
X56345526Y-87295833D01*
X56314992Y-87298009D01*
X56268662Y-87298772D01*
X56232871Y-87298845D01*
X56098045Y-87298845D01*
X56098045Y-87795556D01*
X56220700Y-87795556D01*
X56276787Y-87796069D01*
X56315333Y-87798124D01*
X56341361Y-87802492D01*
X56359897Y-87809944D01*
X56373100Y-87818953D01*
X56397604Y-87849856D01*
X56400506Y-87884804D01*
X56383089Y-87918262D01*
X56373959Y-87927396D01*
X56361855Y-87933848D01*
X56343001Y-87938103D01*
X56313620Y-87940648D01*
X56269937Y-87941971D01*
X56208175Y-87942557D01*
X56194000Y-87942625D01*
X56077631Y-87943109D01*
X55981727Y-87943359D01*
X55904177Y-87943277D01*
X55842869Y-87942769D01*
X55795690Y-87941738D01*
X55760530Y-87940087D01*
X55735276Y-87937721D01*
X55717817Y-87934543D01*
X55706041Y-87930456D01*
X55697835Y-87925366D01*
X55691645Y-87919734D01*
X55671844Y-87887872D01*
X55674533Y-87854643D01*
X55696776Y-87823265D01*
X55711126Y-87810567D01*
X55726978Y-87802474D01*
X55749554Y-87797958D01*
X55784078Y-87795994D01*
X55835776Y-87795556D01*
X55951289Y-87795556D01*
X55951289Y-87298845D01*
X55832756Y-87298845D01*
X55778148Y-87298338D01*
X55741275Y-87296302D01*
X55717307Y-87291965D01*
X55701415Y-87284553D01*
X55691645Y-87276267D01*
X55671844Y-87244406D01*
X55674533Y-87211177D01*
D10*
X68160000Y-100630000D02*
X67110000Y-102180000D01*
X104360000Y-103830000D02*
X105660000Y-101780000D01*
X103760000Y-102530000D02*
X103410000Y-102480000D01*
X103410000Y-102480000D02*
X103160000Y-102630000D01*
X103160000Y-102630000D02*
X103110000Y-103030000D01*
X103110000Y-103030000D02*
X103310000Y-103330000D01*
X103310000Y-103330000D02*
X103510000Y-103430000D01*
X103510000Y-103430000D02*
X103760000Y-103430000D01*
X103160000Y-103880000D02*
X103410000Y-103980000D01*
X103410000Y-103980000D02*
X103710000Y-103880000D01*
X103710000Y-103880000D02*
X103860000Y-103580000D01*
X103860000Y-103580000D02*
X103860000Y-102430000D01*
X102410000Y-102480000D02*
X102260000Y-102480000D01*
X102260000Y-102480000D02*
X102010000Y-102630000D01*
X101910000Y-102480000D02*
X101910000Y-103530000D01*
X101060000Y-102480000D02*
X100760000Y-102480000D01*
X100760000Y-102480000D02*
X100510000Y-102680000D01*
X100510000Y-102680000D02*
X100510000Y-103030000D01*
X100510000Y-103030000D02*
X100610000Y-103330000D01*
X100610000Y-103330000D02*
X100910000Y-103530000D01*
X100910000Y-103530000D02*
X101210000Y-103380000D01*
X101210000Y-103380000D02*
X101310000Y-103030000D01*
X101310000Y-103030000D02*
X101310000Y-102780000D01*
X101310000Y-102780000D02*
X101110000Y-102530000D01*
X99810000Y-103330000D02*
X99810000Y-103480000D01*
X99110000Y-102530000D02*
X98810000Y-102430000D01*
X98810000Y-102430000D02*
X98560000Y-102580000D01*
X98560000Y-102580000D02*
X98560000Y-102830000D01*
X98560000Y-102830000D02*
X98860000Y-102980000D01*
X98860000Y-102980000D02*
X99110000Y-103080000D01*
X99110000Y-103080000D02*
X99160000Y-103330000D01*
X99160000Y-103330000D02*
X98910000Y-103480000D01*
X98910000Y-103480000D02*
X98660000Y-103530000D01*
X98660000Y-103530000D02*
X98560000Y-103430000D01*
X97860000Y-103580000D02*
X97910000Y-102730000D01*
X97910000Y-102730000D02*
X97760000Y-102530000D01*
X97760000Y-102530000D02*
X97560000Y-102530000D01*
X97560000Y-102530000D02*
X97260000Y-102630000D01*
X97210000Y-103530000D02*
X97210000Y-102480000D01*
X96510000Y-102580000D02*
X96360000Y-102480000D01*
X96360000Y-102480000D02*
X96110000Y-102480000D01*
X96110000Y-102480000D02*
X95910000Y-102530000D01*
X95910000Y-102530000D02*
X95810000Y-102730000D01*
X95810000Y-102730000D02*
X95760000Y-103030000D01*
X95760000Y-103030000D02*
X95810000Y-103230000D01*
X95810000Y-103230000D02*
X95960000Y-103430000D01*
X95960000Y-103430000D02*
X96210000Y-103480000D01*
X96210000Y-103480000D02*
X96460000Y-103380000D01*
X96460000Y-103380000D02*
X96560000Y-103130000D01*
X96560000Y-103130000D02*
X96610000Y-102930000D01*
X96610000Y-102930000D02*
X96560000Y-102680000D01*
X95160000Y-103530000D02*
X95110000Y-102630000D01*
X95110000Y-102630000D02*
X94960000Y-102480000D01*
X94960000Y-102480000D02*
X94710000Y-102530000D01*
X94710000Y-102530000D02*
X94560000Y-102630000D01*
X94510000Y-103580000D02*
X94510000Y-102630000D01*
X94510000Y-102630000D02*
X94310000Y-102480000D01*
X94310000Y-102480000D02*
X94060000Y-102530000D01*
X94060000Y-102530000D02*
X93910000Y-102580000D01*
X93810000Y-103530000D02*
X93810000Y-102530000D01*
X93110000Y-103580000D02*
X93110000Y-102680000D01*
X93110000Y-102680000D02*
X92960000Y-102530000D01*
X92960000Y-102530000D02*
X92760000Y-102480000D01*
X92760000Y-102480000D02*
X92460000Y-102580000D01*
X92410000Y-103530000D02*
X92410000Y-102680000D01*
X92410000Y-102680000D02*
X92260000Y-102530000D01*
X92260000Y-102530000D02*
X91860000Y-102580000D01*
X91810000Y-103530000D02*
X91810000Y-102480000D01*
X90760000Y-102530000D02*
X90560000Y-102530000D01*
X90560000Y-102530000D02*
X90260000Y-102880000D01*
X90260000Y-102880000D02*
X90360000Y-103380000D01*
X90360000Y-103380000D02*
X90610000Y-103480000D01*
X90610000Y-103480000D02*
X90860000Y-103430000D01*
X90860000Y-103430000D02*
X91060000Y-103280000D01*
X91060000Y-103280000D02*
X91160000Y-102980000D01*
X91160000Y-102980000D02*
X91110000Y-102680000D01*
X91110000Y-102680000D02*
X90910000Y-102530000D01*
X89810000Y-102580000D02*
X89560000Y-102480000D01*
X89560000Y-102480000D02*
X89310000Y-102480000D01*
X89310000Y-102480000D02*
X89110000Y-102680000D01*
X89110000Y-102680000D02*
X89010000Y-103080000D01*
X89010000Y-103080000D02*
X89060000Y-103330000D01*
X89060000Y-103330000D02*
X89210000Y-103430000D01*
X89210000Y-103430000D02*
X89510000Y-103480000D01*
X89510000Y-103480000D02*
X89710000Y-103380000D01*
X88460000Y-103430000D02*
X88210000Y-103480000D01*
X88210000Y-103480000D02*
X87960000Y-103480000D01*
X87960000Y-103480000D02*
X87760000Y-103280000D01*
X87760000Y-103280000D02*
X87710000Y-102930000D01*
X87710000Y-102930000D02*
X87710000Y-102580000D01*
X87710000Y-102580000D02*
X87960000Y-102480000D01*
X87960000Y-102480000D02*
X88310000Y-102480000D01*
X88310000Y-102480000D02*
X88510000Y-102680000D01*
X88510000Y-102680000D02*
X88560000Y-102780000D01*
X88560000Y-102780000D02*
X87810000Y-103030000D01*
X86460000Y-102430000D02*
X86860000Y-103480000D01*
X86860000Y-103480000D02*
X87210000Y-102480000D01*
X85910000Y-102480000D02*
X85910000Y-103480000D01*
X85910000Y-101930000D02*
X85910000Y-102080000D01*
X84760000Y-102480000D02*
X85410000Y-102480000D01*
X85060000Y-102030000D02*
X85060000Y-103280000D01*
X85060000Y-103280000D02*
X85210000Y-103430000D01*
X85210000Y-103430000D02*
X85360000Y-103480000D01*
X83610000Y-102530000D02*
X83760000Y-102480000D01*
X83760000Y-102480000D02*
X84160000Y-102480000D01*
X84160000Y-102480000D02*
X84310000Y-102680000D01*
X84310000Y-102680000D02*
X84310000Y-103530000D01*
X84310000Y-103530000D02*
X84310000Y-103480000D01*
X84310000Y-103480000D02*
X83810000Y-103480000D01*
X83810000Y-103480000D02*
X83660000Y-103380000D01*
X83660000Y-103380000D02*
X83610000Y-103130000D01*
X83610000Y-103130000D02*
X83710000Y-102980000D01*
X83710000Y-102980000D02*
X84210000Y-102930000D01*
X82960000Y-103430000D02*
X82660000Y-103480000D01*
X82660000Y-103480000D02*
X82410000Y-103480000D01*
X82410000Y-103480000D02*
X82310000Y-103180000D01*
X82310000Y-103180000D02*
X82260000Y-102830000D01*
X82260000Y-102830000D02*
X82360000Y-102580000D01*
X82360000Y-102580000D02*
X82560000Y-102480000D01*
X82560000Y-102480000D02*
X82810000Y-102480000D01*
X82810000Y-102480000D02*
X83010000Y-102680000D01*
X83010000Y-102680000D02*
X83010000Y-102780000D01*
X83010000Y-102780000D02*
X82360000Y-103030000D01*
X81910000Y-102480000D02*
X81660000Y-102530000D01*
X81660000Y-102530000D02*
X81460000Y-102680000D01*
X81360000Y-103480000D02*
X81360000Y-102430000D01*
X80760000Y-102580000D02*
X80510000Y-102480000D01*
X80510000Y-102480000D02*
X80210000Y-102530000D01*
X80210000Y-102530000D02*
X80010000Y-102930000D01*
X80010000Y-102930000D02*
X80110000Y-103330000D01*
X80110000Y-103330000D02*
X80410000Y-103480000D01*
X80410000Y-103480000D02*
X80710000Y-103380000D01*
X78260000Y-103880000D02*
X79560000Y-101880000D01*
X76660000Y-103880000D02*
X77960000Y-101930000D01*
X76210000Y-103330000D02*
X76160000Y-103480000D01*
X76160000Y-102530000D02*
X76160000Y-102630000D01*
X74860000Y-103480000D02*
X75210000Y-103480000D01*
X75210000Y-103480000D02*
X75460000Y-103280000D01*
X75460000Y-103280000D02*
X75560000Y-102980000D01*
X75560000Y-102980000D02*
X75510000Y-102630000D01*
X75510000Y-102630000D02*
X75260000Y-102480000D01*
X75260000Y-102480000D02*
X74910000Y-102580000D01*
X74810000Y-104030000D02*
X74810000Y-102480000D01*
X74310000Y-102480000D02*
X73810000Y-102480000D01*
X73960000Y-101980000D02*
X73960000Y-103380000D01*
X73960000Y-103380000D02*
X74210000Y-103480000D01*
X74210000Y-103480000D02*
X74310000Y-103480000D01*
X72710000Y-102480000D02*
X73310000Y-102480000D01*
X73060000Y-101980000D02*
X73060000Y-103380000D01*
X73060000Y-103380000D02*
X73210000Y-103530000D01*
X73210000Y-103530000D02*
X73410000Y-103530000D01*
X72360000Y-103580000D02*
X72310000Y-102730000D01*
X72310000Y-102730000D02*
X72210000Y-102530000D01*
X72210000Y-102530000D02*
X71810000Y-102530000D01*
X71660000Y-101980000D02*
X71660000Y-103480000D01*
X100360000Y-100880000D02*
X100310000Y-100180000D01*
X100310000Y-100180000D02*
X100210000Y-99980000D01*
X100210000Y-99980000D02*
X100060000Y-99930000D01*
X100060000Y-99930000D02*
X99710000Y-99980000D01*
X99660000Y-99930000D02*
X99660000Y-100830000D01*
X98910000Y-99930000D02*
X98910000Y-100880000D01*
X98910000Y-99380000D02*
X98910000Y-99480000D01*
X97960000Y-100380000D02*
X97660000Y-100380000D01*
X97660000Y-100380000D02*
X97510000Y-100530000D01*
X97510000Y-100530000D02*
X97510000Y-100780000D01*
X97510000Y-100780000D02*
X97710000Y-100880000D01*
X97710000Y-100880000D02*
X98110000Y-100830000D01*
X97510000Y-99980000D02*
X97660000Y-99880000D01*
X97660000Y-99880000D02*
X98010000Y-99880000D01*
X98010000Y-99880000D02*
X98160000Y-100080000D01*
X98160000Y-100080000D02*
X98210000Y-100930000D01*
X96810000Y-100980000D02*
X96810000Y-100230000D01*
X96810000Y-100230000D02*
X96760000Y-100030000D01*
X96760000Y-100030000D02*
X96660000Y-99930000D01*
X96660000Y-99930000D02*
X96410000Y-99930000D01*
X96410000Y-99930000D02*
X96210000Y-100030000D01*
X96160000Y-100930000D02*
X96160000Y-100080000D01*
X96160000Y-100080000D02*
X96060000Y-99980000D01*
X96060000Y-99980000D02*
X95860000Y-99930000D01*
X95860000Y-99930000D02*
X95610000Y-99980000D01*
X95510000Y-100930000D02*
X95510000Y-99880000D01*
X94460000Y-99880000D02*
X94210000Y-99980000D01*
X94210000Y-99980000D02*
X94060000Y-100280000D01*
X94060000Y-100280000D02*
X94060000Y-100630000D01*
X94060000Y-100630000D02*
X94310000Y-100880000D01*
X94310000Y-100880000D02*
X94610000Y-100830000D01*
X94610000Y-100830000D02*
X94810000Y-100580000D01*
X94810000Y-100580000D02*
X94810000Y-100230000D01*
X94810000Y-100230000D02*
X94760000Y-100080000D01*
X94760000Y-100080000D02*
X94560000Y-99930000D01*
X92610000Y-99380000D02*
X92610000Y-100880000D01*
X92610000Y-100880000D02*
X93010000Y-100880000D01*
X93010000Y-100880000D02*
X93360000Y-100630000D01*
X93360000Y-100630000D02*
X93460000Y-100180000D01*
X93460000Y-100180000D02*
X93360000Y-99680000D01*
X93360000Y-99680000D02*
X93110000Y-99430000D01*
X93110000Y-99430000D02*
X92610000Y-99380000D01*
X90810000Y-99980000D02*
X90560000Y-99880000D01*
X90560000Y-99880000D02*
X90210000Y-99930000D01*
X90210000Y-99930000D02*
X90060000Y-100230000D01*
X90060000Y-100230000D02*
X90060000Y-100580000D01*
X90060000Y-100580000D02*
X90210000Y-100830000D01*
X90210000Y-100830000D02*
X90510000Y-100880000D01*
X90510000Y-100880000D02*
X90760000Y-100830000D01*
X89410000Y-99880000D02*
X89410000Y-100830000D01*
X89410000Y-99430000D02*
X89410000Y-99530000D01*
X89410000Y-99530000D02*
X89360000Y-99530000D01*
X88610000Y-99430000D02*
X88610000Y-100730000D01*
X88610000Y-100730000D02*
X88810000Y-100880000D01*
X87260000Y-99380000D02*
X87210000Y-100880000D01*
X87210000Y-100880000D02*
X87610000Y-100880000D01*
X87610000Y-100880000D02*
X87860000Y-100730000D01*
X87860000Y-100730000D02*
X87960000Y-100330000D01*
X87960000Y-100330000D02*
X87860000Y-99980000D01*
X87860000Y-99980000D02*
X87610000Y-99880000D01*
X87610000Y-99880000D02*
X87310000Y-99880000D01*
X86510000Y-99880000D02*
X86510000Y-100880000D01*
X85810000Y-99930000D02*
X85810000Y-100330000D01*
X85810000Y-100330000D02*
X85810000Y-100680000D01*
X85810000Y-100680000D02*
X85960000Y-100830000D01*
X85960000Y-100830000D02*
X86160000Y-100880000D01*
X86160000Y-100880000D02*
X86510000Y-100780000D01*
X84360000Y-100880000D02*
X84360000Y-99380000D01*
X84360000Y-99380000D02*
X84860000Y-99380000D01*
X84860000Y-99380000D02*
X85110000Y-99480000D01*
X85110000Y-99480000D02*
X85210000Y-99780000D01*
X85210000Y-99780000D02*
X85110000Y-100030000D01*
X85110000Y-100030000D02*
X84910000Y-100180000D01*
X84910000Y-100180000D02*
X84460000Y-100180000D01*
X81310000Y-101280000D02*
X82660000Y-99280000D01*
X78910000Y-99380000D02*
X78910000Y-100880000D01*
X78910000Y-100880000D02*
X79210000Y-100880000D01*
X79210000Y-100880000D02*
X79510000Y-100780000D01*
X79510000Y-100780000D02*
X79710000Y-100480000D01*
X79710000Y-100480000D02*
X79760000Y-100130000D01*
X79760000Y-100130000D02*
X79660000Y-99730000D01*
X79660000Y-99730000D02*
X79510000Y-99480000D01*
X79510000Y-99480000D02*
X79160000Y-99380000D01*
X79160000Y-99380000D02*
X79010000Y-99380000D01*
X77410000Y-100880000D02*
X77410000Y-99380000D01*
X77410000Y-99380000D02*
X78010000Y-99380000D01*
X78010000Y-99380000D02*
X78210000Y-99580000D01*
X78210000Y-99580000D02*
X78210000Y-99780000D01*
X78210000Y-99780000D02*
X78160000Y-100030000D01*
X78160000Y-100030000D02*
X77910000Y-100130000D01*
X77910000Y-100130000D02*
X77410000Y-100130000D01*
X75410000Y-100330000D02*
X76660000Y-100330000D01*
X74910000Y-99530000D02*
X74660000Y-99430000D01*
X74660000Y-99430000D02*
X74260000Y-99380000D01*
X74260000Y-99380000D02*
X73910000Y-99730000D01*
X73910000Y-99730000D02*
X73860000Y-100130000D01*
X73860000Y-100130000D02*
X73960000Y-100530000D01*
X73960000Y-100530000D02*
X74260000Y-100830000D01*
X74260000Y-100830000D02*
X74560000Y-100880000D01*
X74560000Y-100880000D02*
X74810000Y-100730000D01*
X73310000Y-99530000D02*
X73010000Y-99380000D01*
X73010000Y-99380000D02*
X72660000Y-99430000D01*
X72660000Y-99430000D02*
X72410000Y-99730000D01*
X72410000Y-99730000D02*
X72310000Y-100180000D01*
X72310000Y-100180000D02*
X72410000Y-100480000D01*
X72410000Y-100480000D02*
X72610000Y-100780000D01*
X72610000Y-100780000D02*
X72960000Y-100880000D01*
X72960000Y-100880000D02*
X73310000Y-100780000D01*
X63360200Y-100579900D02*
X63261140Y-100480840D01*
X63261140Y-100480840D02*
X63060480Y-100379240D01*
X63060480Y-100379240D02*
X62760760Y-100379240D01*
X62760760Y-100379240D02*
X62461040Y-100480840D01*
X62461040Y-100480840D02*
X62260380Y-100879620D01*
X62260380Y-100879620D02*
X62158780Y-101380000D01*
X62158780Y-101380000D02*
X62158780Y-101778780D01*
X62158780Y-101778780D02*
X62359440Y-102180100D01*
X62359440Y-102180100D02*
X62760760Y-102380760D01*
X62760760Y-102380760D02*
X62958880Y-102380760D01*
X62958880Y-102380760D02*
X63261140Y-102380760D01*
X63261140Y-102380760D02*
X63360200Y-102180100D01*
X61361220Y-100579900D02*
X61259620Y-100480840D01*
X61259620Y-100480840D02*
X60959900Y-100379240D01*
X60959900Y-100379240D02*
X60561120Y-100480840D01*
X60561120Y-100480840D02*
X60258860Y-100678960D01*
X60258860Y-100678960D02*
X60159800Y-101080280D01*
X60159800Y-101080280D02*
X60159800Y-101479060D01*
X60159800Y-101479060D02*
X60258860Y-101979440D01*
X60258860Y-101979440D02*
X60459520Y-102279160D01*
X60459520Y-102279160D02*
X60759240Y-102380760D01*
X60759240Y-102380760D02*
X61160560Y-102380760D01*
X61160560Y-102380760D02*
X61361220Y-102180100D01*
X61760000Y-98880640D02*
X61660940Y-98880640D01*
X61660940Y-98880640D02*
X61058960Y-98979700D01*
X61058960Y-98979700D02*
X60561120Y-99180360D01*
X60561120Y-99180360D02*
X60060740Y-99579140D01*
X60060740Y-99579140D02*
X59560360Y-100181120D01*
X59560360Y-100181120D02*
X59359700Y-100579900D01*
X59359700Y-100579900D02*
X59260640Y-101080280D01*
X59260640Y-101080280D02*
X59260640Y-101679720D01*
X59260640Y-101679720D02*
X59458760Y-102479820D01*
X59458760Y-102479820D02*
X60060740Y-103180860D01*
X60060740Y-103180860D02*
X60561120Y-103579640D01*
X60561120Y-103579640D02*
X61259620Y-103879360D01*
X61259620Y-103879360D02*
X62059720Y-103879360D01*
X62059720Y-103879360D02*
X62659160Y-103681240D01*
X62659160Y-103681240D02*
X63261140Y-103378980D01*
X63261140Y-103378980D02*
X63758980Y-102881140D01*
X63758980Y-102881140D02*
X64160300Y-102180100D01*
X64160300Y-102180100D02*
X64259360Y-101580660D01*
X64259360Y-101580660D02*
X64259360Y-100981220D01*
X64259360Y-100981220D02*
X64061240Y-100379240D01*
X64061240Y-100379240D02*
X63758980Y-99878860D01*
X63758980Y-99878860D02*
X63261140Y-99381020D01*
X63261140Y-99381020D02*
X62760760Y-99078760D01*
X62760760Y-99078760D02*
X62359440Y-98979700D01*
X62359440Y-98979700D02*
X61760000Y-98880640D01*
X67610000Y-100230000D02*
X67910000Y-100330000D01*
X67910000Y-100330000D02*
X68160000Y-100630000D01*
X68160000Y-100630000D02*
X68310000Y-101030000D01*
X68310000Y-101030000D02*
X68310000Y-101480000D01*
X68310000Y-101480000D02*
X68310000Y-101830000D01*
X68310000Y-101830000D02*
X68110000Y-102280000D01*
X68110000Y-102280000D02*
X67960000Y-102530000D01*
X67960000Y-102530000D02*
X67660000Y-102730000D01*
X67660000Y-102730000D02*
X67360000Y-102680000D01*
X67360000Y-102680000D02*
X67110000Y-102430000D01*
X67110000Y-102430000D02*
X66960000Y-102030000D01*
X66960000Y-102030000D02*
X66860000Y-101480000D01*
X66860000Y-101480000D02*
X66960000Y-100980000D01*
X66960000Y-100980000D02*
X67110000Y-100480000D01*
X67110000Y-100480000D02*
X67360000Y-100280000D01*
X67360000Y-100280000D02*
X67610000Y-100230000D01*
X67610000Y-98930640D02*
X67510940Y-98930640D01*
X67510940Y-98930640D02*
X66908960Y-99029700D01*
X66908960Y-99029700D02*
X66411120Y-99230360D01*
X66411120Y-99230360D02*
X65910740Y-99629140D01*
X65910740Y-99629140D02*
X65410360Y-100231120D01*
X65410360Y-100231120D02*
X65209700Y-100629900D01*
X65209700Y-100629900D02*
X65110640Y-101130280D01*
X65110640Y-101130280D02*
X65110640Y-101729720D01*
X65110640Y-101729720D02*
X65308760Y-102529820D01*
X65308760Y-102529820D02*
X65910740Y-103230860D01*
X65910740Y-103230860D02*
X66411120Y-103629640D01*
X66411120Y-103629640D02*
X67109620Y-103929360D01*
X67109620Y-103929360D02*
X67909720Y-103929360D01*
X67909720Y-103929360D02*
X68509160Y-103731240D01*
X68509160Y-103731240D02*
X69111140Y-103428980D01*
X69111140Y-103428980D02*
X69608980Y-102931140D01*
X69608980Y-102931140D02*
X70010300Y-102230100D01*
X70010300Y-102230100D02*
X70109360Y-101630660D01*
X70109360Y-101630660D02*
X70109360Y-101031220D01*
X70109360Y-101031220D02*
X69911240Y-100429240D01*
X69911240Y-100429240D02*
X69608980Y-99928860D01*
X69608980Y-99928860D02*
X69111140Y-99431020D01*
X69111140Y-99431020D02*
X68610760Y-99128760D01*
X68610760Y-99128760D02*
X68209440Y-99029700D01*
X68209440Y-99029700D02*
X67610000Y-98930640D01*
D13*
X62327064Y-71735000D02*
X61872936Y-71735000D01*
X62327064Y-70265000D02*
X61872936Y-70265000D01*
X74010000Y-84047936D02*
X74010000Y-84502064D01*
X72540000Y-84047936D02*
X72540000Y-84502064D01*
X68200000Y-59300000D02*
X69600000Y-59300000D01*
X69600000Y-59300000D02*
X69600000Y-60700000D01*
X69600000Y-60700000D02*
X68200000Y-60700000D01*
X68200000Y-60700000D02*
X68200000Y-59300000D01*
X62227064Y-84235000D02*
X61772936Y-84235000D01*
X62227064Y-82765000D02*
X61772936Y-82765000D01*
X62227064Y-79735000D02*
X61772936Y-79735000D01*
X62227064Y-78265000D02*
X61772936Y-78265000D01*
X78335000Y-84072936D02*
X78335000Y-84527064D01*
X76865000Y-84072936D02*
X76865000Y-84527064D01*
X101327064Y-97535000D02*
X100872936Y-97535000D01*
X101327064Y-96065000D02*
X100872936Y-96065000D01*
X107527064Y-97535000D02*
X107072936Y-97535000D01*
X107527064Y-96065000D02*
X107072936Y-96065000D01*
X96762936Y-74355000D02*
X97217064Y-74355000D01*
X96762936Y-75825000D02*
X97217064Y-75825000D01*
X96752936Y-76465000D02*
X97207064Y-76465000D01*
X96752936Y-77935000D02*
X97207064Y-77935000D01*
X101327064Y-95435000D02*
X100872936Y-95435000D01*
X101327064Y-93965000D02*
X100872936Y-93965000D01*
X107527064Y-95435000D02*
X107072936Y-95435000D01*
X107527064Y-93965000D02*
X107072936Y-93965000D01*
X97227064Y-71535000D02*
X96772936Y-71535000D01*
X97227064Y-70065000D02*
X96772936Y-70065000D01*
X96772936Y-72265000D02*
X97227064Y-72265000D01*
X96772936Y-73735000D02*
X97227064Y-73735000D01*
X101327064Y-93335000D02*
X100872936Y-93335000D01*
X101327064Y-91865000D02*
X100872936Y-91865000D01*
X107527064Y-93335000D02*
X107072936Y-93335000D01*
X107527064Y-91865000D02*
X107072936Y-91865000D01*
X61275000Y-93692936D02*
X61275000Y-94147064D01*
X59805000Y-93692936D02*
X59805000Y-94147064D01*
X94165000Y-84665000D02*
X94165000Y-81135000D01*
X100635000Y-84665000D02*
X100635000Y-81135000D01*
X94230000Y-85990000D02*
X94230000Y-84665000D01*
X94165000Y-84665000D02*
X94230000Y-84665000D01*
X94165000Y-81135000D02*
X94230000Y-81135000D01*
X100570000Y-84665000D02*
X100635000Y-84665000D01*
X100570000Y-81135000D02*
X100635000Y-81135000D01*
X111670000Y-76660000D02*
X114330000Y-76660000D01*
X111670000Y-71520000D02*
X111670000Y-76660000D01*
X114330000Y-71520000D02*
X114330000Y-76660000D01*
X111670000Y-71520000D02*
X114330000Y-71520000D01*
X111670000Y-70250000D02*
X111670000Y-68920000D01*
X111670000Y-68920000D02*
X113000000Y-68920000D01*
X59000000Y-82540000D02*
X56315000Y-82540000D01*
X56315000Y-82540000D02*
X56315000Y-84460000D01*
X56315000Y-84460000D02*
X59000000Y-84460000D01*
X59000000Y-78040000D02*
X56315000Y-78040000D01*
X56315000Y-78040000D02*
X56315000Y-79960000D01*
X56315000Y-79960000D02*
X59000000Y-79960000D01*
X74665000Y-84561252D02*
X74665000Y-84038748D01*
X76135000Y-84561252D02*
X76135000Y-84038748D01*
X85400000Y-94750000D02*
X86800000Y-94750000D01*
X86800000Y-94750000D02*
X86800000Y-96150000D01*
X86800000Y-96150000D02*
X85400000Y-96150000D01*
X85400000Y-96150000D02*
X85400000Y-94750000D01*
X88600000Y-94750000D02*
X90000000Y-94750000D01*
X90000000Y-94750000D02*
X90000000Y-96150000D01*
X90000000Y-96150000D02*
X88600000Y-96150000D01*
X88600000Y-96150000D02*
X88600000Y-94750000D01*
X103600000Y-84225000D02*
X105000000Y-84225000D01*
X105000000Y-84225000D02*
X105000000Y-85625000D01*
X105000000Y-85625000D02*
X103600000Y-85625000D01*
X103600000Y-85625000D02*
X103600000Y-84225000D01*
X82150000Y-94750000D02*
X83550000Y-94750000D01*
X83550000Y-94750000D02*
X83550000Y-96150000D01*
X83550000Y-96150000D02*
X82150000Y-96150000D01*
X82150000Y-96150000D02*
X82150000Y-94750000D01*
X100100000Y-61800000D02*
X101500000Y-61800000D01*
X101500000Y-61800000D02*
X101500000Y-63200000D01*
X101500000Y-63200000D02*
X100100000Y-63200000D01*
X100100000Y-63200000D02*
X100100000Y-61800000D01*
X103600000Y-81025000D02*
X105000000Y-81025000D01*
X105000000Y-81025000D02*
X105000000Y-82425000D01*
X105000000Y-82425000D02*
X103600000Y-82425000D01*
X103600000Y-82425000D02*
X103600000Y-81025000D01*
X93175000Y-94750000D02*
X93175000Y-96150000D01*
X93175000Y-96150000D02*
X91775000Y-96150000D01*
X91775000Y-96150000D02*
X91775000Y-94750000D01*
X91775000Y-94750000D02*
X93175000Y-94750000D01*
X100100000Y-58500000D02*
X101500000Y-58500000D01*
X101500000Y-58500000D02*
X101500000Y-59900000D01*
X101500000Y-59900000D02*
X100100000Y-59900000D01*
X100100000Y-59900000D02*
X100100000Y-58500000D01*
X51800000Y-59300000D02*
X53200000Y-59300000D01*
X53200000Y-59300000D02*
X53200000Y-60700000D01*
X53200000Y-60700000D02*
X51800000Y-60700000D01*
X51800000Y-60700000D02*
X51800000Y-59300000D01*
X89810000Y-91710000D02*
X90110000Y-91710000D01*
X90110000Y-91710000D02*
X90110000Y-91410000D01*
X83190000Y-91710000D02*
X82890000Y-91710000D01*
X82890000Y-91710000D02*
X82890000Y-91410000D01*
X89810000Y-84490000D02*
X90110000Y-84490000D01*
X90110000Y-84490000D02*
X90110000Y-84790000D01*
X83190000Y-84490000D02*
X82890000Y-84490000D01*
X82890000Y-84490000D02*
X82890000Y-84790000D01*
X82890000Y-84790000D02*
X81575000Y-84790000D01*
X66990000Y-92360000D02*
X66990000Y-90410000D01*
X66990000Y-92360000D02*
X66990000Y-94310000D01*
X61870000Y-92360000D02*
X61870000Y-90410000D01*
X61870000Y-92360000D02*
X61870000Y-95810000D01*
X98560000Y-65000000D02*
X98560000Y-63050000D01*
X98560000Y-65000000D02*
X98560000Y-66950000D01*
X93440000Y-65000000D02*
X93440000Y-63050000D01*
X93440000Y-65000000D02*
X93440000Y-68450000D01*
X69910000Y-84047936D02*
X69910000Y-84502064D01*
X68440000Y-84047936D02*
X68440000Y-84502064D01*
X71960000Y-84047936D02*
X71960000Y-84502064D01*
X70490000Y-84047936D02*
X70490000Y-84502064D01*
X66365000Y-84502064D02*
X66365000Y-84047936D01*
X67835000Y-84502064D02*
X67835000Y-84047936D01*
X64315000Y-84502064D02*
X64315000Y-84047936D01*
X65785000Y-84502064D02*
X65785000Y-84047936D01*
X62227064Y-75235000D02*
X61772936Y-75235000D01*
X62227064Y-73765000D02*
X61772936Y-73765000D01*
X70245000Y-95197064D02*
X70245000Y-94742936D01*
X71715000Y-95197064D02*
X71715000Y-94742936D01*
X107527064Y-91135000D02*
X107072936Y-91135000D01*
X107527064Y-89665000D02*
X107072936Y-89665000D01*
X107527064Y-88635000D02*
X107072936Y-88635000D01*
X107527064Y-87165000D02*
X107072936Y-87165000D01*
X92772936Y-57265000D02*
X93227064Y-57265000D01*
X92772936Y-58735000D02*
X93227064Y-58735000D01*
X92772936Y-59265000D02*
X93227064Y-59265000D01*
X92772936Y-60735000D02*
X93227064Y-60735000D01*
X90435000Y-58472936D02*
X90435000Y-58927064D01*
X88965000Y-58472936D02*
X88965000Y-58927064D01*
X58727064Y-59235000D02*
X58272936Y-59235000D01*
X58727064Y-57765000D02*
X58272936Y-57765000D01*
X66260000Y-61580000D02*
X66260000Y-60650000D01*
X66260000Y-58420000D02*
X66260000Y-59350000D01*
X66260000Y-58420000D02*
X64100000Y-58420000D01*
X66260000Y-61580000D02*
X64800000Y-61580000D01*
X111670000Y-94280000D02*
X114330000Y-94280000D01*
X111670000Y-81520000D02*
X111670000Y-94280000D01*
X114330000Y-81520000D02*
X114330000Y-94280000D01*
X111670000Y-81520000D02*
X114330000Y-81520000D01*
X111670000Y-80250000D02*
X111670000Y-78920000D01*
X111670000Y-78920000D02*
X113000000Y-78920000D01*
X111670000Y-66660000D02*
X114330000Y-66660000D01*
X111670000Y-61520000D02*
X111670000Y-66660000D01*
X114330000Y-61520000D02*
X114330000Y-66660000D01*
X111670000Y-61520000D02*
X114330000Y-61520000D01*
X111670000Y-60250000D02*
X111670000Y-58920000D01*
X111670000Y-58920000D02*
X113000000Y-58920000D01*
X59000000Y-73540000D02*
X56315000Y-73540000D01*
X56315000Y-73540000D02*
X56315000Y-75460000D01*
X56315000Y-75460000D02*
X59000000Y-75460000D01*
D14*
X61525000Y-61125000D02*
X63475000Y-61125000D01*
X61525000Y-61225000D02*
X63475000Y-61225000D01*
X61525000Y-58675000D02*
X61750000Y-58675000D01*
X61525000Y-58975000D02*
X61525000Y-58675000D01*
X63475000Y-58675000D02*
X63475000Y-58925000D01*
X63225000Y-58675000D02*
X63475000Y-58675000D01*
X61525000Y-61325000D02*
X63475000Y-61325000D01*
X61525000Y-60975000D02*
X61525000Y-61325000D01*
X63475000Y-60975000D02*
X63475000Y-61325000D01*
D13*
X94235000Y-91638748D02*
X94235000Y-92161252D01*
X92765000Y-91638748D02*
X92765000Y-92161252D01*
X74665000Y-88161252D02*
X74665000Y-87638748D01*
X76135000Y-88161252D02*
X76135000Y-87638748D01*
X79065000Y-84561252D02*
X79065000Y-84038748D01*
X80535000Y-84561252D02*
X80535000Y-84038748D01*
X59805000Y-90421252D02*
X59805000Y-89898748D01*
X61275000Y-90421252D02*
X61275000Y-89898748D01*
X76181252Y-98175000D02*
X75658748Y-98175000D01*
X76181252Y-96705000D02*
X75658748Y-96705000D01*
X72355000Y-95251252D02*
X72355000Y-94728748D01*
X73825000Y-95251252D02*
X73825000Y-94728748D01*
X92735000Y-62738748D02*
X92735000Y-63261252D01*
X91265000Y-62738748D02*
X91265000Y-63261252D01*
X58761252Y-65735000D02*
X58238748Y-65735000D01*
X58761252Y-64265000D02*
X58238748Y-64265000D01*
X58761252Y-63235000D02*
X58238748Y-63235000D01*
X58761252Y-61765000D02*
X58238748Y-61765000D01*
D14*
X77080000Y-96140000D02*
X77080000Y-95640000D01*
X77080000Y-96140000D02*
X76580000Y-96140000D01*
X74380000Y-96140000D02*
X74380000Y-95640000D01*
X74380000Y-96140000D02*
X74880000Y-96140000D01*
X74880000Y-93440000D02*
X74880000Y-93240000D01*
X74380000Y-93440000D02*
X74380000Y-93940000D01*
X74380000Y-93440000D02*
X74880000Y-93440000D01*
X77080000Y-93440000D02*
X77080000Y-93815000D01*
X77080000Y-93440000D02*
X76705000Y-93440000D01*
X90109200Y-69475000D02*
G75*
G03*
X90109200Y-69475000I-11226800J0D01*
G01*
X68316000Y-73386600D02*
X65572800Y-73386600D01*
X68316000Y-65563400D02*
X65572800Y-65563400D01*
X65572800Y-73386600D02*
X65572800Y-70541800D01*
X65572800Y-65563400D02*
X65572800Y-68408200D01*
D10*
X61457142Y-69852380D02*
X61123809Y-69376190D01*
X60885714Y-69852380D02*
X60885714Y-68852380D01*
X61266666Y-68852380D01*
X61361904Y-68900000D01*
X61409523Y-68947619D01*
X61457142Y-69042857D01*
X61457142Y-69185714D01*
X61409523Y-69280952D01*
X61361904Y-69328571D01*
X61266666Y-69376190D01*
X60885714Y-69376190D01*
X61838095Y-68947619D02*
X61885714Y-68900000D01*
X61980952Y-68852380D01*
X62219047Y-68852380D01*
X62314285Y-68900000D01*
X62361904Y-68947619D01*
X62409523Y-69042857D01*
X62409523Y-69138095D01*
X62361904Y-69280952D01*
X61790476Y-69852380D01*
X62409523Y-69852380D01*
X62980952Y-69280952D02*
X62885714Y-69233333D01*
X62838095Y-69185714D01*
X62790476Y-69090476D01*
X62790476Y-69042857D01*
X62838095Y-68947619D01*
X62885714Y-68900000D01*
X62980952Y-68852380D01*
X63171428Y-68852380D01*
X63266666Y-68900000D01*
X63314285Y-68947619D01*
X63361904Y-69042857D01*
X63361904Y-69090476D01*
X63314285Y-69185714D01*
X63266666Y-69233333D01*
X63171428Y-69280952D01*
X62980952Y-69280952D01*
X62885714Y-69328571D01*
X62838095Y-69376190D01*
X62790476Y-69471428D01*
X62790476Y-69661904D01*
X62838095Y-69757142D01*
X62885714Y-69804761D01*
X62980952Y-69852380D01*
X63171428Y-69852380D01*
X63266666Y-69804761D01*
X63314285Y-69757142D01*
X63361904Y-69661904D01*
X63361904Y-69471428D01*
X63314285Y-69376190D01*
X63266666Y-69328571D01*
X63171428Y-69280952D01*
X73827380Y-81917857D02*
X73351190Y-82251190D01*
X73827380Y-82489285D02*
X72827380Y-82489285D01*
X72827380Y-82108333D01*
X72875000Y-82013095D01*
X72922619Y-81965476D01*
X73017857Y-81917857D01*
X73160714Y-81917857D01*
X73255952Y-81965476D01*
X73303571Y-82013095D01*
X73351190Y-82108333D01*
X73351190Y-82489285D01*
X72922619Y-81536904D02*
X72875000Y-81489285D01*
X72827380Y-81394047D01*
X72827380Y-81155952D01*
X72875000Y-81060714D01*
X72922619Y-81013095D01*
X73017857Y-80965476D01*
X73113095Y-80965476D01*
X73255952Y-81013095D01*
X73827380Y-81584523D01*
X73827380Y-80965476D01*
X72827380Y-80632142D02*
X72827380Y-79965476D01*
X73827380Y-80394047D01*
X67638095Y-58004380D02*
X68209523Y-58004380D01*
X67923809Y-59004380D02*
X67923809Y-58004380D01*
X68542857Y-59004380D02*
X68542857Y-58004380D01*
X68923809Y-58004380D01*
X69019047Y-58052000D01*
X69066666Y-58099619D01*
X69114285Y-58194857D01*
X69114285Y-58337714D01*
X69066666Y-58432952D01*
X69019047Y-58480571D01*
X68923809Y-58528190D01*
X68542857Y-58528190D01*
X69495238Y-58099619D02*
X69542857Y-58052000D01*
X69638095Y-58004380D01*
X69876190Y-58004380D01*
X69971428Y-58052000D01*
X70019047Y-58099619D01*
X70066666Y-58194857D01*
X70066666Y-58290095D01*
X70019047Y-58432952D01*
X69447619Y-59004380D01*
X70066666Y-59004380D01*
X61357142Y-82202380D02*
X61023809Y-81726190D01*
X60785714Y-82202380D02*
X60785714Y-81202380D01*
X61166666Y-81202380D01*
X61261904Y-81250000D01*
X61309523Y-81297619D01*
X61357142Y-81392857D01*
X61357142Y-81535714D01*
X61309523Y-81630952D01*
X61261904Y-81678571D01*
X61166666Y-81726190D01*
X60785714Y-81726190D01*
X61738095Y-81297619D02*
X61785714Y-81250000D01*
X61880952Y-81202380D01*
X62119047Y-81202380D01*
X62214285Y-81250000D01*
X62261904Y-81297619D01*
X62309523Y-81392857D01*
X62309523Y-81488095D01*
X62261904Y-81630952D01*
X61690476Y-82202380D01*
X62309523Y-82202380D01*
X63166666Y-81202380D02*
X62976190Y-81202380D01*
X62880952Y-81250000D01*
X62833333Y-81297619D01*
X62738095Y-81440476D01*
X62690476Y-81630952D01*
X62690476Y-82011904D01*
X62738095Y-82107142D01*
X62785714Y-82154761D01*
X62880952Y-82202380D01*
X63071428Y-82202380D01*
X63166666Y-82154761D01*
X63214285Y-82107142D01*
X63261904Y-82011904D01*
X63261904Y-81773809D01*
X63214285Y-81678571D01*
X63166666Y-81630952D01*
X63071428Y-81583333D01*
X62880952Y-81583333D01*
X62785714Y-81630952D01*
X62738095Y-81678571D01*
X62690476Y-81773809D01*
X61357142Y-77702380D02*
X61023809Y-77226190D01*
X60785714Y-77702380D02*
X60785714Y-76702380D01*
X61166666Y-76702380D01*
X61261904Y-76750000D01*
X61309523Y-76797619D01*
X61357142Y-76892857D01*
X61357142Y-77035714D01*
X61309523Y-77130952D01*
X61261904Y-77178571D01*
X61166666Y-77226190D01*
X60785714Y-77226190D01*
X61738095Y-76797619D02*
X61785714Y-76750000D01*
X61880952Y-76702380D01*
X62119047Y-76702380D01*
X62214285Y-76750000D01*
X62261904Y-76797619D01*
X62309523Y-76892857D01*
X62309523Y-76988095D01*
X62261904Y-77130952D01*
X61690476Y-77702380D01*
X62309523Y-77702380D01*
X63214285Y-76702380D02*
X62738095Y-76702380D01*
X62690476Y-77178571D01*
X62738095Y-77130952D01*
X62833333Y-77083333D01*
X63071428Y-77083333D01*
X63166666Y-77130952D01*
X63214285Y-77178571D01*
X63261904Y-77273809D01*
X63261904Y-77511904D01*
X63214285Y-77607142D01*
X63166666Y-77654761D01*
X63071428Y-77702380D01*
X62833333Y-77702380D01*
X62738095Y-77654761D01*
X62690476Y-77607142D01*
X78002380Y-88117857D02*
X77526190Y-88451190D01*
X78002380Y-88689285D02*
X77002380Y-88689285D01*
X77002380Y-88308333D01*
X77050000Y-88213095D01*
X77097619Y-88165476D01*
X77192857Y-88117857D01*
X77335714Y-88117857D01*
X77430952Y-88165476D01*
X77478571Y-88213095D01*
X77526190Y-88308333D01*
X77526190Y-88689285D01*
X77097619Y-87736904D02*
X77050000Y-87689285D01*
X77002380Y-87594047D01*
X77002380Y-87355952D01*
X77050000Y-87260714D01*
X77097619Y-87213095D01*
X77192857Y-87165476D01*
X77288095Y-87165476D01*
X77430952Y-87213095D01*
X78002380Y-87784523D01*
X78002380Y-87165476D01*
X77335714Y-86308333D02*
X78002380Y-86308333D01*
X76954761Y-86546428D02*
X77669047Y-86784523D01*
X77669047Y-86165476D01*
X97257142Y-97252380D02*
X96923809Y-96776190D01*
X96685714Y-97252380D02*
X96685714Y-96252380D01*
X97066666Y-96252380D01*
X97161904Y-96300000D01*
X97209523Y-96347619D01*
X97257142Y-96442857D01*
X97257142Y-96585714D01*
X97209523Y-96680952D01*
X97161904Y-96728571D01*
X97066666Y-96776190D01*
X96685714Y-96776190D01*
X97638095Y-96347619D02*
X97685714Y-96300000D01*
X97780952Y-96252380D01*
X98019047Y-96252380D01*
X98114285Y-96300000D01*
X98161904Y-96347619D01*
X98209523Y-96442857D01*
X98209523Y-96538095D01*
X98161904Y-96680952D01*
X97590476Y-97252380D01*
X98209523Y-97252380D01*
X98542857Y-96252380D02*
X99161904Y-96252380D01*
X98828571Y-96633333D01*
X98971428Y-96633333D01*
X99066666Y-96680952D01*
X99114285Y-96728571D01*
X99161904Y-96823809D01*
X99161904Y-97061904D01*
X99114285Y-97157142D01*
X99066666Y-97204761D01*
X98971428Y-97252380D01*
X98685714Y-97252380D01*
X98590476Y-97204761D01*
X98542857Y-97157142D01*
X103557142Y-97252380D02*
X103223809Y-96776190D01*
X102985714Y-97252380D02*
X102985714Y-96252380D01*
X103366666Y-96252380D01*
X103461904Y-96300000D01*
X103509523Y-96347619D01*
X103557142Y-96442857D01*
X103557142Y-96585714D01*
X103509523Y-96680952D01*
X103461904Y-96728571D01*
X103366666Y-96776190D01*
X102985714Y-96776190D01*
X103938095Y-96347619D02*
X103985714Y-96300000D01*
X104080952Y-96252380D01*
X104319047Y-96252380D01*
X104414285Y-96300000D01*
X104461904Y-96347619D01*
X104509523Y-96442857D01*
X104509523Y-96538095D01*
X104461904Y-96680952D01*
X103890476Y-97252380D01*
X104509523Y-97252380D01*
X104890476Y-96347619D02*
X104938095Y-96300000D01*
X105033333Y-96252380D01*
X105271428Y-96252380D01*
X105366666Y-96300000D01*
X105414285Y-96347619D01*
X105461904Y-96442857D01*
X105461904Y-96538095D01*
X105414285Y-96680952D01*
X104842857Y-97252380D01*
X105461904Y-97252380D01*
X93237142Y-75562380D02*
X92903809Y-75086190D01*
X92665714Y-75562380D02*
X92665714Y-74562380D01*
X93046666Y-74562380D01*
X93141904Y-74610000D01*
X93189523Y-74657619D01*
X93237142Y-74752857D01*
X93237142Y-74895714D01*
X93189523Y-74990952D01*
X93141904Y-75038571D01*
X93046666Y-75086190D01*
X92665714Y-75086190D01*
X94189523Y-75562380D02*
X93618095Y-75562380D01*
X93903809Y-75562380D02*
X93903809Y-74562380D01*
X93808571Y-74705238D01*
X93713333Y-74800476D01*
X93618095Y-74848095D01*
X94665714Y-75562380D02*
X94856190Y-75562380D01*
X94951428Y-75514761D01*
X94999047Y-75467142D01*
X95094285Y-75324285D01*
X95141904Y-75133809D01*
X95141904Y-74752857D01*
X95094285Y-74657619D01*
X95046666Y-74610000D01*
X94951428Y-74562380D01*
X94760952Y-74562380D01*
X94665714Y-74610000D01*
X94618095Y-74657619D01*
X94570476Y-74752857D01*
X94570476Y-74990952D01*
X94618095Y-75086190D01*
X94665714Y-75133809D01*
X94760952Y-75181428D01*
X94951428Y-75181428D01*
X95046666Y-75133809D01*
X95094285Y-75086190D01*
X95141904Y-74990952D01*
X93237142Y-77672380D02*
X92903809Y-77196190D01*
X92665714Y-77672380D02*
X92665714Y-76672380D01*
X93046666Y-76672380D01*
X93141904Y-76720000D01*
X93189523Y-76767619D01*
X93237142Y-76862857D01*
X93237142Y-77005714D01*
X93189523Y-77100952D01*
X93141904Y-77148571D01*
X93046666Y-77196190D01*
X92665714Y-77196190D01*
X94189523Y-77672380D02*
X93618095Y-77672380D01*
X93903809Y-77672380D02*
X93903809Y-76672380D01*
X93808571Y-76815238D01*
X93713333Y-76910476D01*
X93618095Y-76958095D01*
X94760952Y-77100952D02*
X94665714Y-77053333D01*
X94618095Y-77005714D01*
X94570476Y-76910476D01*
X94570476Y-76862857D01*
X94618095Y-76767619D01*
X94665714Y-76720000D01*
X94760952Y-76672380D01*
X94951428Y-76672380D01*
X95046666Y-76720000D01*
X95094285Y-76767619D01*
X95141904Y-76862857D01*
X95141904Y-76910476D01*
X95094285Y-77005714D01*
X95046666Y-77053333D01*
X94951428Y-77100952D01*
X94760952Y-77100952D01*
X94665714Y-77148571D01*
X94618095Y-77196190D01*
X94570476Y-77291428D01*
X94570476Y-77481904D01*
X94618095Y-77577142D01*
X94665714Y-77624761D01*
X94760952Y-77672380D01*
X94951428Y-77672380D01*
X95046666Y-77624761D01*
X95094285Y-77577142D01*
X95141904Y-77481904D01*
X95141904Y-77291428D01*
X95094285Y-77196190D01*
X95046666Y-77148571D01*
X94951428Y-77100952D01*
X97257142Y-95052380D02*
X96923809Y-94576190D01*
X96685714Y-95052380D02*
X96685714Y-94052380D01*
X97066666Y-94052380D01*
X97161904Y-94100000D01*
X97209523Y-94147619D01*
X97257142Y-94242857D01*
X97257142Y-94385714D01*
X97209523Y-94480952D01*
X97161904Y-94528571D01*
X97066666Y-94576190D01*
X96685714Y-94576190D01*
X98209523Y-95052380D02*
X97638095Y-95052380D01*
X97923809Y-95052380D02*
X97923809Y-94052380D01*
X97828571Y-94195238D01*
X97733333Y-94290476D01*
X97638095Y-94338095D01*
X99066666Y-94385714D02*
X99066666Y-95052380D01*
X98828571Y-94004761D02*
X98590476Y-94719047D01*
X99209523Y-94719047D01*
X103557142Y-95152380D02*
X103223809Y-94676190D01*
X102985714Y-95152380D02*
X102985714Y-94152380D01*
X103366666Y-94152380D01*
X103461904Y-94200000D01*
X103509523Y-94247619D01*
X103557142Y-94342857D01*
X103557142Y-94485714D01*
X103509523Y-94580952D01*
X103461904Y-94628571D01*
X103366666Y-94676190D01*
X102985714Y-94676190D01*
X104509523Y-95152380D02*
X103938095Y-95152380D01*
X104223809Y-95152380D02*
X104223809Y-94152380D01*
X104128571Y-94295238D01*
X104033333Y-94390476D01*
X103938095Y-94438095D01*
X104842857Y-94152380D02*
X105461904Y-94152380D01*
X105128571Y-94533333D01*
X105271428Y-94533333D01*
X105366666Y-94580952D01*
X105414285Y-94628571D01*
X105461904Y-94723809D01*
X105461904Y-94961904D01*
X105414285Y-95057142D01*
X105366666Y-95104761D01*
X105271428Y-95152380D01*
X104985714Y-95152380D01*
X104890476Y-95104761D01*
X104842857Y-95057142D01*
X93157142Y-71252380D02*
X92823809Y-70776190D01*
X92585714Y-71252380D02*
X92585714Y-70252380D01*
X92966666Y-70252380D01*
X93061904Y-70300000D01*
X93109523Y-70347619D01*
X93157142Y-70442857D01*
X93157142Y-70585714D01*
X93109523Y-70680952D01*
X93061904Y-70728571D01*
X92966666Y-70776190D01*
X92585714Y-70776190D01*
X94109523Y-71252380D02*
X93538095Y-71252380D01*
X93823809Y-71252380D02*
X93823809Y-70252380D01*
X93728571Y-70395238D01*
X93633333Y-70490476D01*
X93538095Y-70538095D01*
X94490476Y-70347619D02*
X94538095Y-70300000D01*
X94633333Y-70252380D01*
X94871428Y-70252380D01*
X94966666Y-70300000D01*
X95014285Y-70347619D01*
X95061904Y-70442857D01*
X95061904Y-70538095D01*
X95014285Y-70680952D01*
X94442857Y-71252380D01*
X95061904Y-71252380D01*
X93257142Y-73452380D02*
X92923809Y-72976190D01*
X92685714Y-73452380D02*
X92685714Y-72452380D01*
X93066666Y-72452380D01*
X93161904Y-72500000D01*
X93209523Y-72547619D01*
X93257142Y-72642857D01*
X93257142Y-72785714D01*
X93209523Y-72880952D01*
X93161904Y-72928571D01*
X93066666Y-72976190D01*
X92685714Y-72976190D01*
X94209523Y-73452380D02*
X93638095Y-73452380D01*
X93923809Y-73452380D02*
X93923809Y-72452380D01*
X93828571Y-72595238D01*
X93733333Y-72690476D01*
X93638095Y-72738095D01*
X95161904Y-73452380D02*
X94590476Y-73452380D01*
X94876190Y-73452380D02*
X94876190Y-72452380D01*
X94780952Y-72595238D01*
X94685714Y-72690476D01*
X94590476Y-72738095D01*
X98333333Y-93052380D02*
X98000000Y-92576190D01*
X97761904Y-93052380D02*
X97761904Y-92052380D01*
X98142857Y-92052380D01*
X98238095Y-92100000D01*
X98285714Y-92147619D01*
X98333333Y-92242857D01*
X98333333Y-92385714D01*
X98285714Y-92480952D01*
X98238095Y-92528571D01*
X98142857Y-92576190D01*
X97761904Y-92576190D01*
X98809523Y-93052380D02*
X99000000Y-93052380D01*
X99095238Y-93004761D01*
X99142857Y-92957142D01*
X99238095Y-92814285D01*
X99285714Y-92623809D01*
X99285714Y-92242857D01*
X99238095Y-92147619D01*
X99190476Y-92100000D01*
X99095238Y-92052380D01*
X98904761Y-92052380D01*
X98809523Y-92100000D01*
X98761904Y-92147619D01*
X98714285Y-92242857D01*
X98714285Y-92480952D01*
X98761904Y-92576190D01*
X98809523Y-92623809D01*
X98904761Y-92671428D01*
X99095238Y-92671428D01*
X99190476Y-92623809D01*
X99238095Y-92576190D01*
X99285714Y-92480952D01*
X104433333Y-93052380D02*
X104100000Y-92576190D01*
X103861904Y-93052380D02*
X103861904Y-92052380D01*
X104242857Y-92052380D01*
X104338095Y-92100000D01*
X104385714Y-92147619D01*
X104433333Y-92242857D01*
X104433333Y-92385714D01*
X104385714Y-92480952D01*
X104338095Y-92528571D01*
X104242857Y-92576190D01*
X103861904Y-92576190D01*
X105004761Y-92480952D02*
X104909523Y-92433333D01*
X104861904Y-92385714D01*
X104814285Y-92290476D01*
X104814285Y-92242857D01*
X104861904Y-92147619D01*
X104909523Y-92100000D01*
X105004761Y-92052380D01*
X105195238Y-92052380D01*
X105290476Y-92100000D01*
X105338095Y-92147619D01*
X105385714Y-92242857D01*
X105385714Y-92290476D01*
X105338095Y-92385714D01*
X105290476Y-92433333D01*
X105195238Y-92480952D01*
X105004761Y-92480952D01*
X104909523Y-92528571D01*
X104861904Y-92576190D01*
X104814285Y-92671428D01*
X104814285Y-92861904D01*
X104861904Y-92957142D01*
X104909523Y-93004761D01*
X105004761Y-93052380D01*
X105195238Y-93052380D01*
X105290476Y-93004761D01*
X105338095Y-92957142D01*
X105385714Y-92861904D01*
X105385714Y-92671428D01*
X105338095Y-92576190D01*
X105290476Y-92528571D01*
X105195238Y-92480952D01*
X59272380Y-94056666D02*
X58796190Y-94390000D01*
X59272380Y-94628095D02*
X58272380Y-94628095D01*
X58272380Y-94247142D01*
X58320000Y-94151904D01*
X58367619Y-94104285D01*
X58462857Y-94056666D01*
X58605714Y-94056666D01*
X58700952Y-94104285D01*
X58748571Y-94151904D01*
X58796190Y-94247142D01*
X58796190Y-94628095D01*
X58272380Y-93723333D02*
X58272380Y-93056666D01*
X59272380Y-93485238D01*
X92617380Y-83233333D02*
X93331666Y-83233333D01*
X93474523Y-83280952D01*
X93569761Y-83376190D01*
X93617380Y-83519047D01*
X93617380Y-83614285D01*
X92617380Y-82280952D02*
X92617380Y-82757142D01*
X93093571Y-82804761D01*
X93045952Y-82757142D01*
X92998333Y-82661904D01*
X92998333Y-82423809D01*
X93045952Y-82328571D01*
X93093571Y-82280952D01*
X93188809Y-82233333D01*
X93426904Y-82233333D01*
X93522142Y-82280952D01*
X93569761Y-82328571D01*
X93617380Y-82423809D01*
X93617380Y-82661904D01*
X93569761Y-82757142D01*
X93522142Y-82804761D01*
X112666666Y-67372380D02*
X112666666Y-68086666D01*
X112619047Y-68229523D01*
X112523809Y-68324761D01*
X112380952Y-68372380D01*
X112285714Y-68372380D01*
X113571428Y-67705714D02*
X113571428Y-68372380D01*
X113333333Y-67324761D02*
X113095238Y-68039047D01*
X113714285Y-68039047D01*
X57261904Y-82302380D02*
X57261904Y-81302380D01*
X57500000Y-81302380D01*
X57642857Y-81350000D01*
X57738095Y-81445238D01*
X57785714Y-81540476D01*
X57833333Y-81730952D01*
X57833333Y-81873809D01*
X57785714Y-82064285D01*
X57738095Y-82159523D01*
X57642857Y-82254761D01*
X57500000Y-82302380D01*
X57261904Y-82302380D01*
X58690476Y-81635714D02*
X58690476Y-82302380D01*
X58452380Y-81254761D02*
X58214285Y-81969047D01*
X58833333Y-81969047D01*
X57261904Y-77802380D02*
X57261904Y-76802380D01*
X57500000Y-76802380D01*
X57642857Y-76850000D01*
X57738095Y-76945238D01*
X57785714Y-77040476D01*
X57833333Y-77230952D01*
X57833333Y-77373809D01*
X57785714Y-77564285D01*
X57738095Y-77659523D01*
X57642857Y-77754761D01*
X57500000Y-77802380D01*
X57261904Y-77802380D01*
X58166666Y-76802380D02*
X58785714Y-76802380D01*
X58452380Y-77183333D01*
X58595238Y-77183333D01*
X58690476Y-77230952D01*
X58738095Y-77278571D01*
X58785714Y-77373809D01*
X58785714Y-77611904D01*
X58738095Y-77707142D01*
X58690476Y-77754761D01*
X58595238Y-77802380D01*
X58309523Y-77802380D01*
X58214285Y-77754761D01*
X58166666Y-77707142D01*
X75807142Y-81842857D02*
X75854761Y-81890476D01*
X75902380Y-82033333D01*
X75902380Y-82128571D01*
X75854761Y-82271428D01*
X75759523Y-82366666D01*
X75664285Y-82414285D01*
X75473809Y-82461904D01*
X75330952Y-82461904D01*
X75140476Y-82414285D01*
X75045238Y-82366666D01*
X74950000Y-82271428D01*
X74902380Y-82128571D01*
X74902380Y-82033333D01*
X74950000Y-81890476D01*
X74997619Y-81842857D01*
X75902380Y-80890476D02*
X75902380Y-81461904D01*
X75902380Y-81176190D02*
X74902380Y-81176190D01*
X75045238Y-81271428D01*
X75140476Y-81366666D01*
X75188095Y-81461904D01*
X74902380Y-80271428D02*
X74902380Y-80176190D01*
X74950000Y-80080952D01*
X74997619Y-80033333D01*
X75092857Y-79985714D01*
X75283333Y-79938095D01*
X75521428Y-79938095D01*
X75711904Y-79985714D01*
X75807142Y-80033333D01*
X75854761Y-80080952D01*
X75902380Y-80176190D01*
X75902380Y-80271428D01*
X75854761Y-80366666D01*
X75807142Y-80414285D01*
X75711904Y-80461904D01*
X75521428Y-80509523D01*
X75283333Y-80509523D01*
X75092857Y-80461904D01*
X74997619Y-80414285D01*
X74950000Y-80366666D01*
X74902380Y-80271428D01*
X87152380Y-97188095D02*
X87152380Y-96616666D01*
X88152380Y-96902380D02*
X87152380Y-96902380D01*
X88152380Y-96283333D02*
X87152380Y-96283333D01*
X87152380Y-95902380D01*
X87200000Y-95807142D01*
X87247619Y-95759523D01*
X87342857Y-95711904D01*
X87485714Y-95711904D01*
X87580952Y-95759523D01*
X87628571Y-95807142D01*
X87676190Y-95902380D01*
X87676190Y-96283333D01*
X88152380Y-94759523D02*
X88152380Y-95330952D01*
X88152380Y-95045238D02*
X87152380Y-95045238D01*
X87295238Y-95140476D01*
X87390476Y-95235714D01*
X87438095Y-95330952D01*
X87152380Y-94140476D02*
X87152380Y-94045238D01*
X87200000Y-93950000D01*
X87247619Y-93902380D01*
X87342857Y-93854761D01*
X87533333Y-93807142D01*
X87771428Y-93807142D01*
X87961904Y-93854761D01*
X88057142Y-93902380D01*
X88104761Y-93950000D01*
X88152380Y-94045238D01*
X88152380Y-94140476D01*
X88104761Y-94235714D01*
X88057142Y-94283333D01*
X87961904Y-94330952D01*
X87771428Y-94378571D01*
X87533333Y-94378571D01*
X87342857Y-94330952D01*
X87247619Y-94283333D01*
X87200000Y-94235714D01*
X87152380Y-94140476D01*
X90252380Y-96711904D02*
X90252380Y-96140476D01*
X91252380Y-96426190D02*
X90252380Y-96426190D01*
X91252380Y-95807142D02*
X90252380Y-95807142D01*
X90252380Y-95426190D01*
X90300000Y-95330952D01*
X90347619Y-95283333D01*
X90442857Y-95235714D01*
X90585714Y-95235714D01*
X90680952Y-95283333D01*
X90728571Y-95330952D01*
X90776190Y-95426190D01*
X90776190Y-95807142D01*
X91252380Y-94759523D02*
X91252380Y-94569047D01*
X91204761Y-94473809D01*
X91157142Y-94426190D01*
X91014285Y-94330952D01*
X90823809Y-94283333D01*
X90442857Y-94283333D01*
X90347619Y-94330952D01*
X90300000Y-94378571D01*
X90252380Y-94473809D01*
X90252380Y-94664285D01*
X90300000Y-94759523D01*
X90347619Y-94807142D01*
X90442857Y-94854761D01*
X90680952Y-94854761D01*
X90776190Y-94807142D01*
X90823809Y-94759523D01*
X90871428Y-94664285D01*
X90871428Y-94473809D01*
X90823809Y-94378571D01*
X90776190Y-94330952D01*
X90680952Y-94283333D01*
X103038095Y-82929380D02*
X103609523Y-82929380D01*
X103323809Y-83929380D02*
X103323809Y-82929380D01*
X103942857Y-83929380D02*
X103942857Y-82929380D01*
X104323809Y-82929380D01*
X104419047Y-82977000D01*
X104466666Y-83024619D01*
X104514285Y-83119857D01*
X104514285Y-83262714D01*
X104466666Y-83357952D01*
X104419047Y-83405571D01*
X104323809Y-83453190D01*
X103942857Y-83453190D01*
X105085714Y-83357952D02*
X104990476Y-83310333D01*
X104942857Y-83262714D01*
X104895238Y-83167476D01*
X104895238Y-83119857D01*
X104942857Y-83024619D01*
X104990476Y-82977000D01*
X105085714Y-82929380D01*
X105276190Y-82929380D01*
X105371428Y-82977000D01*
X105419047Y-83024619D01*
X105466666Y-83119857D01*
X105466666Y-83167476D01*
X105419047Y-83262714D01*
X105371428Y-83310333D01*
X105276190Y-83357952D01*
X105085714Y-83357952D01*
X104990476Y-83405571D01*
X104942857Y-83453190D01*
X104895238Y-83548428D01*
X104895238Y-83738904D01*
X104942857Y-83834142D01*
X104990476Y-83881761D01*
X105085714Y-83929380D01*
X105276190Y-83929380D01*
X105371428Y-83881761D01*
X105419047Y-83834142D01*
X105466666Y-83738904D01*
X105466666Y-83548428D01*
X105419047Y-83453190D01*
X105371428Y-83405571D01*
X105276190Y-83357952D01*
X83902380Y-96711904D02*
X83902380Y-96140476D01*
X84902380Y-96426190D02*
X83902380Y-96426190D01*
X84902380Y-95807142D02*
X83902380Y-95807142D01*
X83902380Y-95426190D01*
X83950000Y-95330952D01*
X83997619Y-95283333D01*
X84092857Y-95235714D01*
X84235714Y-95235714D01*
X84330952Y-95283333D01*
X84378571Y-95330952D01*
X84426190Y-95426190D01*
X84426190Y-95807142D01*
X83902380Y-94902380D02*
X83902380Y-94235714D01*
X84902380Y-94664285D01*
X99538095Y-60504380D02*
X100109523Y-60504380D01*
X99823809Y-61504380D02*
X99823809Y-60504380D01*
X100442857Y-61504380D02*
X100442857Y-60504380D01*
X100823809Y-60504380D01*
X100919047Y-60552000D01*
X100966666Y-60599619D01*
X101014285Y-60694857D01*
X101014285Y-60837714D01*
X100966666Y-60932952D01*
X100919047Y-60980571D01*
X100823809Y-61028190D01*
X100442857Y-61028190D01*
X101871428Y-60504380D02*
X101680952Y-60504380D01*
X101585714Y-60552000D01*
X101538095Y-60599619D01*
X101442857Y-60742476D01*
X101395238Y-60932952D01*
X101395238Y-61313904D01*
X101442857Y-61409142D01*
X101490476Y-61456761D01*
X101585714Y-61504380D01*
X101776190Y-61504380D01*
X101871428Y-61456761D01*
X101919047Y-61409142D01*
X101966666Y-61313904D01*
X101966666Y-61075809D01*
X101919047Y-60980571D01*
X101871428Y-60932952D01*
X101776190Y-60885333D01*
X101585714Y-60885333D01*
X101490476Y-60932952D01*
X101442857Y-60980571D01*
X101395238Y-61075809D01*
X103038095Y-79729380D02*
X103609523Y-79729380D01*
X103323809Y-80729380D02*
X103323809Y-79729380D01*
X103942857Y-80729380D02*
X103942857Y-79729380D01*
X104323809Y-79729380D01*
X104419047Y-79777000D01*
X104466666Y-79824619D01*
X104514285Y-79919857D01*
X104514285Y-80062714D01*
X104466666Y-80157952D01*
X104419047Y-80205571D01*
X104323809Y-80253190D01*
X103942857Y-80253190D01*
X105419047Y-79729380D02*
X104942857Y-79729380D01*
X104895238Y-80205571D01*
X104942857Y-80157952D01*
X105038095Y-80110333D01*
X105276190Y-80110333D01*
X105371428Y-80157952D01*
X105419047Y-80205571D01*
X105466666Y-80300809D01*
X105466666Y-80538904D01*
X105419047Y-80634142D01*
X105371428Y-80681761D01*
X105276190Y-80729380D01*
X105038095Y-80729380D01*
X104942857Y-80681761D01*
X104895238Y-80634142D01*
X93375380Y-96711904D02*
X93375380Y-96140476D01*
X94375380Y-96426190D02*
X93375380Y-96426190D01*
X94375380Y-95807142D02*
X93375380Y-95807142D01*
X93375380Y-95426190D01*
X93423000Y-95330952D01*
X93470619Y-95283333D01*
X93565857Y-95235714D01*
X93708714Y-95235714D01*
X93803952Y-95283333D01*
X93851571Y-95330952D01*
X93899190Y-95426190D01*
X93899190Y-95807142D01*
X93708714Y-94378571D02*
X94375380Y-94378571D01*
X93327761Y-94616666D02*
X94042047Y-94854761D01*
X94042047Y-94235714D01*
X99538095Y-57204380D02*
X100109523Y-57204380D01*
X99823809Y-58204380D02*
X99823809Y-57204380D01*
X100442857Y-58204380D02*
X100442857Y-57204380D01*
X100823809Y-57204380D01*
X100919047Y-57252000D01*
X100966666Y-57299619D01*
X101014285Y-57394857D01*
X101014285Y-57537714D01*
X100966666Y-57632952D01*
X100919047Y-57680571D01*
X100823809Y-57728190D01*
X100442857Y-57728190D01*
X101347619Y-57204380D02*
X101966666Y-57204380D01*
X101633333Y-57585333D01*
X101776190Y-57585333D01*
X101871428Y-57632952D01*
X101919047Y-57680571D01*
X101966666Y-57775809D01*
X101966666Y-58013904D01*
X101919047Y-58109142D01*
X101871428Y-58156761D01*
X101776190Y-58204380D01*
X101490476Y-58204380D01*
X101395238Y-58156761D01*
X101347619Y-58109142D01*
X51238095Y-58004380D02*
X51809523Y-58004380D01*
X51523809Y-59004380D02*
X51523809Y-58004380D01*
X52142857Y-59004380D02*
X52142857Y-58004380D01*
X52523809Y-58004380D01*
X52619047Y-58052000D01*
X52666666Y-58099619D01*
X52714285Y-58194857D01*
X52714285Y-58337714D01*
X52666666Y-58432952D01*
X52619047Y-58480571D01*
X52523809Y-58528190D01*
X52142857Y-58528190D01*
X53666666Y-59004380D02*
X53095238Y-59004380D01*
X53380952Y-59004380D02*
X53380952Y-58004380D01*
X53285714Y-58147238D01*
X53190476Y-58242476D01*
X53095238Y-58290095D01*
X81338095Y-83152380D02*
X81338095Y-83961904D01*
X81385714Y-84057142D01*
X81433333Y-84104761D01*
X81528571Y-84152380D01*
X81719047Y-84152380D01*
X81814285Y-84104761D01*
X81861904Y-84057142D01*
X81909523Y-83961904D01*
X81909523Y-83152380D01*
X82814285Y-83485714D02*
X82814285Y-84152380D01*
X82576190Y-83104761D02*
X82338095Y-83819047D01*
X82957142Y-83819047D01*
X67312380Y-93101904D02*
X68121904Y-93101904D01*
X68217142Y-93054285D01*
X68264761Y-93006666D01*
X68312380Y-92911428D01*
X68312380Y-92720952D01*
X68264761Y-92625714D01*
X68217142Y-92578095D01*
X68121904Y-92530476D01*
X67312380Y-92530476D01*
X67312380Y-92149523D02*
X67312380Y-91530476D01*
X67693333Y-91863809D01*
X67693333Y-91720952D01*
X67740952Y-91625714D01*
X67788571Y-91578095D01*
X67883809Y-91530476D01*
X68121904Y-91530476D01*
X68217142Y-91578095D01*
X68264761Y-91625714D01*
X68312380Y-91720952D01*
X68312380Y-92006666D01*
X68264761Y-92101904D01*
X68217142Y-92149523D01*
X92052380Y-68761904D02*
X92861904Y-68761904D01*
X92957142Y-68714285D01*
X93004761Y-68666666D01*
X93052380Y-68571428D01*
X93052380Y-68380952D01*
X93004761Y-68285714D01*
X92957142Y-68238095D01*
X92861904Y-68190476D01*
X92052380Y-68190476D01*
X92147619Y-67761904D02*
X92100000Y-67714285D01*
X92052380Y-67619047D01*
X92052380Y-67380952D01*
X92100000Y-67285714D01*
X92147619Y-67238095D01*
X92242857Y-67190476D01*
X92338095Y-67190476D01*
X92480952Y-67238095D01*
X93052380Y-67809523D01*
X93052380Y-67190476D01*
X69627380Y-81792857D02*
X69151190Y-82126190D01*
X69627380Y-82364285D02*
X68627380Y-82364285D01*
X68627380Y-81983333D01*
X68675000Y-81888095D01*
X68722619Y-81840476D01*
X68817857Y-81792857D01*
X68960714Y-81792857D01*
X69055952Y-81840476D01*
X69103571Y-81888095D01*
X69151190Y-81983333D01*
X69151190Y-82364285D01*
X68722619Y-81411904D02*
X68675000Y-81364285D01*
X68627380Y-81269047D01*
X68627380Y-81030952D01*
X68675000Y-80935714D01*
X68722619Y-80888095D01*
X68817857Y-80840476D01*
X68913095Y-80840476D01*
X69055952Y-80888095D01*
X69627380Y-81459523D01*
X69627380Y-80840476D01*
X69627380Y-79888095D02*
X69627380Y-80459523D01*
X69627380Y-80173809D02*
X68627380Y-80173809D01*
X68770238Y-80269047D01*
X68865476Y-80364285D01*
X68913095Y-80459523D01*
X71752380Y-81892857D02*
X71276190Y-82226190D01*
X71752380Y-82464285D02*
X70752380Y-82464285D01*
X70752380Y-82083333D01*
X70800000Y-81988095D01*
X70847619Y-81940476D01*
X70942857Y-81892857D01*
X71085714Y-81892857D01*
X71180952Y-81940476D01*
X71228571Y-81988095D01*
X71276190Y-82083333D01*
X71276190Y-82464285D01*
X70847619Y-81511904D02*
X70800000Y-81464285D01*
X70752380Y-81369047D01*
X70752380Y-81130952D01*
X70800000Y-81035714D01*
X70847619Y-80988095D01*
X70942857Y-80940476D01*
X71038095Y-80940476D01*
X71180952Y-80988095D01*
X71752380Y-81559523D01*
X71752380Y-80940476D01*
X70752380Y-80321428D02*
X70752380Y-80226190D01*
X70800000Y-80130952D01*
X70847619Y-80083333D01*
X70942857Y-80035714D01*
X71133333Y-79988095D01*
X71371428Y-79988095D01*
X71561904Y-80035714D01*
X71657142Y-80083333D01*
X71704761Y-80130952D01*
X71752380Y-80226190D01*
X71752380Y-80321428D01*
X71704761Y-80416666D01*
X71657142Y-80464285D01*
X71561904Y-80511904D01*
X71371428Y-80559523D01*
X71133333Y-80559523D01*
X70942857Y-80511904D01*
X70847619Y-80464285D01*
X70800000Y-80416666D01*
X70752380Y-80321428D01*
X67602380Y-81867857D02*
X67126190Y-82201190D01*
X67602380Y-82439285D02*
X66602380Y-82439285D01*
X66602380Y-82058333D01*
X66650000Y-81963095D01*
X66697619Y-81915476D01*
X66792857Y-81867857D01*
X66935714Y-81867857D01*
X67030952Y-81915476D01*
X67078571Y-81963095D01*
X67126190Y-82058333D01*
X67126190Y-82439285D01*
X67602380Y-80915476D02*
X67602380Y-81486904D01*
X67602380Y-81201190D02*
X66602380Y-81201190D01*
X66745238Y-81296428D01*
X66840476Y-81391666D01*
X66888095Y-81486904D01*
X66602380Y-80582142D02*
X66602380Y-79915476D01*
X67602380Y-80344047D01*
X65527380Y-81867857D02*
X65051190Y-82201190D01*
X65527380Y-82439285D02*
X64527380Y-82439285D01*
X64527380Y-82058333D01*
X64575000Y-81963095D01*
X64622619Y-81915476D01*
X64717857Y-81867857D01*
X64860714Y-81867857D01*
X64955952Y-81915476D01*
X65003571Y-81963095D01*
X65051190Y-82058333D01*
X65051190Y-82439285D01*
X65527380Y-80915476D02*
X65527380Y-81486904D01*
X65527380Y-81201190D02*
X64527380Y-81201190D01*
X64670238Y-81296428D01*
X64765476Y-81391666D01*
X64813095Y-81486904D01*
X64527380Y-80058333D02*
X64527380Y-80248809D01*
X64575000Y-80344047D01*
X64622619Y-80391666D01*
X64765476Y-80486904D01*
X64955952Y-80534523D01*
X65336904Y-80534523D01*
X65432142Y-80486904D01*
X65479761Y-80439285D01*
X65527380Y-80344047D01*
X65527380Y-80153571D01*
X65479761Y-80058333D01*
X65432142Y-80010714D01*
X65336904Y-79963095D01*
X65098809Y-79963095D01*
X65003571Y-80010714D01*
X64955952Y-80058333D01*
X64908333Y-80153571D01*
X64908333Y-80344047D01*
X64955952Y-80439285D01*
X65003571Y-80486904D01*
X65098809Y-80534523D01*
X61357142Y-73202380D02*
X61023809Y-72726190D01*
X60785714Y-73202380D02*
X60785714Y-72202380D01*
X61166666Y-72202380D01*
X61261904Y-72250000D01*
X61309523Y-72297619D01*
X61357142Y-72392857D01*
X61357142Y-72535714D01*
X61309523Y-72630952D01*
X61261904Y-72678571D01*
X61166666Y-72726190D01*
X60785714Y-72726190D01*
X62309523Y-73202380D02*
X61738095Y-73202380D01*
X62023809Y-73202380D02*
X62023809Y-72202380D01*
X61928571Y-72345238D01*
X61833333Y-72440476D01*
X61738095Y-72488095D01*
X63214285Y-72202380D02*
X62738095Y-72202380D01*
X62690476Y-72678571D01*
X62738095Y-72630952D01*
X62833333Y-72583333D01*
X63071428Y-72583333D01*
X63166666Y-72630952D01*
X63214285Y-72678571D01*
X63261904Y-72773809D01*
X63261904Y-73011904D01*
X63214285Y-73107142D01*
X63166666Y-73154761D01*
X63071428Y-73202380D01*
X62833333Y-73202380D01*
X62738095Y-73154761D01*
X62690476Y-73107142D01*
X71592380Y-92562857D02*
X71116190Y-92896190D01*
X71592380Y-93134285D02*
X70592380Y-93134285D01*
X70592380Y-92753333D01*
X70640000Y-92658095D01*
X70687619Y-92610476D01*
X70782857Y-92562857D01*
X70925714Y-92562857D01*
X71020952Y-92610476D01*
X71068571Y-92658095D01*
X71116190Y-92753333D01*
X71116190Y-93134285D01*
X71592380Y-91610476D02*
X71592380Y-92181904D01*
X71592380Y-91896190D02*
X70592380Y-91896190D01*
X70735238Y-91991428D01*
X70830476Y-92086666D01*
X70878095Y-92181904D01*
X70592380Y-90991428D02*
X70592380Y-90896190D01*
X70640000Y-90800952D01*
X70687619Y-90753333D01*
X70782857Y-90705714D01*
X70973333Y-90658095D01*
X71211428Y-90658095D01*
X71401904Y-90705714D01*
X71497142Y-90753333D01*
X71544761Y-90800952D01*
X71592380Y-90896190D01*
X71592380Y-90991428D01*
X71544761Y-91086666D01*
X71497142Y-91134285D01*
X71401904Y-91181904D01*
X71211428Y-91229523D01*
X70973333Y-91229523D01*
X70782857Y-91181904D01*
X70687619Y-91134285D01*
X70640000Y-91086666D01*
X70592380Y-90991428D01*
X104333333Y-90852380D02*
X104000000Y-90376190D01*
X103761904Y-90852380D02*
X103761904Y-89852380D01*
X104142857Y-89852380D01*
X104238095Y-89900000D01*
X104285714Y-89947619D01*
X104333333Y-90042857D01*
X104333333Y-90185714D01*
X104285714Y-90280952D01*
X104238095Y-90328571D01*
X104142857Y-90376190D01*
X103761904Y-90376190D01*
X105190476Y-89852380D02*
X105000000Y-89852380D01*
X104904761Y-89900000D01*
X104857142Y-89947619D01*
X104761904Y-90090476D01*
X104714285Y-90280952D01*
X104714285Y-90661904D01*
X104761904Y-90757142D01*
X104809523Y-90804761D01*
X104904761Y-90852380D01*
X105095238Y-90852380D01*
X105190476Y-90804761D01*
X105238095Y-90757142D01*
X105285714Y-90661904D01*
X105285714Y-90423809D01*
X105238095Y-90328571D01*
X105190476Y-90280952D01*
X105095238Y-90233333D01*
X104904761Y-90233333D01*
X104809523Y-90280952D01*
X104761904Y-90328571D01*
X104714285Y-90423809D01*
X104333333Y-88452380D02*
X104000000Y-87976190D01*
X103761904Y-88452380D02*
X103761904Y-87452380D01*
X104142857Y-87452380D01*
X104238095Y-87500000D01*
X104285714Y-87547619D01*
X104333333Y-87642857D01*
X104333333Y-87785714D01*
X104285714Y-87880952D01*
X104238095Y-87928571D01*
X104142857Y-87976190D01*
X103761904Y-87976190D01*
X105238095Y-87452380D02*
X104761904Y-87452380D01*
X104714285Y-87928571D01*
X104761904Y-87880952D01*
X104857142Y-87833333D01*
X105095238Y-87833333D01*
X105190476Y-87880952D01*
X105238095Y-87928571D01*
X105285714Y-88023809D01*
X105285714Y-88261904D01*
X105238095Y-88357142D01*
X105190476Y-88404761D01*
X105095238Y-88452380D01*
X104857142Y-88452380D01*
X104761904Y-88404761D01*
X104714285Y-88357142D01*
X95533333Y-58452380D02*
X95200000Y-57976190D01*
X94961904Y-58452380D02*
X94961904Y-57452380D01*
X95342857Y-57452380D01*
X95438095Y-57500000D01*
X95485714Y-57547619D01*
X95533333Y-57642857D01*
X95533333Y-57785714D01*
X95485714Y-57880952D01*
X95438095Y-57928571D01*
X95342857Y-57976190D01*
X94961904Y-57976190D01*
X96390476Y-57785714D02*
X96390476Y-58452380D01*
X96152380Y-57404761D02*
X95914285Y-58119047D01*
X96533333Y-58119047D01*
X95533333Y-59952380D02*
X95200000Y-59476190D01*
X94961904Y-59952380D02*
X94961904Y-58952380D01*
X95342857Y-58952380D01*
X95438095Y-59000000D01*
X95485714Y-59047619D01*
X95533333Y-59142857D01*
X95533333Y-59285714D01*
X95485714Y-59380952D01*
X95438095Y-59428571D01*
X95342857Y-59476190D01*
X94961904Y-59476190D01*
X95866666Y-58952380D02*
X96485714Y-58952380D01*
X96152380Y-59333333D01*
X96295238Y-59333333D01*
X96390476Y-59380952D01*
X96438095Y-59428571D01*
X96485714Y-59523809D01*
X96485714Y-59761904D01*
X96438095Y-59857142D01*
X96390476Y-59904761D01*
X96295238Y-59952380D01*
X96009523Y-59952380D01*
X95914285Y-59904761D01*
X95866666Y-59857142D01*
X88152380Y-58866666D02*
X87676190Y-59200000D01*
X88152380Y-59438095D02*
X87152380Y-59438095D01*
X87152380Y-59057142D01*
X87200000Y-58961904D01*
X87247619Y-58914285D01*
X87342857Y-58866666D01*
X87485714Y-58866666D01*
X87580952Y-58914285D01*
X87628571Y-58961904D01*
X87676190Y-59057142D01*
X87676190Y-59438095D01*
X87247619Y-58485714D02*
X87200000Y-58438095D01*
X87152380Y-58342857D01*
X87152380Y-58104761D01*
X87200000Y-58009523D01*
X87247619Y-57961904D01*
X87342857Y-57914285D01*
X87438095Y-57914285D01*
X87580952Y-57961904D01*
X88152380Y-58533333D01*
X88152380Y-57914285D01*
X58333333Y-60602380D02*
X58000000Y-60126190D01*
X57761904Y-60602380D02*
X57761904Y-59602380D01*
X58142857Y-59602380D01*
X58238095Y-59650000D01*
X58285714Y-59697619D01*
X58333333Y-59792857D01*
X58333333Y-59935714D01*
X58285714Y-60030952D01*
X58238095Y-60078571D01*
X58142857Y-60126190D01*
X57761904Y-60126190D01*
X59285714Y-60602380D02*
X58714285Y-60602380D01*
X59000000Y-60602380D02*
X59000000Y-59602380D01*
X58904761Y-59745238D01*
X58809523Y-59840476D01*
X58714285Y-59888095D01*
X65404761Y-58047619D02*
X65309523Y-58000000D01*
X65214285Y-57904761D01*
X65071428Y-57761904D01*
X64976190Y-57714285D01*
X64880952Y-57714285D01*
X64928571Y-57952380D02*
X64833333Y-57904761D01*
X64738095Y-57809523D01*
X64690476Y-57619047D01*
X64690476Y-57285714D01*
X64738095Y-57095238D01*
X64833333Y-57000000D01*
X64928571Y-56952380D01*
X65119047Y-56952380D01*
X65214285Y-57000000D01*
X65309523Y-57095238D01*
X65357142Y-57285714D01*
X65357142Y-57619047D01*
X65309523Y-57809523D01*
X65214285Y-57904761D01*
X65119047Y-57952380D01*
X64928571Y-57952380D01*
X66309523Y-57952380D02*
X65738095Y-57952380D01*
X66023809Y-57952380D02*
X66023809Y-56952380D01*
X65928571Y-57095238D01*
X65833333Y-57190476D01*
X65738095Y-57238095D01*
X112666666Y-77372380D02*
X112666666Y-78086666D01*
X112619047Y-78229523D01*
X112523809Y-78324761D01*
X112380952Y-78372380D01*
X112285714Y-78372380D01*
X113047619Y-77372380D02*
X113666666Y-77372380D01*
X113333333Y-77753333D01*
X113476190Y-77753333D01*
X113571428Y-77800952D01*
X113619047Y-77848571D01*
X113666666Y-77943809D01*
X113666666Y-78181904D01*
X113619047Y-78277142D01*
X113571428Y-78324761D01*
X113476190Y-78372380D01*
X113190476Y-78372380D01*
X113095238Y-78324761D01*
X113047619Y-78277142D01*
X112666666Y-57372380D02*
X112666666Y-58086666D01*
X112619047Y-58229523D01*
X112523809Y-58324761D01*
X112380952Y-58372380D01*
X112285714Y-58372380D01*
X113095238Y-57467619D02*
X113142857Y-57420000D01*
X113238095Y-57372380D01*
X113476190Y-57372380D01*
X113571428Y-57420000D01*
X113619047Y-57467619D01*
X113666666Y-57562857D01*
X113666666Y-57658095D01*
X113619047Y-57800952D01*
X113047619Y-58372380D01*
X113666666Y-58372380D01*
X57261904Y-73302380D02*
X57261904Y-72302380D01*
X57500000Y-72302380D01*
X57642857Y-72350000D01*
X57738095Y-72445238D01*
X57785714Y-72540476D01*
X57833333Y-72730952D01*
X57833333Y-72873809D01*
X57785714Y-73064285D01*
X57738095Y-73159523D01*
X57642857Y-73254761D01*
X57500000Y-73302380D01*
X57261904Y-73302380D01*
X58214285Y-72397619D02*
X58261904Y-72350000D01*
X58357142Y-72302380D01*
X58595238Y-72302380D01*
X58690476Y-72350000D01*
X58738095Y-72397619D01*
X58785714Y-72492857D01*
X58785714Y-72588095D01*
X58738095Y-72730952D01*
X58166666Y-73302380D01*
X58785714Y-73302380D01*
X61062380Y-61238095D02*
X60062380Y-61238095D01*
X60062380Y-61000000D01*
X60110000Y-60857142D01*
X60205238Y-60761904D01*
X60300476Y-60714285D01*
X60490952Y-60666666D01*
X60633809Y-60666666D01*
X60824285Y-60714285D01*
X60919523Y-60761904D01*
X61014761Y-60857142D01*
X61062380Y-61000000D01*
X61062380Y-61238095D01*
X61062380Y-59714285D02*
X61062380Y-60285714D01*
X61062380Y-60000000D02*
X60062380Y-60000000D01*
X60205238Y-60095238D01*
X60300476Y-60190476D01*
X60348095Y-60285714D01*
X95537142Y-92066666D02*
X95584761Y-92114285D01*
X95632380Y-92257142D01*
X95632380Y-92352380D01*
X95584761Y-92495238D01*
X95489523Y-92590476D01*
X95394285Y-92638095D01*
X95203809Y-92685714D01*
X95060952Y-92685714D01*
X94870476Y-92638095D01*
X94775238Y-92590476D01*
X94680000Y-92495238D01*
X94632380Y-92352380D01*
X94632380Y-92257142D01*
X94680000Y-92114285D01*
X94727619Y-92066666D01*
X95632380Y-91590476D02*
X95632380Y-91400000D01*
X95584761Y-91304761D01*
X95537142Y-91257142D01*
X95394285Y-91161904D01*
X95203809Y-91114285D01*
X94822857Y-91114285D01*
X94727619Y-91161904D01*
X94680000Y-91209523D01*
X94632380Y-91304761D01*
X94632380Y-91495238D01*
X94680000Y-91590476D01*
X94727619Y-91638095D01*
X94822857Y-91685714D01*
X95060952Y-91685714D01*
X95156190Y-91638095D01*
X95203809Y-91590476D01*
X95251428Y-91495238D01*
X95251428Y-91304761D01*
X95203809Y-91209523D01*
X95156190Y-91161904D01*
X95060952Y-91114285D01*
X74107142Y-88016666D02*
X74154761Y-88064285D01*
X74202380Y-88207142D01*
X74202380Y-88302380D01*
X74154761Y-88445238D01*
X74059523Y-88540476D01*
X73964285Y-88588095D01*
X73773809Y-88635714D01*
X73630952Y-88635714D01*
X73440476Y-88588095D01*
X73345238Y-88540476D01*
X73250000Y-88445238D01*
X73202380Y-88302380D01*
X73202380Y-88207142D01*
X73250000Y-88064285D01*
X73297619Y-88016666D01*
X73630952Y-87445238D02*
X73583333Y-87540476D01*
X73535714Y-87588095D01*
X73440476Y-87635714D01*
X73392857Y-87635714D01*
X73297619Y-87588095D01*
X73250000Y-87540476D01*
X73202380Y-87445238D01*
X73202380Y-87254761D01*
X73250000Y-87159523D01*
X73297619Y-87111904D01*
X73392857Y-87064285D01*
X73440476Y-87064285D01*
X73535714Y-87111904D01*
X73583333Y-87159523D01*
X73630952Y-87254761D01*
X73630952Y-87445238D01*
X73678571Y-87540476D01*
X73726190Y-87588095D01*
X73821428Y-87635714D01*
X74011904Y-87635714D01*
X74107142Y-87588095D01*
X74154761Y-87540476D01*
X74202380Y-87445238D01*
X74202380Y-87254761D01*
X74154761Y-87159523D01*
X74107142Y-87111904D01*
X74011904Y-87064285D01*
X73821428Y-87064285D01*
X73726190Y-87111904D01*
X73678571Y-87159523D01*
X73630952Y-87254761D01*
X79733333Y-82307142D02*
X79685714Y-82354761D01*
X79542857Y-82402380D01*
X79447619Y-82402380D01*
X79304761Y-82354761D01*
X79209523Y-82259523D01*
X79161904Y-82164285D01*
X79114285Y-81973809D01*
X79114285Y-81830952D01*
X79161904Y-81640476D01*
X79209523Y-81545238D01*
X79304761Y-81450000D01*
X79447619Y-81402380D01*
X79542857Y-81402380D01*
X79685714Y-81450000D01*
X79733333Y-81497619D01*
X80066666Y-81402380D02*
X80733333Y-81402380D01*
X80304761Y-82402380D01*
X59137142Y-90536666D02*
X59184761Y-90584285D01*
X59232380Y-90727142D01*
X59232380Y-90822380D01*
X59184761Y-90965238D01*
X59089523Y-91060476D01*
X58994285Y-91108095D01*
X58803809Y-91155714D01*
X58660952Y-91155714D01*
X58470476Y-91108095D01*
X58375238Y-91060476D01*
X58280000Y-90965238D01*
X58232380Y-90822380D01*
X58232380Y-90727142D01*
X58280000Y-90584285D01*
X58327619Y-90536666D01*
X58232380Y-89679523D02*
X58232380Y-89870000D01*
X58280000Y-89965238D01*
X58327619Y-90012857D01*
X58470476Y-90108095D01*
X58660952Y-90155714D01*
X59041904Y-90155714D01*
X59137142Y-90108095D01*
X59184761Y-90060476D01*
X59232380Y-89965238D01*
X59232380Y-89774761D01*
X59184761Y-89679523D01*
X59137142Y-89631904D01*
X59041904Y-89584285D01*
X58803809Y-89584285D01*
X58708571Y-89631904D01*
X58660952Y-89679523D01*
X58613333Y-89774761D01*
X58613333Y-89965238D01*
X58660952Y-90060476D01*
X58708571Y-90108095D01*
X58803809Y-90155714D01*
X78343333Y-97767142D02*
X78295714Y-97814761D01*
X78152857Y-97862380D01*
X78057619Y-97862380D01*
X77914761Y-97814761D01*
X77819523Y-97719523D01*
X77771904Y-97624285D01*
X77724285Y-97433809D01*
X77724285Y-97290952D01*
X77771904Y-97100476D01*
X77819523Y-97005238D01*
X77914761Y-96910000D01*
X78057619Y-96862380D01*
X78152857Y-96862380D01*
X78295714Y-96910000D01*
X78343333Y-96957619D01*
X79248095Y-96862380D02*
X78771904Y-96862380D01*
X78724285Y-97338571D01*
X78771904Y-97290952D01*
X78867142Y-97243333D01*
X79105238Y-97243333D01*
X79200476Y-97290952D01*
X79248095Y-97338571D01*
X79295714Y-97433809D01*
X79295714Y-97671904D01*
X79248095Y-97767142D01*
X79200476Y-97814761D01*
X79105238Y-97862380D01*
X78867142Y-97862380D01*
X78771904Y-97814761D01*
X78724285Y-97767142D01*
X73477142Y-92526666D02*
X73524761Y-92574285D01*
X73572380Y-92717142D01*
X73572380Y-92812380D01*
X73524761Y-92955238D01*
X73429523Y-93050476D01*
X73334285Y-93098095D01*
X73143809Y-93145714D01*
X73000952Y-93145714D01*
X72810476Y-93098095D01*
X72715238Y-93050476D01*
X72620000Y-92955238D01*
X72572380Y-92812380D01*
X72572380Y-92717142D01*
X72620000Y-92574285D01*
X72667619Y-92526666D01*
X72905714Y-91669523D02*
X73572380Y-91669523D01*
X72524761Y-91907619D02*
X73239047Y-92145714D01*
X73239047Y-91526666D01*
X90657142Y-62766666D02*
X90704761Y-62814285D01*
X90752380Y-62957142D01*
X90752380Y-63052380D01*
X90704761Y-63195238D01*
X90609523Y-63290476D01*
X90514285Y-63338095D01*
X90323809Y-63385714D01*
X90180952Y-63385714D01*
X89990476Y-63338095D01*
X89895238Y-63290476D01*
X89800000Y-63195238D01*
X89752380Y-63052380D01*
X89752380Y-62957142D01*
X89800000Y-62814285D01*
X89847619Y-62766666D01*
X89752380Y-62433333D02*
X89752380Y-61814285D01*
X90133333Y-62147619D01*
X90133333Y-62004761D01*
X90180952Y-61909523D01*
X90228571Y-61861904D01*
X90323809Y-61814285D01*
X90561904Y-61814285D01*
X90657142Y-61861904D01*
X90704761Y-61909523D01*
X90752380Y-62004761D01*
X90752380Y-62290476D01*
X90704761Y-62385714D01*
X90657142Y-62433333D01*
X55333333Y-65357142D02*
X55285714Y-65404761D01*
X55142857Y-65452380D01*
X55047619Y-65452380D01*
X54904761Y-65404761D01*
X54809523Y-65309523D01*
X54761904Y-65214285D01*
X54714285Y-65023809D01*
X54714285Y-64880952D01*
X54761904Y-64690476D01*
X54809523Y-64595238D01*
X54904761Y-64500000D01*
X55047619Y-64452380D01*
X55142857Y-64452380D01*
X55285714Y-64500000D01*
X55333333Y-64547619D01*
X55714285Y-64547619D02*
X55761904Y-64500000D01*
X55857142Y-64452380D01*
X56095238Y-64452380D01*
X56190476Y-64500000D01*
X56238095Y-64547619D01*
X56285714Y-64642857D01*
X56285714Y-64738095D01*
X56238095Y-64880952D01*
X55666666Y-65452380D01*
X56285714Y-65452380D01*
X55333333Y-62857142D02*
X55285714Y-62904761D01*
X55142857Y-62952380D01*
X55047619Y-62952380D01*
X54904761Y-62904761D01*
X54809523Y-62809523D01*
X54761904Y-62714285D01*
X54714285Y-62523809D01*
X54714285Y-62380952D01*
X54761904Y-62190476D01*
X54809523Y-62095238D01*
X54904761Y-62000000D01*
X55047619Y-61952380D01*
X55142857Y-61952380D01*
X55285714Y-62000000D01*
X55333333Y-62047619D01*
X56285714Y-62952380D02*
X55714285Y-62952380D01*
X56000000Y-62952380D02*
X56000000Y-61952380D01*
X55904761Y-62095238D01*
X55809523Y-62190476D01*
X55714285Y-62238095D01*
X77598095Y-94242380D02*
X77598095Y-95051904D01*
X77645714Y-95147142D01*
X77693333Y-95194761D01*
X77788571Y-95242380D01*
X77979047Y-95242380D01*
X78074285Y-95194761D01*
X78121904Y-95147142D01*
X78169523Y-95051904D01*
X78169523Y-94242380D01*
X79169523Y-95242380D02*
X78598095Y-95242380D01*
X78883809Y-95242380D02*
X78883809Y-94242380D01*
X78788571Y-94385238D01*
X78693333Y-94480476D01*
X78598095Y-94528095D01*
X65635714Y-74303571D02*
X65778571Y-74351190D01*
X65826190Y-74398809D01*
X65873809Y-74494047D01*
X65873809Y-74636904D01*
X65826190Y-74732142D01*
X65778571Y-74779761D01*
X65683333Y-74827380D01*
X65302380Y-74827380D01*
X65302380Y-73827380D01*
X65635714Y-73827380D01*
X65730952Y-73875000D01*
X65778571Y-73922619D01*
X65826190Y-74017857D01*
X65826190Y-74113095D01*
X65778571Y-74208333D01*
X65730952Y-74255952D01*
X65635714Y-74303571D01*
X65302380Y-74303571D01*
X66254761Y-74541666D02*
X66730952Y-74541666D01*
X66159523Y-74827380D02*
X66492857Y-73827380D01*
X66826190Y-74827380D01*
X67016666Y-73827380D02*
X67588095Y-73827380D01*
X67302380Y-74827380D02*
X67302380Y-73827380D01*
X68445238Y-74827380D02*
X67873809Y-74827380D01*
X68159523Y-74827380D02*
X68159523Y-73827380D01*
X68064285Y-73970238D01*
X67969047Y-74065476D01*
X67873809Y-74113095D01*
M02*
