M48
INCH,TZ
T1C0.0118
T2C0.0394
T3C0.0461
T4C0.0591
T5C0.1063
%
G90
G05
T1
X21260Y-25000
X21260Y-25591
X21260Y-26181
X21850Y-25000
X21850Y-25591
X21850Y-26181
X22466Y-29995
X22466Y-31767
X22466Y-33538
X23193Y-36114
X23504Y-27953
X23831Y-34594
X24213Y-25000
X24213Y-25591
X24213Y-26181
X24616Y-38128
X24622Y-39465
X24803Y-25000
X24803Y-25591
X24803Y-26181
X24854Y-34091
X24921Y-33533
X24980Y-40039
X25116Y-34675
X25394Y-25000
X25394Y-25591
X25394Y-26181
X25610Y-32313
X25616Y-38085
X25622Y-29787
X25638Y-40268
X25661Y-30276
X25717Y-34402
X26417Y-32313
X26575Y-37335
X27232Y-36992
X27232Y-39906
X27244Y-32283
X28051Y-32264
X28455Y-31093
X28776Y-36539
X28776Y-38217
X28848Y-32224
X28988Y-34106
X29177Y-34988
X29224Y-30953
X29524Y-38902
X30264Y-38933
X30315Y-34213
X30581Y-36348
X30730Y-37722
X30803Y-36091
X30807Y-36929
X30913Y-37224
X30984Y-32087
X31033Y-35856
X31417Y-34094
X31803Y-35787
X31803Y-38724
X31827Y-39098
X32061Y-36329
X32913Y-31654
X33016Y-39465
X33268Y-31939
X33268Y-35665
X33898Y-31496
X33898Y-38154
X33898Y-38752
X34360Y-28307
X34528Y-32195
X34528Y-35724
X34528Y-38811
X34606Y-29331
X34661Y-34839
X34878Y-35157
X34894Y-31854
X34953Y-35575
X34953Y-39988
X35016Y-28850
X35035Y-34213
X35157Y-30783
X35157Y-32421
X35327Y-40661
X35374Y-29780
X35492Y-25177
X35591Y-30276
X35772Y-40079
X35843Y-29563
X35843Y-33165
X36343Y-34528
X36366Y-30386
X36366Y-33894
X36407Y-38238
X36555Y-28307
X36713Y-33406
X36748Y-30874
X37045Y-27522
X37087Y-28268
X37189Y-29118
X37480Y-35669
X37520Y-36732
X37846Y-32689
X38045Y-23715
X38264Y-39350
X38545Y-22837
X38608Y-39057
X38634Y-34618
X38835Y-37654
X38945Y-35591
X39045Y-28297
X39098Y-29118
X39346Y-30984
X39346Y-32654
X39449Y-38661
X40713Y-39024
X41075Y-36457
X41087Y-37283
X41094Y-38110
X41654Y-33435
X41663Y-32165
X42248Y-29583
X42598Y-38701
T2
X44488Y-27657
X44488Y-28657
X44488Y-29657
X22982Y-20662
X22982Y-21662
X23982Y-20662
X23982Y-21662
X24982Y-20662
X24982Y-21662
X25982Y-20662
X25982Y-21662
X26982Y-20662
X26982Y-21662
X27982Y-20662
X27982Y-21662
X28982Y-20662
X28982Y-21662
X29982Y-20662
X29982Y-21662
X30982Y-20662
X30982Y-21662
X31982Y-20662
X31982Y-21662
X32982Y-20662
X32982Y-21662
X33982Y-20662
X33982Y-21662
X34982Y-20662
X34982Y-21662
X35982Y-20662
X35982Y-21662
X36982Y-20662
X36982Y-21662
X37982Y-20662
X37982Y-21662
X38982Y-20662
X38982Y-21662
X39982Y-20662
X39982Y-21662
X40982Y-20662
X40982Y-21662
X41982Y-20662
X41982Y-21662
X44488Y-31594
X44488Y-32594
X44488Y-33594
X44488Y-34594
X44488Y-35594
X44488Y-36594
X44488Y-23720
X44488Y-24720
X44488Y-25720
T3
X33996Y-27352
T4
X26122Y-27352
T5
X43898Y-21161
X21063Y-21161
X21063Y-40453
X43898Y-40453
T0
M30
