G04 #@! TF.GenerationSoftware,KiCad,Pcbnew,(5.1.8)-1*
G04 #@! TF.CreationDate,2020-12-29T20:44:18-05:00*
G04 #@! TF.ProjectId,rpi_sensor_hat,7270695f-7365-46e7-936f-725f6861742e,rev?*
G04 #@! TF.SameCoordinates,Original*
G04 #@! TF.FileFunction,Soldermask,Bot*
G04 #@! TF.FilePolarity,Negative*
%FSLAX46Y46*%
G04 Gerber Fmt 4.6, Leading zero omitted, Abs format (unit mm)*
G04 Created by KiCad (PCBNEW (5.1.8)-1) date 2020-12-29 20:44:18*
%MOMM*%
%LPD*%
G01*
G04 APERTURE LIST*
%ADD10O,1.700000X1.700000*%
%ADD11R,1.700000X1.700000*%
%ADD12C,2.700000*%
%ADD13C,2.500000*%
%ADD14R,2.170000X2.170000*%
G04 APERTURE END LIST*
D10*
X81233600Y-52482000D03*
X104093600Y-55022000D03*
X99013600Y-55022000D03*
X63453600Y-55022000D03*
X76153600Y-52482000D03*
X78693600Y-52482000D03*
X60913600Y-55022000D03*
X76153600Y-55022000D03*
X86313600Y-55022000D03*
X83773600Y-52482000D03*
X96473600Y-55022000D03*
X101553600Y-52482000D03*
X65993600Y-55022000D03*
X106633600Y-52482000D03*
X73613600Y-55022000D03*
X65993600Y-52482000D03*
X63453600Y-52482000D03*
X71073600Y-55022000D03*
X96473600Y-52482000D03*
X60913600Y-52482000D03*
X81233600Y-55022000D03*
X91393600Y-52482000D03*
X78693600Y-55022000D03*
X88853600Y-55022000D03*
X93933600Y-55022000D03*
X68533600Y-55022000D03*
X101553600Y-55022000D03*
X68533600Y-52482000D03*
X73613600Y-52482000D03*
X99013600Y-52482000D03*
X93933600Y-52482000D03*
X104093600Y-52482000D03*
X91393600Y-55022000D03*
X58373600Y-55022000D03*
X88853600Y-52482000D03*
X86313600Y-52482000D03*
X106633600Y-55022000D03*
X83773600Y-55022000D03*
D11*
X58373600Y-52482000D03*
D10*
X71073600Y-52482000D03*
X113000000Y-75330000D03*
X113000000Y-72790000D03*
D11*
X113000000Y-70250000D03*
D12*
X53500000Y-53750000D03*
X111500000Y-102750000D03*
X53500000Y-102750000D03*
X111500000Y-53750000D03*
D10*
X113000000Y-92950000D03*
X113000000Y-90410000D03*
X113000000Y-87870000D03*
X113000000Y-85330000D03*
X113000000Y-82790000D03*
D11*
X113000000Y-80250000D03*
D10*
X113000000Y-65330000D03*
X113000000Y-62790000D03*
D11*
X113000000Y-60250000D03*
D13*
X66350000Y-69475000D03*
D14*
X86350000Y-69475000D03*
M02*
